<?xml version="1.0" encoding="UTF-8"?>
<svg width="16px" height="16px" viewBox="0 0 16 16" version="1.1" xmlns="http://www.w3.org/2000/svg" xmlns:xlink="http://www.w3.org/1999/xlink">
    <!-- Generator: sketchtool 55.1 (78136) - https://sketchapp.com -->
    <title>D70B00E5-DEFB-4AA7-A145-C625A11B06BD</title>
    <desc>Created with sketchtool.</desc>
    <g id="Desktop" stroke="none" stroke-width="1" fill="none" fill-rule="evenodd">
        <g id="Sidetrip_desktop_tour-page3" transform="translate(-120.000000, -2101.000000)">
            <g id="Group-82" transform="translate(0.000000, 518.000000)">
                <g id="Group-68" transform="translate(119.000000, 0.000000)">
                    <g id="Group-30">
                        <g id="Group-62">
                            <g id="Group-41" transform="translate(0.000000, 1001.000000)">
                                <g id="Group-44" transform="translate(0.000000, 571.000000)">
                                    <g id="Group-22" transform="translate(0.000000, 10.000000)">
                                        <g id="Group-45" transform="translate(0.500000, 0.056760)">
                                            <g id="icons/16x16/other/icon16__stop-circle--secondary" transform="translate(0.500000, 0.943240)">
                                                <circle id="Oval" fill="#FFFFFF" cx="8" cy="8" r="6"></circle>
                                                <g id="Group" transform="translate(-0.000000, 0.000000)" fill-rule="nonzero">
                                                    <rect id="Rectangle" transform="translate(8.000000, 8.000000) rotate(-90.000000) translate(-8.000000, -8.000000) " x="0" y="0" width="16" height="16"></rect>
                                                    <path d="M8,16 C12.418278,16 16,12.418278 16,8 C16,3.581722 12.418278,0 8,0 C3.581722,0 0,3.581722 0,8 C0,12.418278 3.581722,16 8,16 Z M8,12 C5.790861,12 4,10.209139 4,8 C4,5.790861 5.790861,4 8,4 C10.209139,4 12,5.790861 12,8 C12,10.209139 10.209139,12 8,12 Z" id="Oval-Copy-6" fill="#4C2147"></path>
                                                </g>
                                            </g>
                                        </g>
                                    </g>
                                </g>
                            </g>
                        </g>
                    </g>
                </g>
            </g>
        </g>
    </g>
</svg>