<svg id="svg21" width="7.9322" height="7.9322" version="1.1" viewBox="0 0 7.9322 7.9322" xmlns="http://www.w3.org/2000/svg"><title id="title2">D70B00E5-DEFB-4AA7-A145-C625A11B06BD</title><desc id="desc4">Created with sketchtool.</desc><g id="Desktop" transform="scale(.49576)" fill="none" fill-rule="evenodd"><g id="Sidetrip_desktop_tour-page3" transform="translate(-120,-2101)"><g id="Group-82" transform="translate(0,518)"><g id="Group-68" transform="translate(119)"><g id="Group-30"><g id="Group-62"><g id="Group-41" transform="translate(0,1001)"><g id="Group-44" transform="translate(0,571)"><g id="Group-22" transform="translate(0,10)"><g id="Group-45" transform="translate(.5 .05676)"><g id="icons/16x16/other/icon16__stop-circle--secondary" transform="translate(.5 .94324)"><circle id="Oval" cx="8" cy="8" r="6" fill="#fff"/><g id="Group" fill-rule="nonzero"><rect id="Rectangle" transform="rotate(-90,8,8)" width="16" height="16"/><path id="Oval-Copy-6" d="m8 16c4.4183 0 8-3.5817 8-8s-3.5817-8-8-8-8 3.5817-8 8 3.5817 8 8 8zm0-4c-2.2091 0-4-1.7909-4-4s1.7909-4 4-4 4 1.7909 4 4-1.7909 4-4 4z" fill="#4c2147"/></g></g></g></g></g></g></g></g></g></g></g></g></svg>
