<svg id="svg675" width="1002px" height="375px" version="1.1" viewBox="0 0 1002 375" xmlns="http://www.w3.org/2000/svg"><title id="title2">Group 2</title><desc id="desc4">Created with Sketch.</desc><defs id="defs128"><linearGradient id="linearGradient-1" x1="61.297" x2="64.04" y1="64.358" y2="69.507" gradientTransform="scale(1.9441 .51437)" gradientUnits="userSpaceOnUse"><stop id="stop6" stop-color="#02C46C" offset="0"/><stop id="stop8" stop-color="#02C672" offset=".19182"/><stop id="stop10" stop-color="#01D08E" offset=".76803"/><stop id="stop12" stop-color="#27DFAC" stop-opacity=".42182" offset="1"/></linearGradient><linearGradient id="linearGradient-2" x1="73.318" x2="73.318" y1="-18.325" y2="122.39" gradientTransform="scale(1.5672 .63809)" gradientUnits="userSpaceOnUse"><stop id="stop15" stop-color="#02C46C" offset="0"/><stop id="stop17" stop-color="#01D08E" offset=".52386"/><stop id="stop19" stop-color="#27DFAC" stop-opacity=".42182" offset="1"/></linearGradient><linearGradient id="linearGradient-3" x1="45.863" x2="45.863" y1="157.82" y2="219.51" gradientTransform="scale(2.4677 .40524)" gradientUnits="userSpaceOnUse"><stop id="stop22" stop-color="#00C7F9" offset="0"/><stop id="stop24" stop-color="#fff" offset="1"/></linearGradient><linearGradient id="linearGradient-4" x1="45.211" x2="45.211" y1="50.638" y2="111.03" gradientTransform="scale(1.6102 .62103)" gradientUnits="userSpaceOnUse"><stop id="stop27" stop-color="#00AB90" offset="0"/><stop id="stop29" stop-color="#00C1B2" offset=".52386"/><stop id="stop31" stop-color="#00D1CC" stop-opacity="0" offset="1"/></linearGradient><linearGradient id="linearGradient-5" x1="35.703" x2="35.703" y1="-11.743" y2="64.465" gradientTransform="scale(1.5035 .66512)" gradientUnits="userSpaceOnUse"><stop id="stop34" stop-color="#02C46C" offset="0"/><stop id="stop36" stop-color="#01CC82" offset=".54793"/><stop id="stop38" stop-color="#01D08E" stop-opacity=".5896" offset=".81852"/><stop id="stop40" stop-color="#27DFAC" stop-opacity="0" offset="1"/></linearGradient><linearGradient id="linearGradient-6" x1="118.44" x2="118.44" y1="19.762" y2="64.782" gradientTransform="scale(1.5109 .66187)" gradientUnits="userSpaceOnUse"><stop id="stop43" stop-color="#02C46C" offset="0"/><stop id="stop45" stop-color="#01D08E" offset=".41506"/><stop id="stop47" stop-color="#0ED598" stop-opacity=".66235" offset=".73472"/><stop id="stop49" stop-color="#27DFAC" stop-opacity="0" offset="1"/></linearGradient><linearGradient id="linearGradient-7" x1="47.707" x2="8.2962" y1="-3.4242" y2="-3.4242" gradientTransform="scale(.85103 1.175)" gradientUnits="userSpaceOnUse"><stop id="stop52" stop-color="#C2F5FF" offset="0"/><stop id="stop54" stop-color="#EDFAFF" offset=".14049"/><stop id="stop56" stop-color="#8FECFF" offset=".25122"/><stop id="stop58" stop-color="#69D2F1" offset=".39253"/><stop id="stop60" stop-color="#00C7F9" offset=".61162"/><stop id="stop62" stop-color="#8BEAFF" offset=".80089"/><stop id="stop64" stop-color="#D0F5FF" offset="1"/></linearGradient><linearGradient id="linearGradient-8" x1="105.58" x2="105.58" y1="-55.05" y2="83.324" gradientTransform="scale(1.1915 .83929)" gradientUnits="userSpaceOnUse"><stop id="stop67" stop-color="#02C46C" offset="0"/><stop id="stop69" stop-color="#01D08E" offset=".52386"/><stop id="stop71" stop-color="#27DFAC" stop-opacity="0" offset="1"/></linearGradient><linearGradient id="linearGradient-9" x1="86.283" x2="86.283" y1="-1.398e-9" y2="14.128" gradientTransform="scale(1.4506 .68935)" gradientUnits="userSpaceOnUse"><stop id="stop74" stop-color="#F6F8FB" offset="0"/><stop id="stop76" stop-color="#fff" offset="1"/></linearGradient><linearGradient id="linearGradient-10" x1="52.682" x2="52.682" y1="-18.024" y2="135.86" gradientTransform="scale(1.3752 .72718)" gradientUnits="userSpaceOnUse"><stop id="stop79" stop-color="#02C46C" offset="0"/><stop id="stop81" stop-color="#01D08E" offset=".52386"/><stop id="stop83" stop-color="#27DFAC" stop-opacity="0" offset="1"/></linearGradient><linearGradient id="linearGradient-11" x1="69.762" x2="69.762" y1="3.185" y2="184.29" gradientTransform="scale(1.8648 .53626)" gradientUnits="userSpaceOnUse"><stop id="stop86" stop-color="#02C46C" offset="0"/><stop id="stop88" stop-color="#01D08E" offset=".52386"/><stop id="stop90" stop-color="#27DFAC" stop-opacity="0" offset="1"/></linearGradient><linearGradient id="linearGradient-12" x1="34.99" x2="34.99" y1="-41.401" y2="63.509" gradientTransform="scale(2.0698 .48314)" gradientUnits="userSpaceOnUse"><stop id="stop93" stop-color="#02C46C" offset="0"/><stop id="stop95" stop-color="#01D08E" offset=".52386"/><stop id="stop97" stop-color="#27DFAC" stop-opacity="0" offset="1"/></linearGradient><linearGradient id="linearGradient-13" x1="58.493" x2="58.493" y1="94.022" y2="224.09" gradientTransform="scale(2.2715 .44024)" gradientUnits="userSpaceOnUse"><stop id="stop100" stop-color="#02C46C" offset="0"/><stop id="stop102" stop-color="#01D08E" offset=".52386"/><stop id="stop104" stop-color="#27DFAC" stop-opacity="0" offset="1"/></linearGradient><linearGradient id="linearGradient-14" x1="138.03" x2="138.03" y1="110.71" y2="78.355" gradientTransform="scale(1.1222 .89108)" gradientUnits="userSpaceOnUse"><stop id="stop107" stop-color="#F6F8FB" stop-opacity="0" offset="0"/><stop id="stop109" stop-color="#E1E4EA" stop-opacity=".80187" offset=".47126"/><stop id="stop111" stop-color="#D6DAE0" offset="1"/></linearGradient><linearGradient id="linearGradient-15" x1="45.033" x2="45.033" y1="-53.836" y2="81.487" gradientTransform="scale(2.3282 .42952)" gradientUnits="userSpaceOnUse"><stop id="stop114" stop-color="#02C46C" offset="0"/><stop id="stop116" stop-color="#01D08E" offset=".52386"/><stop id="stop118" stop-color="#27DFAC" stop-opacity="0" offset="1"/></linearGradient><linearGradient id="linearGradient-16" x1="86.564" x2="86.564" y1="142.21" y2="102.84" gradientTransform="matrix(1.1376 0 0 .87901 213 160)" gradientUnits="userSpaceOnUse"><stop id="stop121" stop-color="#F6F8FB" stop-opacity="0" offset="0"/><stop id="stop123" stop-color="#E1E4EA" offset=".79653"/><stop id="stop125" stop-color="#E1E4EA" offset="1"/></linearGradient></defs><g id="Desktop" fill="none" fill-rule="evenodd"><g id="Group-9" transform="translate(406,74)"><g id="Group-7"><path id="Fill-1" d="m80.157 37.233 9.285-12.349c2.0647 3.0223 7.6435 4.5334 16.736 4.5334l33.532 0.0064s6.5671-0.03746 10.84-4.5399c4.2732-4.5024 6.7654 17.236-1.1093 16.288-11.105-1.3374-35.381 3.0174-64.845 2.7746-0.90989-0.0075-2.3897-2.2452-4.4394-6.713z" fill="url(#linearGradient-1)"/><path id="path131" d="m19.825 78.099-4.7646-5.6227c13.833-16.3 22.509-34.574 26.031-54.821 2.9887-17.186 20.089-14.762 24.513-8.0494 4.4236 6.7125 3.0319 13.321 10.294 13.086 7.2625-0.23427 10.662 0.3894 13.614 2.577 2.9525 2.1876 4.6075 10.116 17.297 10.116h31.198s6.3407 0 10.308-7.0708c3.9674-7.0708 8.4157-6.1356 11.337-6.1356s7.3139 1.333 14.811 14.452c0 0 13.759 25.77 21.256 27.644h-145.6c-7.566 0-17.663 4.6078-30.29 13.823z" fill="#fff"/><path id="path133" d="m19.825 78.099-4.7646-5.6227c13.833-16.3 22.509-34.574 26.031-54.821 2.9887-17.186 20.089-14.762 24.513-8.0494 4.4236 6.7125 3.0319 13.321 10.294 13.086 7.2625-0.23427 10.662 0.3894 13.614 2.577 2.9525 2.1876 4.6075 10.116 17.297 10.116h31.198s6.3407 0 10.308-7.0708c3.9674-7.0708 8.4157-6.1356 11.337-6.1356s7.3139 1.333 14.811 14.452c0 0 13.759 25.77 21.256 27.644h-145.6c-7.566 0-17.663 4.6078-30.29 13.823z" fill="url(#linearGradient-2)"/><polygon id="Fill-5" points="189.29 63.954 37.057 63.954 37.057 88.954 189.29 88.954" fill="url(#linearGradient-3)"/><path id="Fill-13" d="m71.212 41.29c8.8628 5.571 16.46 20.258 24.31 21.524 7.8501 1.266 12.915 1.1395 12.915 1.1395h-78.248c-5.6627 13.376 6.785-2.551 18.062-18.965 4.6468-6.7642 14.098-9.2695 22.961-3.6985z" fill="url(#linearGradient-4)"/><g id="Group-4" transform="translate(0 45.983)"><path id="Fill-30" d="m96.384 42.854c-69.524 0.03134-101.07 0.03134-94.647 0 15.223-14.721 17.62-29.366 24.983-37.884 7.3623-8.5176 18.801-2.65 22.564 2.2535 3.7628 4.9035 7.0889 24.756 16.535 25.027 6.2977 0.1807 11.418 0.1807 15.363 0 4.7785 0.04896 10.633 3.1307 12.687 5.676 1.3692 1.6968 2.2076 3.3394 2.5151 4.9278z" fill="#fff"/><path id="path138" d="m96.384 42.854c-69.524 0.03134-101.07 0.03134-94.647 0 15.223-14.721 17.62-29.366 24.983-37.884 7.3623-8.5176 18.801-2.65 22.564 2.2535 3.7628 4.9035 7.0889 24.756 16.535 25.027 6.2977 0.1807 11.418 0.1807 15.363 0 4.7785 0.04896 10.633 3.1307 12.687 5.676 1.3692 1.6968 2.2076 3.3394 2.5151 4.9278z" fill="url(#linearGradient-5)"/><path id="path140" d="m138.31 42.854c0.30749-1.5883 1.1458-3.2309 2.5151-4.9278 2.0538-2.5453 6.0523-2.8422 10.831-2.8912h5.7065c9.4729 0 9.4398-8.2383 13.196-16.672 3.7559-8.4341 16.361-11.011 22.564-2.2535 6.2027 8.7571 5.4834 18.926 16.983 26.745 6.4266 0.03134-2.27 0.03134-71.794 0z" fill="#fff"/><path id="path142" d="m138.31 42.854c0.30749-1.5883 1.1458-3.2309 2.5151-4.9278 2.0538-2.5453 6.0523-2.8422 10.831-2.8912h5.7065c9.4729 0 9.4398-8.2383 13.196-16.672 3.7559-8.4341 16.361-11.011 22.564-2.2535 6.2027 8.7571 5.4834 18.926 16.983 26.745 6.4266 0.03134-2.27 0.03134-71.794 0z" fill="url(#linearGradient-6)"/></g><g id="Group-126-Copy" transform="translate(56.624 57.553)"><path id="Combined-Shape" d="m2.3035 8.2221c-0.88299-0.8709-1.4303-2.0813-1.4303-3.4194 0-2.6524 2.1502-4.8026 4.8026-4.8026 2.6524 0 4.8026 2.1502 4.8026 4.8026 0 1.1627-0.41321 2.229-1.1008 3.0598 1.7111 1.006 2.8472 2.7793 2.8472 4.7989 0 3.1347-2.7366 5.6759-6.1124 5.6759-3.3759 0-6.1124-2.5412-6.1124-5.6759 0-1.7972 0.8996-3.3993 2.3035-4.4393z" fill="#a2f1ab"/><path id="Fill-55" d="m10 10.148c-1.173 0.89597-2.3462 1.7915-3.5192 2.6872v-9.0874c0-0.33981-0.5431-0.34026-0.5431 0v4.1369c-0.75092-0.83368-1.5018-1.6671-2.2528-2.501-0.23056-0.25586-0.61337 0.11855-0.38396 0.37352 0.87883 0.97567 1.7577 1.9516 2.6367 2.9272v4.6062c-0.018601 0.04689-0.016993 0.09534 0 0.14066v2.2633c-1.2456-1.3829-2.4911-2.7656-3.7367-4.1483-0.23056-0.25609-0.6136 0.11856-0.38396 0.37352 1.3735 1.5249 2.747 3.0496 4.1207 4.5745v7.7002c0 0.34004 0.5431 0.34026 0.5431 0v-10.693c1.3011-0.99331 2.6023-1.9868 3.9032-2.9802 0.27488-0.20987-0.11183-0.58116-0.38396-0.37352" fill="#4c2147"/></g><g id="Group-126-Copy-3" transform="translate(154.29)"><path id="path148" d="m2.3035 8.2221c-0.88299-0.8709-1.4303-2.0813-1.4303-3.4194 0-2.6524 2.1502-4.8026 4.8026-4.8026 2.6524 0 4.8026 2.1502 4.8026 4.8026 0 1.1627-0.41321 2.229-1.1008 3.0598 1.7111 1.006 2.8472 2.7793 2.8472 4.7989 0 3.1347-2.7366 5.6759-6.1124 5.6759-3.3759 0-6.1124-2.5412-6.1124-5.6759 0-1.7972 0.8996-3.3993 2.3035-4.4393z" fill="#a2f1ab"/><path id="path150" d="m10 10.148c-1.173 0.89597-2.3462 1.7915-3.5192 2.6872v-9.0874c0-0.33981-0.5431-0.34026-0.5431 0v4.1369c-0.75092-0.83368-1.5018-1.6671-2.2528-2.501-0.23056-0.25586-0.61337 0.11855-0.38396 0.37352 0.87883 0.97567 1.7577 1.9516 2.6367 2.9272v4.6062c-0.018601 0.04689-0.016993 0.09534 0 0.14066v2.2633c-1.2456-1.3829-2.4911-2.7656-3.7367-4.1483-0.23056-0.25609-0.6136 0.11856-0.38396 0.37352 1.3735 1.5249 2.747 3.0496 4.1207 4.5745v7.7002c0 0.34004 0.5431 0.34026 0.5431 0v-10.693c1.3011-0.99331 2.6023-1.9868 3.9032-2.9802 0.27488-0.20987-0.11183-0.58116-0.38396-0.37352" fill="#4c2147"/></g><g id="Group-126-Copy-4" transform="translate(74.262 36.203)"><path id="path153" d="m2.3035 8.2221c-0.88299-0.8709-1.4303-2.0813-1.4303-3.4194 0-2.6524 2.1502-4.8026 4.8026-4.8026 2.6524 0 4.8026 2.1502 4.8026 4.8026 0 1.1627-0.41321 2.229-1.1008 3.0598 1.7111 1.006 2.8472 2.7793 2.8472 4.7989 0 3.1347-2.7366 5.6759-6.1124 5.6759-3.3759 0-6.1124-2.5412-6.1124-5.6759 0-1.7972 0.8996-3.3993 2.3035-4.4393z" fill="#a2f1ab"/><path id="path155" d="m10 10.148c-1.173 0.89597-2.3462 1.7915-3.5192 2.6872v-9.0874c0-0.33981-0.5431-0.34026-0.5431 0v4.1369c-0.75092-0.83368-1.5018-1.6671-2.2528-2.501-0.23056-0.25586-0.61337 0.11855-0.38396 0.37352 0.87883 0.97567 1.7577 1.9516 2.6367 2.9272v4.6062c-0.018601 0.04689-0.016993 0.09534 0 0.14066v2.2633c-1.2456-1.3829-2.4911-2.7656-3.7367-4.1483-0.23056-0.25609-0.6136 0.11856-0.38396 0.37352 1.3735 1.5249 2.747 3.0496 4.1207 4.5745v7.7002c0 0.34004 0.5431 0.34026 0.5431 0v-10.693c1.3011-0.99331 2.6023-1.9868 3.9032-2.9802 0.27488-0.20987-0.11183-0.58116-0.38396-0.37352" fill="#4c2147"/></g><g id="Group-126-Copy-2" transform="translate(47.342 51.983)"><path id="path158" d="m2.3035 8.2221c-0.88299-0.8709-1.4303-2.0813-1.4303-3.4194 0-2.6524 2.1502-4.8026 4.8026-4.8026 2.6524 0 4.8026 2.1502 4.8026 4.8026 0 1.1627-0.41321 2.229-1.1008 3.0598 1.7111 1.006 2.8472 2.7793 2.8472 4.7989 0 3.1347-2.7366 5.6759-6.1124 5.6759-3.3759 0-6.1124-2.5412-6.1124-5.6759 0-1.7972 0.8996-3.3993 2.3035-4.4393z" fill="#01c97b"/><path id="path160" d="m10 10.148c-1.173 0.89597-2.3462 1.7915-3.5192 2.6872v-9.0874c0-0.33981-0.5431-0.34026-0.5431 0v4.1369c-0.75092-0.83368-1.5018-1.6671-2.2528-2.501-0.23056-0.25586-0.61337 0.11855-0.38396 0.37352 0.87883 0.97567 1.7577 1.9516 2.6367 2.9272v4.6062c-0.018601 0.04689-0.016993 0.09534 0 0.14066v2.2633c-1.2456-1.3829-2.4911-2.7656-3.7367-4.1483-0.23056-0.25609-0.6136 0.11856-0.38396 0.37352 1.3735 1.5249 2.747 3.0496 4.1207 4.5745v7.7002c0 0.34004 0.5431 0.34026 0.5431 0v-10.693c1.3011-0.99331 2.6023-1.9868 3.9032-2.9802 0.27488-0.20987-0.11183-0.58116-0.38396-0.37352" fill="#4c2147"/></g><g id="Group-125-Copy-4" transform="translate(69.589 9.6052)"><path id="Fill-59" d="m11.245 5.6227c0 3.1053-2.5174 5.6227-5.6227 5.6227s-5.6227-2.5174-5.6227-5.6227 2.5174-5.6227 5.6227-5.6227 5.6227 2.5174 5.6227 5.6227" fill="#01c97b"/><path id="Fill-60" d="m9.1086 3.3293c-1.0697 0.84001-2.1393 1.68-3.209 2.52v-3.4427c0-0.35621-0.55367-0.35666-0.55367 0v6.1375c-1.1363-1.2975-2.2724-2.595-3.4087-3.8925-0.21227-0.24212-0.56428 0.1121-0.35312 0.35312 1.2539 1.4319 2.5079 2.8639 3.7618 4.2958v5.6826c0 0.35622 0.55367 0.35688 0.55367 0v-8.5034l3.5621-2.7973c0.25251-0.19834-0.10304-0.54969-0.35312-0.35312" fill="#4c2147"/></g><g id="Group-125-Copy-6" transform="translate(145.74 67.051)"><path id="path166" d="m11.245 5.6227c0 3.1053-2.5174 5.6227-5.6227 5.6227s-5.6227-2.5174-5.6227-5.6227 2.5174-5.6227 5.6227-5.6227 5.6227 2.5174 5.6227 5.6227" fill="#a2f1ab"/><path id="path168" d="m9.1086 3.3293c-1.0697 0.84001-2.1393 1.68-3.209 2.52v-3.4427c0-0.35621-0.55367-0.35666-0.55367 0v6.1375c-1.1363-1.2975-2.2724-2.595-3.4087-3.8925-0.21227-0.24212-0.56428 0.1121-0.35312 0.35312 1.2539 1.4319 2.5079 2.8639 3.7618 4.2958v5.6826c0 0.35622 0.55367 0.35688 0.55367 0v-8.5034l3.5621-2.7973c0.25251-0.19834-0.10304-0.54969-0.35312-0.35312" fill="#4c2147"/></g><g id="Group-6" transform="translate(97.34 29.165)"><rect id="Rectangle" x="32.5" y="5.8941" width="6.1124" height="43.66" fill="#12758f" fill-opacity=".20037"/><g id="Group-5" transform="translate(0 .14186)"><path id="Fill-18" d="m40.593 0.11069h-0.46855v0.012885c0.15298-0.007028 0.3069-0.012885 0.46855-0.012885" fill="#00c7c0"/><path id="Fill-3" d="m10.372 0.11069c-6.5597 0-5.8569 5.6226-5.8569 5.6226v43.575h30.221v-43.575s-0.6651-5.3461 5.3883-5.6097v-0.012885z" fill="#fff"/><path id="path174" d="m10.372 0.11069c-6.5597 0-5.8569 5.6226-5.8569 5.6226v43.575h30.221v-43.575s-0.6651-5.3461 5.3883-5.6097v-0.012885z" fill="url(#linearGradient-7)"/><path id="Fill-19" d="m40.125 0.12351v-0.012885h-29.753c-6.5597 0-5.8569 5.6226-5.8569 5.6226h30.221s-0.6651-5.3461 5.3883-5.6097" fill="#fff" fill-opacity=".5"/><g id="Group" transform="translate(0 39.554)" fill="#fff"><path id="Fill-20" d="m3.9509 2.7306c0.71722 0.094104 1.3746-0.41123 1.4687-1.1285 0.093846-0.717-0.41121-1.3747-1.1284-1.4686-0.71722-0.094104-1.3746 0.41123-1.4687 1.1285-0.093846 0.717 0.41121 1.3747 1.1284 1.4686"/><path id="Fill-21" d="m28.894 5.3539c0.478 0.062823 0.91658-0.27398 0.97916-0.7522 0.06259-0.47798-0.27423-0.91631-0.75223-0.97913-0.47823-0.062823-0.91658 0.27398-0.97916 0.7522-0.06283 0.47798 0.27423 0.91655 0.75223 0.97913"/><path id="Fill-22" d="m25.894 2.7381c0.23909 0.031331 0.45818-0.1371 0.48951-0.37619 0.03133-0.23909-0.1371-0.45818-0.37619-0.48951-0.23887-0.031331-0.45818 0.1371-0.48951 0.37619-0.03133 0.23887 0.1371 0.45796 0.37619 0.48951"/><path id="Fill-23" d="m35.88 4.4808c0.4781 0.0627 0.91642-0.27413 0.97913-0.75219 0.06271-0.47806-0.27416-0.91675-0.75226-0.97924-0.4781-0.062492-0.91663 0.27413-0.97913 0.75219-0.06271 0.47827 0.27416 0.91654 0.75226 0.97924"/><path id="Fill-24" d="m1.9306 5.4749c0.062692-0.47809-0.27421-0.91639-0.75231-0.97908-0.4781-0.062692-0.9164 0.27394-0.97909 0.7523-0.062692 0.47809 0.27421 0.91639 0.75231 0.97908 0.4781 0.062692 0.9164-0.27421 0.97909-0.7523"/><path id="Fill-25" d="m13.176 4.4807c0.47815 0.062713 0.91637-0.27389 0.97909-0.75204 0.06271-0.47841-0.27414-0.91663-0.7523-0.97934-0.4779-0.062713-0.91637 0.2744-0.97909 0.7523-0.06271 0.47815 0.27414 0.91663 0.7523 0.97909"/><path id="Fill-26" d="m35.12 9.6112c0-1.8924-1.4465-3.4262-3.2308-3.4262-1.335 0-2.4802 0.85885-2.9729 2.0835-0.51462-0.74277-1.3415-1.2269-2.2774-1.2269-0.82549 0-1.5663 0.3777-2.083 0.97641-0.33001-2.0137-1.9817-3.5463-3.9748-3.5463-1.8398 0-3.3893 1.3061-3.8768 3.0906-0.58907-0.83459-1.5261-1.3774-2.5848-1.3774-1.0099 0-1.911 0.49204-2.5035 1.2615-0.38906-2.181-2.1924-3.8314-4.3622-3.8314-2.4534 0-4.4423 2.1095-4.4423 4.7115 0 0.48759 0.069783 0.95835 0.19978 1.4009h32.103c0.0014-0.039106 0.0056-0.077222 0.0056-0.11633"/></g></g></g></g><g id="Group-13" transform="translate(94.912 10.478)"><path id="path188" d="m47.668 2.2828-0.16561-0.216c-0.952 0.73055-1.9432 1.4042-2.9636 2.0328l-0.16943-0.00327-0.0022 0.10759c-3.461 2.1056-7.294 3.6233-11.395 4.5189l-0.04331-0.00354-8.17e-4 0.012802c-2.8789 0.62513-5.8852 0.95091-8.9883 0.95091-7.6057 0-12.377-2.6574-17.163-6.0942l0.00191-0.023153-0.038952-0.00354c-0.90597-0.65101-1.8125-1.3298-2.7392-2.0236l-0.16316 0.21791c0.8978 0.67253 1.7771 1.3306 2.655 1.9637l-0.5298 6.36 0.2713 0.02288 0.51645-6.198c0.81608 0.584 1.6327 1.1451 2.4638 1.6741l-0.79946 6.1293 0.27021 0.034866 0.78312-6.0051c0.80736 0.50528 1.6294 0.97951 2.4787 1.4145l-0.68588 5.8073 0.27048 0.03187 0.67444-5.7085c0.78693 0.39306 1.5989 0.75125 2.4444 1.0699l-0.93729 5.9637 0.26912 0.04222 0.92885-5.9095c0.87927 0.31951 1.7959 0.59599 2.7612 0.82098l-1.356 5.9661 0.26558 0.05993 1.356-5.9664c0.85884 0.19013 1.7547 0.3413 2.6975 0.44645l-0.84877 5.7027 0.26939 0.04004 0.85067-5.7156c0.95309 0.096971 1.9511 0.14981 3.005 0.15063l-1.0591 5.5589 0.26776 0.05121 1.0689-5.6118c0.92286-0.00518 1.8375-0.038407 2.743-0.099422l-0.54015 5.3996 0.27103 0.02724 0.54451-5.4448c0.99994-0.073549 1.9879-0.18251 2.9633-0.3236l-0.81145 5.8975 0.26994 0.03732 0.82207-5.9751c0.82752-0.1253 1.6461-0.27457 2.4542-0.44863l-0.47668 6.2048 0.27157 0.02097 0.48322-6.2878c0.83161-0.18522 1.6526-0.39605 2.4616-0.63167l-0.29473 6.0446 0.27212 0.01307 0.29936-6.1378c0.92149-0.27565 1.8269-0.58618 2.716-0.92748l-0.27048 5.7738 0.27212 0.0128 0.2762-5.8926c0.83378-0.32796 1.6518-0.68588 2.4542-1.0708l-0.11032 5.8234 0.27239 0.0052 0.11277-5.9612c0.92803-0.45489 1.8337-0.94764 2.7157-1.4783l-0.1046 5.5276 0.27239 0.0052 0.10787-5.7008c1.0452-0.64175 2.0574-1.3358 3.0314-2.0835" fill="#785174"/><g id="Group-8" transform="translate(1.9176 10.914)"><polygon id="polygon190" points="0.47941 0 7.276e-12 0 7.276e-12 9.6052 0.47941 9.6052" fill="#785174"/><polygon id="Fill-3-Copy" points="0.95881 0 0.47941 0 0.47941 9.6052 0.95881 9.6052" fill="#4c2147"/></g><g id="Group-8-Copy" transform="translate(3.8352 9.9555)"><polygon id="polygon194" points="0.47941 0 7.276e-12 0 7.276e-12 9.6052 0.47941 9.6052" fill="#785174"/><polygon id="polygon196" points="0.95881 0 0.47941 0 0.47941 9.6052 0.95881 9.6052" fill="#4c2147"/></g><g id="Group-8-Copy-4" transform="translate(47.231 9.5881)"><polygon id="polygon199" points="0.47941 0 7.276e-12 0 7.276e-12 9.6052 0.47941 9.6052" fill="#785174"/><polygon id="polygon201" points="0.95881 0 0.47941 0 0.47941 9.6052 0.95881 9.6052" fill="#4c2147"/></g><g id="Group-8-Copy-3" transform="translate(45.064 10.914)"><polygon id="polygon204" points="0.47941 0 7.276e-12 0 7.276e-12 9.6052 0.47941 9.6052" fill="#785174"/><polygon id="polygon206" points="0.95881 0 0.47941 0 0.47941 9.6052 0.95881 9.6052" fill="#4c2147"/></g><polygon id="Fill-6" points="4.0153 11.036 4.8056 10.963 3.8023 -5.4478e-5 3.0337 0.070494" fill="#4c2147"/><polygon id="Fill-7" points="47.454 10.402 48.186 10.125 48.203 0.85302 47.432 0.8078" fill="#4c2147"/><path id="Fill-8" d="m1.3319 6.6868c6.4758 3.4318 13.988 5.1868 22.905 5.1868 9.0807 0 16.694-1.8542 23.224-5.4004v3.8619c-6.53 3.5462-14.144 5.4004-23.224 5.4004-8.9169 0-15.753-1.2334-22.229-4.6649z" fill="#755871"/><path id="Fill-9" d="m1.8767 9.9555c6.4758 3.4318 13.443 4.9145 22.36 4.9145 9.0807 0 17.416-2.1265 23.946-5.6728v1.138c-6.53 3.5462-14.865 5.6728-23.946 5.6728-8.9169 0-15.844-1.5539-22.319-4.9855z" fill="#4c2147"/><path id="Fill-10" d="m44.586 2.0298-0.16126-0.21982c-5.8839 4.3206-12.776 6.5112-20.485 6.5112-2.6765 0-5.2819-0.22309-7.7449-0.60171l-0.0084-0.051482-0.15635 0.026149c-4.762-0.74825-8.9747-2.0835-12.098-3.5462l-0.00381-0.022063-0.031052 0.00572c-1.2407-0.58319-2.3104-1.1854-3.1698-1.7787l-0.15472 0.2239c0.84795 0.58537 1.8994 1.1797 3.1153 1.7558l1.3225 7.5531 0.26803-0.046851-1.2892-7.3635c0.90461 0.41648 1.8988 0.82153 2.9658 1.2056l1.0492 7.0165 0.26939-0.040314-1.0277-6.8721c0.80518 0.28356 1.6523 0.5535 2.5346 0.80764l1.22 6.928 0.26803-0.0474-1.1969-6.7964c0.89834 0.25223 1.8343 0.48567 2.7991 0.69813l-0.09697 0.018523 1.3619 7.0821 0.26749-0.05148-1.3478-7.0086c0.94083 0.20375 1.9097 0.38543 2.9026 0.54233l1.1735 7.0592 0.26858-0.04467-1.1587-6.971c0.96862 0.14736 1.9579 0.2713 2.9655 0.36664l1.055 7.0533 0.26939-0.04031-1.0452-6.9882c0.88935 0.078993 1.7918 0.13619 2.7043 0.16861l1.0672 6.5916 0.26885-0.04358-1.0588-6.5401c0.48812 0.014709 0.97842 0.024243 1.4717 0.024243 0.37181 0 0.73981-0.00953 1.1078-0.019884l1.2056 6.856 0.2683-0.04712-1.198-6.8138c0.92231-0.031597 1.8321-0.097243 2.7302-0.19231l1.0631 6.9113 0.26912-0.0414-1.0612-6.8988c0.9264-0.10514 1.8394-0.24461 2.7386-0.41757l1.0495 7.0846 0.26966-0.04004-1.0522-7.1009c0.82616-0.16563 1.6417-0.35739 2.4444-0.58102l1.0623 6.9056 0.26912-0.0414-1.068-6.9418c0.74226-0.21301 1.4766-0.44536 2.1982-0.70767l1.3252 7.4218 0.26803-0.04794-1.3347-7.4741c0.83297-0.31025 1.6515-0.65346 2.4556-1.0302l1.1966 7.3224 0.26885-0.04413-1.2097-7.4022c0.7488-0.35847 1.4859-0.74417 2.2091-1.1604l1.3214 7.9282 0.26858-0.04467-1.3385-8.032c0.99749-0.58509 1.9726-1.2192 2.9192-1.9144" fill="#4c2147"/><polygon id="Fill-11" points="45.671 10.854 44.619 0.28563 43.847 0.28563 44.937 11.131" fill="#4c2147"/><polygon id="Fill-12" points="2.7604 11.022 0.75697 1.0269 0 1.1786 1.9176 10.914" fill="#4c2147"/></g></g><g id="Group-125-Copy-3" transform="translate(560.09 142.91)"><path id="path218" d="m11.245 5.6227c0 3.1053-2.5174 5.6227-5.6227 5.6227s-5.6227-2.5174-5.6227-5.6227 2.5174-5.6227 5.6227-5.6227 5.6227 2.5174 5.6227 5.6227" fill="#01c97b"/><path id="path220" d="m9.1086 3.3293c-1.0697 0.84001-2.1393 1.68-3.209 2.52v-3.4427c0-0.35621-0.55367-0.35666-0.55367 0v6.1375c-1.1363-1.2975-2.2724-2.595-3.4087-3.8925-0.21227-0.24212-0.56428 0.1121-0.35312 0.35312 1.2539 1.4319 2.5079 2.8639 3.7618 4.2958v5.6826c0 0.35622 0.55367 0.35688 0.55367 0v-8.5034l3.5621-2.7973c0.25251-0.19834-0.10304-0.54969-0.35312-0.35312" fill="#4c2147"/></g><g id="Group-138" transform="translate(621,166)"><path id="path224" d="m78.713 36.304s8.6561-7.8193 26.677-26.741c18.021-18.922 26.806-4.7305 32.212 0 5.4063 4.7305 28.158 32.438 32.438 37.844s-76.814 22.526-76.814 22.526l-22.301-24.553z" fill="#fff"/><path id="path226" d="m78.713 36.304s8.6561-7.8193 26.677-26.741c18.021-18.922 26.806-4.7305 32.212 0 5.4063 4.7305 28.158 32.438 32.438 37.844s-76.814 22.526-76.814 22.526l-22.301-24.553z" fill="url(#linearGradient-8)"/><path id="path228" d="m146.07 18.669c-3.7263-4.2712-6.861-7.7017-8.4665-9.1064-5.4063-4.7305-14.191-18.922-32.212 0-4.2203 4.4313-7.927 8.2538-11.129 11.51l-0.20409 0.20724s1.8724 2.0242 5.9271-0.0032c5.0531-2.5265 6.5326-5.8568 11.263-5.8568 2.2639 0 4.0547 0.90104 5.8568 4.7305 1.4674 3.1178 4.5052 6.3073 8.1094 3.8294 3.6042-2.4779 4.28-7.4336 7.8842-6.5326 3.6042 0.90105 7.6589 4.5052 10.813 3.6042 2.3328-0.66655 2.4725-2.0224 2.4725-2.0224z" fill="url(#linearGradient-9)"/><path id="path230" d="m2.0253 98.793c9.4639-3.97 20.126-11.29 43.059-38.321 21.343-25.157 24.055-29.165 32.438-29.059 8.8978 0.11263 19.292 15.205 51.93 66.642z" fill="#fff"/><path id="path232" d="m2.0253 98.793c9.4639-3.97 20.126-11.29 43.059-38.321 21.343-25.157 24.055-29.165 32.438-29.059 8.8978 0.11263 19.292 15.205 51.93 66.642z" fill="url(#linearGradient-10)"/><g id="Group-135-Copy-5" transform="translate(85.841 42.478)"><g id="Group-135-Copy-4" transform="matrix(-1 0 0 1 25.664 0)"><polygon id="polygon234" points="12.857 -8.8551e-13 11.219 -8.8551e-13 11.219 2.398 12.857 2.398" fill="#785174"/><polygon id="polygon236" points="11.219 -8.8551e-13 10.051 -8.8551e-13 10.051 2.398 11.219 2.398" fill="#4c2147"/><polygon id="polygon238" points="7.8745 2.5806 7.8745 26.46 23.132 26.46 23.132 7.5949 18.046 2.5806" fill="#785174"/><polygon id="polygon240" points="2.3289 7.5949 2.4822 26.46 12.96 26.46 12.96 7.5949 7.4147 2.5806" fill="#4c2147"/><polygon id="polygon242" points="6.1681 6.6712 6.1681 9.4164 9.0755 9.4164 9.0755 6.6712 7.6218 5.2379" fill="#351731"/><polygon id="Fill-14" points="6.447 6.788 6.447 9.1373 8.7965 9.1373 8.7965 6.788 7.6218 5.6298" fill="#f6f8fb"/><polygon id="Fill-15" points="9.0755 12.755 6.1681 12.755 6.1681 16.67 9.0755 16.67" fill="#351731"/><polygon id="Fill-16" points="8.7965 13.037 6.4471 13.037 6.4471 16.388 8.7965 16.388" fill="#f6f8fb"/><polygon id="Fill-17" points="17.177 12.761 14.27 12.761 14.27 16.676 17.177 16.676" fill="#351731"/><polygon id="polygon248" points="16.898 13.043 14.549 13.043 14.549 16.394 16.898 16.394" fill="#f6f8fb"/><polygon id="polygon250" points="21.948 12.761 19.041 12.761 19.041 16.676 21.948 16.676" fill="#351731"/><polygon id="polygon252" points="21.669 13.043 19.32 13.043 19.32 16.394 21.669 16.394" fill="#f6f8fb"/><polygon id="polygon254" points="17.177 20.761 14.27 20.761 14.27 24.676 17.177 24.676" fill="#351731"/><polygon id="polygon256" points="16.898 21.043 14.549 21.043 14.549 24.394 16.898 24.394" fill="#f6f8fb"/><polygon id="polygon258" points="21.948 20.761 19.041 20.761 19.041 24.676 21.948 24.676" fill="#351731"/><polygon id="polygon260" points="21.669 21.043 19.32 21.043 19.32 24.394 21.669 24.394" fill="#f6f8fb"/><path id="path262" d="m2.5513 7.4353s5.9448-2.1761 7.8543-1.395c1.9095 0.78129 2.9139 2.2878 2.9139 2.2878l-5.9046-5.7476" fill="#000" fill-opacity=".3"/><path id="path264" d="m12.96 12.755s4.0428-4.4269 9.8276-4.4269h-9.8276z" fill="#000" fill-opacity=".3"/><polygon id="Fill-27" points="13.374 7.5948 12.546 7.5948 12.546 26.46 13.374 26.46" fill="#4c2147"/><polygon id="Fill-28" points="13.374 7.5948 12.96 7.5948 12.96 26.46 13.374 26.46" fill="#351731"/><polygon id="Fill-29" points="9.2149 20.322 6.0287 20.322 6.0287 26.46 9.2149 26.46" fill="#351731"/><polygon id="polygon269" points="5.8505 20.091 5.8505 26.46 6.0285 26.46 6.0285 20.322 9.2148 20.322 9.2148 26.46 9.393 26.46 9.393 20.091" fill="#351731"/><polygon id="Fill-31" points="8.5984 20.947 6.6452 20.947 6.6452 23.391 8.5984 23.391" fill="#f6f8fb"/><polygon id="Fill-32" points="6.3916 1.8065 18.277 1.8065 24.881 8.3282 13.446 8.484" fill="#4c2147"/><polygon id="Fill-33" points="7.3479 2.7124 6.391 1.8065 3.2383e-12 8.3282 1.7238 8.3282" fill="#4c2147"/></g></g><path id="path276" d="m221.06 98.83c-14.265-10.252-20.18-19.841-35.205-39.871-18.205-24.269-52.507-24.257-79.356-3.1537-23.594 18.544-67.649 43.025-88.804 43.025z" fill="#fff"/><path id="path278" d="m221.06 98.83c-14.265-10.252-20.18-19.841-35.205-39.871-18.205-24.269-52.507-24.257-79.356-3.1537-23.594 18.544-67.649 43.025-88.804 43.025z" fill="url(#linearGradient-11)"/><g id="Group-45-Copy-2" transform="translate(138.94 7.9646)"><polygon id="Fill-4" points="27.374 4.1551 21.121 19.559 21.121 45.076 29.979 45.076 29.979 19.559 33.896 19.559" fill="#4c2147"/><polygon id="polygon281" points="20.661 28.211 2.0007 28.211 2.0007 45.076 20.661 45.076" fill="#4c2147"/><polygon id="polygon283" points="25.039 28.211 6.3786 28.211 6.3786 45.076 25.039 45.076" fill="#785174"/><polygon id="polygon285" points="33.896 19.559 25.039 19.559 25.039 45.076 33.896 45.076" fill="#785174"/><path id="path287" d="m10.607 44.582h-2.562v-5.7061c0-0.70726 0.57357-1.2808 1.2808-1.2808 0.70758 0 1.2811 0.57357 1.2811 1.2808z" fill="#1a0c19"/><path id="path289" d="m14.539 44.582h-2.5618v-5.7061c0-0.70726 0.57357-1.2808 1.2808-1.2808 0.70758 0 1.281 0.57357 1.281 1.2808z" fill="#1a0c19"/><path id="path291" d="m18.47 44.582h-2.562v-5.7061c0-0.70726 0.57357-1.2808 1.2808-1.2808 0.70758 0 1.2811 0.57357 1.2811 1.2808z" fill="#1a0c19"/><path id="path293" d="m22.402 44.582h-2.562v-5.7061c0-0.70726 0.57357-1.2808 1.2808-1.2808 0.70758 0 1.2811 0.57357 1.2811 1.2808z" fill="#1a0c19"/><path id="path295" d="m31.377 45.076h-3.7195v-5.622c0-1.027 0.83264-1.8597 1.8597-1.8597 1.0272 0 1.8598 0.83264 1.8598 1.8597z" fill="#1a0c19"/><path id="path297" d="m30.391 35.975h-1.7479v-2.6418c0-0.48268 0.39132-0.87401 0.87385-0.87401 0.48268 0 0.87401 0.39132 0.87401 0.87401z" fill="#1a0c19"/><path id="path299" d="m30.391 29.844h-1.7479v-2.6418c0-0.48268 0.39132-0.87401 0.87385-0.87401 0.48268 0 0.87401 0.39132 0.87401 0.87401z" fill="#1a0c19"/><polygon id="polygon301" points="26.383 0.93295 26.383 1.2438 27.24 1.2438 27.24 4.4854 26.383 6.5972 28.408 6.5972 27.551 4.5724 27.551 1.2438 28.408 1.2438 28.408 0.93295 27.551 0.93295 27.551 0 27.24 0 27.24 0.93295" fill="#1a0c19"/><polygon id="polygon303" points="25.039 19.559 33.896 45.076 33.896 19.559" fill="#f6f8fb" opacity=".099958"/><polygon id="polygon305" points="6.3786 45.076 25.55 36.117 6.3786 36.117" fill="#f6f8fb" opacity=".099958"/><path id="path307" d="m31.661 22.472c0 1.1837-0.95962 2.1432-2.1432 2.1432-1.1836 0-2.1432-0.95946-2.1432-2.1432 0-1.1836 0.95962-2.143 2.1432-2.143 1.1836 0 2.1432 0.95946 2.1432 2.143" fill="#1a0c19"/><polygon id="polygon309" points="32.877 45.076 25.765 45.076 25.765 45.974 32.877 45.974" fill="#1a0c19"/><polygon id="polygon311" points="32.877 45.75 25.765 45.75 25.765 46.197 32.877 46.197" fill="#785174"/><polygon id="polygon313" points="33.621 46.197 25.021 46.197 25.021 47.094 33.621 47.094" fill="#1a0c19"/><polygon id="polygon315" points="33.621 46.871 25.021 46.871 25.021 47.317 33.621 47.317" fill="#785174"/><polygon id="polygon317" points="34.417 47.317 24.224 47.317 24.224 48.214 34.417 48.214" fill="#1a0c19"/><polygon id="polygon319" points="34.417 47.992 24.224 47.992 24.224 48.438 34.417 48.438" fill="#785174"/><polygon id="polygon321" points="35.269 48.39 23.373 48.39 23.373 49.287 35.269 49.287" fill="#1a0c19"/><polygon id="polygon323" points="35.269 49.064 23.373 49.064 23.373 49.51 35.269 49.51" fill="#785174"/><polygon id="polygon325" points="1.6291 27.712 25.55 27.712 25.55 38.284 0.031839 38.284" fill="#4c2147"/></g><g id="Group-135-Copy-3" transform="translate(113.27 32.743)"><polygon id="polygon328" points="16.714 -8.8551e-13 14.585 -8.8551e-13 14.585 3.1173 16.714 3.1173" fill="#c74533"/><polygon id="polygon330" points="14.585 -8.8551e-13 13.066 -8.8551e-13 13.066 3.1173 14.585 3.1173" fill="#f85f4a"/><polygon id="polygon332" points="10.237 3.3548 10.237 34.399 30.072 34.399 30.072 9.8733 23.46 3.3548" fill="#f85f4a"/><polygon id="polygon334" points="3.0276 9.8733 3.2268 34.399 16.848 34.399 16.848 9.8733 9.6392 3.3548" fill="#ff9979"/><polygon id="polygon336" points="8.0186 8.6726 8.0186 12.241 11.798 12.241 11.798 8.6726 9.9083 6.8093" fill="#c74533"/><polygon id="polygon338" points="8.3811 8.8245 8.3811 11.878 11.435 11.878 11.435 8.8245 9.9083 7.3188" fill="#f6f8fb"/><polygon id="polygon340" points="11.798 16.581 8.0185 16.581 8.0185 21.672 11.798 21.672" fill="#c74533"/><polygon id="polygon342" points="11.435 16.949 8.3812 16.949 8.3812 21.305 11.435 21.305" fill="#f6f8fb"/><polygon id="polygon344" points="22.33 16.589 18.551 16.589 18.551 21.679 22.33 21.679" fill="#c74533"/><polygon id="polygon346" points="21.968 16.956 18.913 16.956 18.913 21.312 21.968 21.312" fill="#f6f8fb"/><polygon id="polygon348" points="28.533 16.589 24.753 16.589 24.753 21.679 28.533 21.679" fill="#c74533"/><polygon id="polygon350" points="28.17 16.956 25.116 16.956 25.116 21.312 28.17 21.312" fill="#f6f8fb"/><polygon id="polygon352" points="22.33 26.989 18.551 26.989 18.551 32.079 22.33 32.079" fill="#c74533"/><polygon id="polygon354" points="21.968 27.356 18.913 27.356 18.913 31.712 21.968 31.712" fill="#f6f8fb"/><polygon id="polygon356" points="28.533 26.989 24.753 26.989 24.753 32.079 28.533 32.079" fill="#c74533"/><polygon id="polygon358" points="28.17 27.356 25.116 27.356 25.116 31.712 28.17 31.712" fill="#f6f8fb"/><path id="path360" d="m3.3167 9.6659s7.7282-2.8289 10.211-1.8134c2.4823 1.0157 3.788 2.9741 3.788 2.9741l-7.676-7.4719" fill="#c74533" fill-opacity=".6"/><path id="path362" d="m16.848 16.582s5.2557-5.755 12.776-5.755h-12.776z" fill="#c74533" fill-opacity=".6"/><polygon id="polygon364" points="17.386 9.8733 16.31 9.8733 16.31 34.399 17.386 34.399" fill="#f85f4a"/><polygon id="polygon366" points="17.386 9.8733 16.848 9.8733 16.848 34.399 17.386 34.399" fill="#c74533"/><polygon id="polygon368" points="11.979 26.419 7.8373 26.419 7.8373 34.399 11.979 34.399" fill="#f85f4a"/><polygon id="polygon370" points="7.6057 26.118 7.6057 34.398 7.8371 34.398 7.8371 26.419 11.979 26.419 11.979 34.398 12.211 34.398 12.211 26.118" fill="#c74533"/><polygon id="polygon372" points="11.178 27.231 8.6388 27.231 8.6388 30.409 11.178 30.409" fill="#f6f8fb"/><polygon id="polygon374" points="8.3091 2.3484 23.761 2.3484 32.345 10.827 17.479 11.029" fill="#c74533"/><polygon id="polygon376" points="9.5522 3.5261 8.3083 2.3484 3.2383e-12 10.827 2.2409 10.827" fill="#c74533"/></g><g id="Group-105-Copy" transform="matrix(-1 0 0 1 78.778 53.097)"><polygon id="Fill-34" points="13.93 -8.8818e-13 12.26 -8.8818e-13 12.26 2.445 13.93 2.445" fill="#c74533"/><polygon id="Fill-35" points="15.121 -8.8818e-13 13.929 -8.8818e-13 13.929 2.445 15.121 2.445" fill="#f85f4a"/><polygon id="Fill-36" points="17.34 2.6314 17.34 17.606 1.783 17.606 1.783 7.7439 6.9686 2.6314" fill="#f85f4a"/><polygon id="Fill-37" points="22.994 7.7439 22.838 17.606 12.154 17.606 12.154 7.7439 17.809 2.6314" fill="#ff9979"/><polygon id="Fill-38" points="19.08 6.8022 19.08 9.6012 16.115 9.6012 16.115 6.8022 17.598 5.3408" fill="#c74533"/><polygon id="Fill-39" points="18.795 6.9211 18.795 9.3166 16.4 9.3166 16.4 6.9211 17.598 5.7404" fill="#f6f8fb"/><polygon id="Fill-40" points="10.819 11.794 7.8547 11.794 7.8547 15.786 10.819 15.786" fill="#c74533"/><polygon id="Fill-41" points="10.535 12.082 8.1392 12.082 8.1392 15.498 10.535 15.498" fill="#f6f8fb"/><polygon id="Fill-42" points="5.9547 11.794 2.9902 11.794 2.9902 15.786 5.9547 15.786" fill="#c74533"/><polygon id="Fill-43" points="5.6702 12.082 3.2747 12.082 3.2747 15.498 5.6702 15.498" fill="#f6f8fb"/><path id="Fill-44" d="m22.767 7.5812s-6.0613-2.2189-8.0083-1.4223c-1.9469 0.79645-2.971 2.3326-2.971 2.3326l6.0204-5.8603" fill="#c74533" fill-opacity=".6"/><path id="Fill-45" d="m12.154 13.005s-4.1221-4.5137-10.02-4.5137h10.02z" fill="#c74533" fill-opacity=".6"/><polygon id="Fill-46" points="12.576 7.7439 11.732 7.7439 11.732 17.606 12.576 17.606" fill="#f85f4a"/><polygon id="Fill-47" points="12.154 7.7439 11.732 7.7439 11.732 17.606 12.154 17.606" fill="#c74533"/><polygon id="Fill-48" points="19.222 11.347 15.973 11.347 15.973 17.606 19.222 17.606" fill="#f85f4a"/><polygon id="Fill-49" points="19.403 11.112 19.403 17.606 19.222 17.606 19.222 11.347 15.973 11.347 15.973 17.606 15.791 17.606 15.791 11.112" fill="#c74533"/><polygon id="Fill-50" points="18.593 11.984 16.602 11.984 16.602 14.476 18.593 14.476" fill="#f6f8fb"/><polygon id="Fill-51" points="18.852 1.8421 6.733 1.8421 3.6309e-12 8.4916 11.659 8.6505" fill="#c74533"/><polygon id="Fill-52" points="17.877 2.7655 18.852 1.8421 25.369 8.4916 23.611 8.4916" fill="#c74533"/></g><g id="Group-11" transform="translate(0 68.222)"><path id="path399" d="m0.1609 30.657c8.8496 0 25.994-11.376 37.233-19.372 11.238-7.9964 32.518-20.414 59.984 0 28.174 20.94 33.539 19.372 33.539 19.372h-123.84" fill="#fff"/><path id="path401" d="m0.1609 30.657c8.8496 0 25.994-11.376 37.233-19.372 11.238-7.9964 32.518-20.414 59.984 0 28.174 20.94 33.539 19.372 33.539 19.372h-123.84" fill="url(#linearGradient-12)"/></g><path id="path404" d="m34.545 98.654s31.874-6.6452 59.469-21.625c24.212-13.144 43.331-20.724 78.922 0 35.591 20.724 39.517 21.625 39.517 21.625z" fill="#fff"/><path id="path406" d="m34.545 98.654s31.874-6.6452 59.469-21.625c24.212-13.144 43.331-20.724 78.922 0 35.591 20.724 39.517 21.625 39.517 21.625z" fill="url(#linearGradient-13)"/><path id="path408" d="m171.15 73.632c-4.0619 1.2311-8.1081 2.5092-12.031 3.8475-19.147 6.5326 9.6862 21.175 9.6862 21.175h-29.735s-15.093-18.922 11.714-25.68c3.9331-0.99138 8.0797-2.0508 12.292-3.1534" fill="#fff"/><path id="path410" d="m171.15 73.632c-4.0619 1.2311-8.1081 2.5092-12.031 3.8475-19.147 6.5326 9.6862 21.175 9.6862 21.175h-29.735s-15.093-18.922 11.714-25.68c3.9331-0.99138 8.0797-2.0508 12.292-3.1534" fill="url(#linearGradient-14)"/><g id="Group-105-Copy-3" transform="translate(87.611 68.142)"><polygon id="polygon412" points="18.108 -8.8818e-13 15.938 -8.8818e-13 15.938 3.1785 18.108 3.1785" fill="#785174"/><polygon id="polygon414" points="19.657 -8.8818e-13 18.108 -8.8818e-13 18.108 3.1785 19.657 3.1785" fill="#4c2147"/><polygon id="polygon416" points="22.542 3.4208 22.542 22.887 2.3178 22.887 2.3178 10.067 9.0592 3.4208" fill="#785174"/><polygon id="polygon418" points="29.892 10.067 29.689 22.887 15.8 22.887 15.8 10.067 23.151 3.4208" fill="#4c2147"/><polygon id="polygon420" points="24.804 8.8428 24.804 12.481 20.95 12.481 20.95 8.8428 22.877 6.943" fill="#351731"/><polygon id="polygon422" points="24.434 8.9975 24.434 12.112 21.32 12.112 21.32 8.9975 22.877 7.4625" fill="#f6f8fb"/><polygon id="polygon424" points="14.065 15.332 10.211 15.332 10.211 20.522 14.065 20.522" fill="#351731"/><polygon id="polygon426" points="13.695 15.706 10.581 15.706 10.581 20.148 13.695 20.148" fill="#f6f8fb"/><polygon id="polygon428" points="7.7411 15.332 3.8873 15.332 3.8873 20.522 7.7411 20.522" fill="#351731"/><polygon id="polygon430" points="7.3712 15.706 4.2572 15.706 4.2572 20.148 7.3712 20.148" fill="#f6f8fb"/><path id="path432" d="m29.598 9.8556s-7.8797-2.8846-10.411-1.849c-2.531 1.0354-3.8623 3.0324-3.8623 3.0324l7.8265-7.6184" fill="#000" fill-opacity=".3"/><path id="path434" d="m15.801 16.907s-5.3587-5.8679-13.026-5.8679h13.026z" fill="#000" fill-opacity=".3"/><polygon id="polygon436" points="16.349 10.067 15.252 10.067 15.252 22.887 16.349 22.887" fill="#351731"/><polygon id="polygon438" points="15.801 10.067 15.252 10.067 15.252 22.887 15.801 22.887" fill="#4c2147"/><polygon id="polygon440" points="24.988 14.751 20.765 14.751 20.765 22.887 24.988 22.887" fill="#351731"/><polygon id="polygon442" points="25.225 14.445 25.225 22.887 24.989 22.887 24.989 14.751 20.765 14.751 20.765 22.887 20.529 22.887 20.529 14.445" fill="#351731"/><polygon id="polygon444" points="24.171 15.579 21.582 15.579 21.582 18.819 24.171 18.819" fill="#f6f8fb"/><polygon id="polygon446" points="24.507 2.3947 8.7529 2.3947 3.6309e-12 11.039 15.157 11.246" fill="#4c2147"/><polygon id="polygon448" points="23.24 3.5952 24.508 2.3947 32.979 11.039 30.695 11.039" fill="#4c2147"/></g><g id="Group-105-Copy-2" transform="matrix(-1 0 0 1 184.92 65.832)"><polygon id="polygon451" points="16.534 -8.8818e-13 14.553 -8.8818e-13 14.553 2.9022 16.534 2.9022" fill="#c74533"/><polygon id="polygon453" points="17.948 -8.8818e-13 16.534 -8.8818e-13 16.534 2.9022 17.948 2.9022" fill="#f85f4a"/><polygon id="polygon455" points="20.582 3.1234 20.582 20.898 2.1164 20.898 2.1164 9.1921 8.2718 3.1234" fill="#f85f4a"/><polygon id="polygon457" points="27.294 9.1921 27.109 20.898 14.427 20.898 14.427 9.1921 21.139 3.1234" fill="#ff9979"/><polygon id="polygon459" points="22.648 8.0742 22.648 11.397 19.129 11.397 19.129 8.0742 20.888 6.3395" fill="#c74533"/><polygon id="polygon461" points="22.31 8.2154 22.31 11.059 19.466 11.059 19.466 8.2154 20.888 6.8138" fill="#f6f8fb"/><polygon id="polygon463" points="12.842 14 9.3236 14 9.3236 18.738 12.842 18.738" fill="#c74533"/><polygon id="polygon465" points="12.505 14.341 9.6612 14.341 9.6612 18.397 12.505 18.397" fill="#f6f8fb"/><polygon id="polygon467" points="7.0682 14 3.5494 14 3.5494 18.738 7.0682 18.738" fill="#c74533"/><polygon id="polygon469" points="6.7305 14.341 3.8871 14.341 3.8871 18.397 6.7305 18.397" fill="#f6f8fb"/><path id="path471" d="m27.025 8.9989s-7.1948-2.6338-9.5058-1.6883c-2.311 0.94539-3.5266 2.7688-3.5266 2.7688l7.1462-6.9562" fill="#c74533" fill-opacity=".6"/><path id="path473" d="m14.427 15.437s-4.8929-5.3578-11.894-5.3578h11.894z" fill="#c74533" fill-opacity=".6"/><polygon id="polygon475" points="14.928 9.192 13.926 9.192 13.926 20.898 14.928 20.898" fill="#f85f4a"/><polygon id="polygon477" points="14.427 9.192 13.926 9.192 13.926 20.898 14.427 20.898" fill="#c74533"/><polygon id="polygon479" points="22.816 13.469 18.96 13.469 18.96 20.898 22.816 20.898" fill="#f85f4a"/><polygon id="polygon481" points="23.032 13.189 23.032 20.898 22.816 20.898 22.816 13.469 18.96 13.469 18.96 20.898 18.745 20.898 18.745 13.189" fill="#c74533"/><polygon id="polygon483" points="22.07 14.225 19.706 14.225 19.706 17.183 22.07 17.183" fill="#f6f8fb"/><polygon id="polygon485" points="22.377 2.1865 7.992 2.1865 3.6309e-12 10.08 13.84 10.268" fill="#c74533"/><polygon id="polygon487" points="21.22 3.2827 22.378 2.1865 30.113 10.08 28.026 10.08" fill="#c74533"/></g></g><g id="Group-126" transform="translate(659.05 222.64)"><path id="path494" d="m2.3345 8.3327c-0.89488-0.88262-1.4496-2.1093-1.4496-3.4655 0-2.6881 2.1792-4.8673 4.8673-4.8673 2.6881 0 4.8673 2.1792 4.8673 4.8673 0 1.1784-0.41877 2.259-1.1156 3.101 1.7342 1.0195 2.8855 2.8167 2.8855 4.8635 0 3.1769-2.7734 5.7523-6.1947 5.7523s-6.1947-2.5755-6.1947-5.7523c0-1.8213 0.91171-3.4451 2.3345-4.499z" fill="#a1f0aa"/><path id="path496" d="m10.135 10.285c-1.1888 0.90803-2.3778 1.8156-3.5666 2.7234v-9.2097c0-0.34439-0.55041-0.34484-0.55041 0v4.1926c-0.76103-0.8449-1.5221-1.6896-2.2831-2.5347-0.23366-0.25931-0.62162 0.12015-0.38913 0.37855 0.89066 0.98881 1.7813 1.9778 2.6722 2.9666v4.6682c-0.018851 0.04752-0.017222 0.09662 0 0.14255v2.2937c-1.2623-1.4015-2.5247-2.8028-3.787-4.2041-0.23366-0.25953-0.62186 0.12015-0.38913 0.37855 1.392 1.5454 2.7839 3.0906 4.1761 4.6361v7.8039c0 0.34461 0.55041 0.34484 0.55041 0v-10.837c1.3187-1.0067 2.6373-2.0136 3.9557-3.0203 0.27858-0.2127-0.11334-0.58898-0.38912-0.37855" fill="#4c2147"/></g><g id="g503" transform="translate(805.07 219.1)"><path id="path499" d="m2.3345 8.3327c-0.89488-0.88262-1.4496-2.1093-1.4496-3.4655 0-2.6881 2.1792-4.8673 4.8673-4.8673 2.6881 0 4.8673 2.1792 4.8673 4.8673 0 1.1784-0.41877 2.259-1.1156 3.101 1.7342 1.0195 2.8855 2.8167 2.8855 4.8635 0 3.1769-2.7734 5.7523-6.1947 5.7523s-6.1947-2.5755-6.1947-5.7523c0-1.8213 0.91171-3.4451 2.3345-4.499z" fill="#a2f1ab"/><path id="path501" d="m10.135 10.285c-1.1888 0.90803-2.3778 1.8156-3.5666 2.7234v-9.2097c0-0.34439-0.55041-0.34484-0.55041 0v4.1926c-0.76103-0.8449-1.5221-1.6896-2.2831-2.5347-0.23366-0.25931-0.62162 0.12015-0.38913 0.37855 0.89066 0.98881 1.7813 1.9778 2.6722 2.9666v4.6682c-0.018851 0.04752-0.017222 0.09662 0 0.14255v2.2937c-1.2623-1.4015-2.5247-2.8028-3.787-4.2041-0.23366-0.25953-0.62186 0.12015-0.38913 0.37855 1.392 1.5454 2.7839 3.0906 4.1761 4.6361v7.8039c0 0.34461 0.55041 0.34484 0.55041 0v-10.837c1.3187-1.0067 2.6373-2.0136 3.9557-3.0203 0.27858-0.2127-0.11334-0.58898-0.38912-0.37855" fill="#4c2147"/></g><g id="g509" transform="translate(813.92 224.41)"><path id="path505" d="m2.3345 8.3327c-0.89488-0.88262-1.4496-2.1093-1.4496-3.4655 0-2.6881 2.1792-4.8673 4.8673-4.8673 2.6881 0 4.8673 2.1792 4.8673 4.8673 0 1.1784-0.41877 2.259-1.1156 3.101 1.7342 1.0195 2.8855 2.8167 2.8855 4.8635 0 3.1769-2.7734 5.7523-6.1947 5.7523s-6.1947-2.5755-6.1947-5.7523c0-1.8213 0.91171-3.4451 2.3345-4.499z" fill="#01c97b"/><path id="path507" d="m10.135 10.285c-1.1888 0.90803-2.3778 1.8156-3.5666 2.7234v-9.2097c0-0.34439-0.55041-0.34484-0.55041 0v4.1926c-0.76103-0.8449-1.5221-1.6896-2.2831-2.5347-0.23366-0.25931-0.62162 0.12015-0.38913 0.37855 0.89066 0.98881 1.7813 1.9778 2.6722 2.9666v4.6682c-0.018851 0.04752-0.017222 0.09662 0 0.14255v2.2937c-1.2623-1.4015-2.5247-2.8028-3.787-4.2041-0.23366-0.25953-0.62186 0.12015-0.38913 0.37855 1.392 1.5454 2.7839 3.0906 4.1761 4.6361v7.8039c0 0.34461 0.55041 0.34484 0.55041 0v-10.837c1.3187-1.0067 2.6373-2.0136 3.9557-3.0203 0.27858-0.2127-0.11334-0.58898-0.38912-0.37855" fill="#4c2147"/></g><g id="Group-125" transform="translate(692.68 242.99)"><path id="path511" d="m11.397 5.6984c0 3.1471-2.5513 5.6984-5.6984 5.6984-3.1471 0-5.6984-2.5513-5.6984-5.6984 0-3.1471 2.5513-5.6984 5.6984-5.6984 3.1471 0 5.6984 2.5513 5.6984 5.6984" fill="#01c97b"/><path id="path513" d="m9.2312 3.3741c-1.0841 0.85132-2.1681 1.7026-3.2522 2.554v-3.4891c0-0.36101-0.56112-0.36146-0.56112 0v6.2201c-1.1516-1.315-2.303-2.6299-3.4546-3.9449-0.21513-0.24538-0.57188 0.11361-0.35787 0.35787 1.2708 1.4512 2.5416 2.9024 3.8124 4.3536v5.7591c0 0.36101 0.56112 0.36168 0.56112 0v-8.6178c1.2034-0.94499 2.4067-1.89 3.6101-2.835 0.25591-0.20101-0.10443-0.55709-0.35787-0.35787" fill="#4c2147"/></g><g id="Group-125-Copy" transform="translate(759.94 224.41)"><path id="path516" d="m11.397 5.6984c0 3.1471-2.5513 5.6984-5.6984 5.6984-3.1471 0-5.6984-2.5513-5.6984-5.6984 0-3.1471 2.5513-5.6984 5.6984-5.6984 3.1471 0 5.6984 2.5513 5.6984 5.6984" fill="#a2f1ab"/><path id="path518" d="m9.2312 3.3741c-1.0841 0.85132-2.1681 1.7026-3.2522 2.554v-3.4891c0-0.36101-0.56112-0.36146-0.56112 0v6.2201c-1.1516-1.315-2.303-2.6299-3.4546-3.9449-0.21513-0.24538-0.57188 0.11361-0.35787 0.35787 1.2708 1.4512 2.5416 2.9024 3.8124 4.3536v5.7591c0 0.36101 0.56112 0.36168 0.56112 0v-8.6178c1.2034-0.94499 2.4067-1.89 3.6101-2.835 0.25591-0.20101-0.10443-0.55709-0.35787-0.35787" fill="#4c2147"/></g><path id="Path-9" d="m55.5 125c22.061 12.875 41.443 10.042 58.146-8.5 19.417-29.984 54.942-22.996 67.594-8.5 39.35 45.084-0.52351 100.34-36.82 124.87s-58.844-7.1334-44.92-23.866c13.924-16.732 67.645-5.8404 78 23.866s32.359 95.039 121.8 98.134c89.446 3.0952 119.7-53 124.99-85.197 5.2944-32.197 34.373-90.267 132.17-62.401 47.389 17.054 70.063 97.041 30.288 124.52-39.775 27.48-68.809-0.87529-48.578-25.27 20.231-24.394 73.017-11.928 114.92 9.2738 41.904 21.202 142.3 33.351 192.54-19.247 50.236-52.598 16.624-148.42 90.698-148.42" stroke="#ff9979" stroke-dasharray="8, 7" stroke-linecap="round" stroke-width="2"/><g id="Departure:-City-A" fill="#444356" aria-label="Departure:City A"><path id="path8436" d="m5.427-0.4h-3.234c-0.946 0-1.628 0.682-1.628 1.628v12.144c0 0.946 0.682 1.628 1.628 1.628h3.234c4.356 0 7.876-2.706 7.876-7.766 0-4.928-3.52-7.634-7.876-7.634zm0 12.892h-1.892v-10.384h1.892c3.102 0 4.906 1.584 4.906 5.126 0 3.674-1.804 5.258-4.906 5.258z" style=""/><path id="path8438" d="m20.735 3.428c-2.508 0-5.786 1.914-5.786 5.874 0 4.004 3.102 5.808 6.028 5.808 1.386 0 2.486-0.374 3.3-0.946 0.55-0.462 0.704-0.858 0.704-1.21 0-0.55-0.374-0.99-0.99-0.99-0.374 0-0.682 0.176-1.078 0.352-0.66 0.286-1.034 0.462-1.826 0.462-1.606 0-2.882-0.858-3.146-2.464l6.534 0.044c1.166 0 1.804-0.396 1.804-1.54 0-3.41-3.036-5.39-5.544-5.39zm0 2.508c1.254 0 2.486 0.704 2.706 2.398h-5.5c0.198-1.694 1.54-2.398 2.794-2.398z" style=""/><path id="path8440" d="m34.677 3.428c-1.562 0-2.816 0.836-3.256 1.87v-0.374c0-0.77-0.66-1.43-1.452-1.43-0.77 0-1.474 0.66-1.474 1.43v12.98c0 0.792 0.66 1.43 1.452 1.43 0.77 0 1.452-0.638 1.452-1.43v-3.96c0.022-0.066 0.022-0.154 0.022-0.242v-0.418c0.176 0.682 1.342 1.87 3.256 1.87 2.42 0 5.324-1.87 5.324-5.874 0-3.916-2.926-5.852-5.324-5.852zm-0.528 9.24c-1.232 0-2.86-0.902-2.86-3.388s1.628-3.388 2.86-3.388c1.452 0 2.97 1.144 2.97 3.388 0 2.266-1.518 3.388-2.97 3.388z" style=""/><path id="path8442" d="m51.622 3.494c-0.792 0-1.452 0.66-1.452 1.43v0.374c-0.44-1.034-1.694-1.87-3.256-1.87-2.398 0-5.324 1.936-5.324 5.852 0 4.004 2.904 5.874 5.324 5.874 1.914 0 3.08-1.188 3.256-1.87v0.418c0 0.792 0.66 1.43 1.452 1.43 0.77 0 1.474-0.638 1.474-1.43v-8.778c0-0.77-0.704-1.43-1.474-1.43zm-4.18 9.174c-1.452 0-2.97-1.122-2.97-3.388 0-2.244 1.518-3.388 2.97-3.388 1.232 0 2.86 0.902 2.86 3.388s-1.628 3.388-2.86 3.388z" style=""/><path id="path8444" d="m62.051 3.45c-1.98 0-3.344 1.804-3.432 2.596v-1.1c0-0.792-0.66-1.452-1.43-1.452-0.792 0-1.452 0.66-1.452 1.452v8.734c0 0.77 0.66 1.43 1.452 1.43 0.77 0 1.43-0.66 1.43-1.43v-5.302c0.11-0.902 1.21-2.244 2.948-2.244 1.232 0 1.848-0.55 1.848-1.364 0-0.704-0.462-1.32-1.364-1.32z" style=""/><path id="path8446" d="m70.966 12.536c-0.242 0-0.594 0.088-0.836 0.088-0.484 0-0.704-0.33-0.704-0.968v-5.83h1.452c0.726 0 1.166-0.462 1.166-1.122 0-0.682-0.44-1.144-1.166-1.144h-1.452v-1.496c0-0.792-0.638-1.452-1.43-1.452s-1.452 0.66-1.452 1.452v1.496h-0.638c-0.704 0-1.166 0.462-1.166 1.144 0 0.66 0.462 1.122 1.166 1.122h0.638v5.742c0 3.058 1.518 3.542 3.014 3.542s2.486-0.528 2.486-1.54c0-0.682-0.418-1.078-1.078-1.034z" style=""/><path id="path8448" d="m78.222 15.154c2.376 0 3.674-1.804 3.762-2.596v1.1c0 0.792 0.66 1.452 1.43 1.452 0.792 0 1.452-0.66 1.452-1.452v-8.734c0-0.792-0.66-1.43-1.452-1.43-0.77 0-1.43 0.638-1.43 1.43v5.302c-0.088 0.616-0.748 2.464-2.728 2.464-1.298 0-2.332-0.814-2.332-2.794v-4.972c0-0.792-0.66-1.43-1.43-1.43-0.792 0-1.452 0.638-1.452 1.43v4.972c0 3.806 1.958 5.258 4.18 5.258z" style=""/><path id="path8450" d="m93.805 3.45c-1.98 0-3.344 1.804-3.432 2.596v-1.1c0-0.792-0.66-1.452-1.43-1.452-0.792 0-1.452 0.66-1.452 1.452v8.734c0 0.77 0.66 1.43 1.452 1.43 0.77 0 1.43-0.66 1.43-1.43v-5.302c0.11-0.902 1.21-2.244 2.948-2.244 1.232 0 1.848-0.55 1.848-1.364 0-0.704-0.462-1.32-1.364-1.32z" style=""/><path id="path8452" d="m101.86 3.428c-2.508 0-5.786 1.914-5.786 5.874 0 4.004 3.102 5.808 6.028 5.808 1.386 0 2.486-0.374 3.3-0.946 0.55-0.462 0.704-0.858 0.704-1.21 0-0.55-0.374-0.99-0.99-0.99-0.374 0-0.682 0.176-1.078 0.352-0.66 0.286-1.034 0.462-1.826 0.462-1.606 0-2.882-0.858-3.146-2.464l6.534 0.044c1.166 0 1.804-0.396 1.804-1.54 0-3.41-3.036-5.39-5.544-5.39zm0 2.508c1.254 0 2.486 0.704 2.706 2.398h-5.5c0.198-1.694 1.54-2.398 2.794-2.398z" style=""/><path id="path8454" d="m111.07 6.728c0.902 0 1.65-0.748 1.65-1.672 0-0.902-0.748-1.65-1.65-1.65-0.924 0-1.672 0.748-1.672 1.65 0 0.924 0.748 1.672 1.672 1.672zm0 8.36c0.902 0 1.65-0.748 1.65-1.672 0-0.902-0.748-1.65-1.65-1.65-0.924 0-1.672 0.748-1.672 1.65 0 0.924 0.748 1.672 1.672 1.672z" style=""/><path id="path8456" d="m37.305 39.128c-0.572 0-0.946 0.286-1.188 0.462-0.33 0.22-1.166 0.748-2.354 0.748-2.53 0-4.708-2.2-4.708-5.038s2.2-5.038 4.686-5.038c1.232 0 2.046 0.528 2.376 0.748 0.242 0.176 0.638 0.462 1.188 0.462 0.704 0 1.386-0.484 1.386-1.342 0-0.726-0.506-1.21-1.32-1.738-0.924-0.55-2.134-0.946-3.674-0.946-3.828 0-7.744 3.212-7.744 7.854s3.894 7.854 7.788 7.854c1.496 0 2.706-0.374 3.63-0.946 0.814-0.528 1.32-1.012 1.32-1.738 0-0.858-0.682-1.342-1.386-1.342z" style=""/><path id="path8458" d="m42.256 29.932c0.77 0 1.452-0.66 1.452-1.43s-0.682-1.43-1.452-1.43c-0.792 0-1.474 0.66-1.474 1.43s0.682 1.43 1.474 1.43zm0 1.562c-0.792 0-1.452 0.66-1.452 1.452v8.712c0 0.814 0.66 1.474 1.452 1.474 0.77 0 1.43-0.66 1.43-1.474v-8.712c0-0.792-0.66-1.452-1.43-1.452z" style=""/><path id="path8460" d="m51.714 40.536c-0.242 0-0.594 0.088-0.836 0.088-0.484 0-0.704-0.33-0.704-0.968v-5.83h1.452c0.726 0 1.166-0.462 1.166-1.122 0-0.682-0.44-1.144-1.166-1.144h-1.452v-1.496c0-0.792-0.638-1.452-1.43-1.452s-1.452 0.66-1.452 1.452v1.496h-0.638c-0.704 0-1.166 0.462-1.166 1.144 0 0.66 0.462 1.122 1.166 1.122h0.638v5.742c0 3.058 1.518 3.542 3.014 3.542s2.486-0.528 2.486-1.54c0-0.682-0.418-1.078-1.078-1.034z" style=""/><path id="path8462" d="m64.162 31.494c-0.55 0-1.056 0.308-1.364 1.012l-3.014 6.82-2.948-6.82c-0.308-0.704-0.836-1.012-1.386-1.012-0.748 0-1.32 0.594-1.32 1.298 0 0.264 0.088 0.484 0.154 0.66l4.092 9.02-1.254 2.86c-0.066 0.176-0.154 0.396-0.154 0.66 0 0.704 0.528 1.298 1.276 1.298 0.55 0 1.078-0.308 1.386-1.012l5.698-12.826c0.088-0.176 0.176-0.396 0.176-0.66 0-0.704-0.572-1.298-1.342-1.298z" style=""/><path id="path8464" d="m87.224 40.91-5.456-12.298c-0.33-0.748-0.792-1.1-1.452-1.1s-1.122 0.352-1.43 1.1l-5.456 12.298c-0.11 0.242-0.198 0.528-0.198 0.836 0 0.726 0.638 1.342 1.452 1.342 0.638 0 1.166-0.374 1.408-0.946l1.1-2.596h6.248l1.1 2.596c0.242 0.572 0.77 0.946 1.43 0.946 0.814 0 1.43-0.616 1.43-1.342 0-0.308-0.066-0.594-0.176-0.836zm-9.02-3.718 2.112-4.972 2.112 4.972z" style=""/></g><g id="Stop-1" fill="#444356" aria-label="Stop 1"><path id="path8467" d="m297.31 353.45c-2.75 0-4.95 1.628-4.95 4.246 0 2.244 1.672 3.344 3.938 4.224l0.924 0.352c1.694 0.66 2.464 1.188 2.464 2.332 0 1.496-1.474 1.914-2.552 1.914-0.836 0-1.87-0.308-2.64-1.276-0.308-0.418-0.748-0.836-1.408-0.836-0.814 0-1.21 0.638-1.21 1.254 0 0.66 0.396 1.166 0.616 1.43 1.078 1.364 2.904 2.068 4.642 2.068 2.552 0 5.566-1.518 5.566-4.554 0-2.112-1.386-3.366-4.818-4.664l-0.858-0.33c-1.32-0.506-1.716-1.166-1.716-1.892 0-0.968 0.77-1.65 2.112-1.65 0.968 0 1.496 0.352 2.112 0.99 0.286 0.308 0.726 0.594 1.188 0.594 0.704 0 1.232-0.528 1.232-1.188 0-0.44-0.22-0.836-0.638-1.32-0.88-0.968-2.068-1.694-4.004-1.694z" style=""/><path id="path8469" d="m310.04 366.54c-0.242 0-0.594 0.088-0.836 0.088-0.484 0-0.704-0.33-0.704-0.968v-5.83h1.452c0.726 0 1.166-0.462 1.166-1.122 0-0.682-0.44-1.144-1.166-1.144h-1.452v-1.496c0-0.792-0.638-1.452-1.43-1.452s-1.452 0.66-1.452 1.452v1.496h-0.638c-0.704 0-1.166 0.462-1.166 1.144 0 0.66 0.462 1.122 1.166 1.122h0.638v5.742c0 3.058 1.518 3.542 3.014 3.542s2.486-0.528 2.486-1.54c0-0.682-0.418-1.078-1.078-1.034z" style=""/><path id="path8471" d="m318.34 357.43c-2.53 0-5.874 1.958-5.874 5.874 0 3.938 3.344 5.852 5.874 5.852 2.508 0 5.874-1.914 5.874-5.852 0-3.916-3.366-5.874-5.874-5.874zm0 2.508c1.54 0 3.014 1.232 3.014 3.366 0 2.112-1.474 3.344-3.014 3.344-1.562 0-3.014-1.232-3.014-3.344 0-2.134 1.452-3.366 3.014-3.366z" style=""/><path id="path8473" d="m332.06 357.43c-1.562 0-2.816 0.836-3.256 1.87v-0.374c0-0.77-0.66-1.43-1.452-1.43-0.77 0-1.474 0.66-1.474 1.43v12.98c0 0.792 0.66 1.43 1.452 1.43 0.77 0 1.452-0.638 1.452-1.43v-3.96c0.022-0.066 0.022-0.154 0.022-0.242v-0.418c0.176 0.682 1.342 1.87 3.256 1.87 2.42 0 5.324-1.87 5.324-5.874 0-3.916-2.926-5.852-5.324-5.852zm-0.528 9.24c-1.232 0-2.86-0.902-2.86-3.388s1.628-3.388 2.86-3.388c1.452 0 2.97 1.144 2.97 3.388 0 2.266-1.518 3.388-2.97 3.388z" style=""/><path id="path8475" d="m349.49 353.6h-2.662c-0.682 0-1.254 0.55-1.254 1.232 0 0.704 0.572 1.232 1.254 1.232h1.43v11.638c0 0.77 0.66 1.43 1.43 1.43 0.792 0 1.452-0.66 1.452-1.43v-12.474c0-0.946-0.704-1.628-1.65-1.628z" style=""/></g><g id="Stop-3" fill="#444356" aria-label="Stop 3"><path id="path8489" d="m716.31 333.45c-2.75 0-4.95 1.628-4.95 4.246 0 2.244 1.672 3.344 3.938 4.224l0.924 0.352c1.694 0.66 2.464 1.188 2.464 2.332 0 1.496-1.474 1.914-2.552 1.914-0.836 0-1.87-0.308-2.64-1.276-0.308-0.418-0.748-0.836-1.408-0.836-0.814 0-1.21 0.638-1.21 1.254 0 0.66 0.396 1.166 0.616 1.43 1.078 1.364 2.904 2.068 4.642 2.068 2.552 0 5.566-1.518 5.566-4.554 0-2.112-1.386-3.366-4.818-4.664l-0.858-0.33c-1.32-0.506-1.716-1.166-1.716-1.892 0-0.968 0.77-1.65 2.112-1.65 0.968 0 1.496 0.352 2.112 0.99 0.286 0.308 0.726 0.594 1.188 0.594 0.704 0 1.232-0.528 1.232-1.188 0-0.44-0.22-0.836-0.638-1.32-0.88-0.968-2.068-1.694-4.004-1.694z" style=""/><path id="path8491" d="m729.04 346.54c-0.242 0-0.594 0.088-0.836 0.088-0.484 0-0.704-0.33-0.704-0.968v-5.83h1.452c0.726 0 1.166-0.462 1.166-1.122 0-0.682-0.44-1.144-1.166-1.144h-1.452v-1.496c0-0.792-0.638-1.452-1.43-1.452s-1.452 0.66-1.452 1.452v1.496h-0.638c-0.704 0-1.166 0.462-1.166 1.144 0 0.66 0.462 1.122 1.166 1.122h0.638v5.742c0 3.058 1.518 3.542 3.014 3.542s2.486-0.528 2.486-1.54c0-0.682-0.418-1.078-1.078-1.034z" style=""/><path id="path8493" d="m737.34 337.43c-2.53 0-5.874 1.958-5.874 5.874 0 3.938 3.344 5.852 5.874 5.852 2.508 0 5.874-1.914 5.874-5.852 0-3.916-3.366-5.874-5.874-5.874zm0 2.508c1.54 0 3.014 1.232 3.014 3.366 0 2.112-1.474 3.344-3.014 3.344-1.562 0-3.014-1.232-3.014-3.344 0-2.134 1.452-3.366 3.014-3.366z" style=""/><path id="path8495" d="m751.06 337.43c-1.562 0-2.816 0.836-3.256 1.87v-0.374c0-0.77-0.66-1.43-1.452-1.43-0.77 0-1.474 0.66-1.474 1.43v12.98c0 0.792 0.66 1.43 1.452 1.43 0.77 0 1.452-0.638 1.452-1.43v-3.96c0.022-0.066 0.022-0.154 0.022-0.242v-0.418c0.176 0.682 1.342 1.87 3.256 1.87 2.42 0 5.324-1.87 5.324-5.874 0-3.916-2.926-5.852-5.324-5.852zm-0.528 9.24c-1.232 0-2.86-0.902-2.86-3.388s1.628-3.388 2.86-3.388c1.452 0 2.97 1.144 2.97 3.388 0 2.266-1.518 3.388-2.97 3.388z" style=""/><path id="path8497" d="m772.45 333.6h-6.138c-0.682 0-1.254 0.55-1.254 1.232 0 0.704 0.572 1.232 1.254 1.232h5.324l-2.42 3.19c-0.352 0.462-0.682 0.814-0.682 1.276 0 0.506 0.396 1.034 1.012 1.166 0.946 0.242 2.948 0.792 2.948 2.64 0 1.98-1.848 2.398-2.662 2.398-0.77 0-2.134-0.308-2.706-1.738-0.154-0.396-0.594-0.814-1.276-0.814-1.012 0-1.496 0.99-1.188 1.848 0.88 2.222 2.97 3.19 5.17 3.19 3.08 0 5.544-1.98 5.544-4.884 0-2.552-2.068-4.136-3.806-4.488l2.596-3.234c1.056-1.364 0-3.014-1.716-3.014z" style=""/></g><g id="Stop-2" fill="#444356" aria-label="Stop 2"><path id="path8478" d="m488.31 199.45c-2.75 0-4.95 1.628-4.95 4.246 0 2.244 1.672 3.344 3.938 4.224l0.924 0.352c1.694 0.66 2.464 1.188 2.464 2.332 0 1.496-1.474 1.914-2.552 1.914-0.836 0-1.87-0.308-2.64-1.276-0.308-0.418-0.748-0.836-1.408-0.836-0.814 0-1.21 0.638-1.21 1.254 0 0.66 0.396 1.166 0.616 1.43 1.078 1.364 2.904 2.068 4.642 2.068 2.552 0 5.566-1.518 5.566-4.554 0-2.112-1.386-3.366-4.818-4.664l-0.858-0.33c-1.32-0.506-1.716-1.166-1.716-1.892 0-0.968 0.77-1.65 2.112-1.65 0.968 0 1.496 0.352 2.112 0.99 0.286 0.308 0.726 0.594 1.188 0.594 0.704 0 1.232-0.528 1.232-1.188 0-0.44-0.22-0.836-0.638-1.32-0.88-0.968-2.068-1.694-4.004-1.694z" style=""/><path id="path8480" d="m501.04 212.54c-0.242 0-0.594 0.088-0.836 0.088-0.484 0-0.704-0.33-0.704-0.968v-5.83h1.452c0.726 0 1.166-0.462 1.166-1.122 0-0.682-0.44-1.144-1.166-1.144h-1.452v-1.496c0-0.792-0.638-1.452-1.43-1.452s-1.452 0.66-1.452 1.452v1.496h-0.638c-0.704 0-1.166 0.462-1.166 1.144 0 0.66 0.462 1.122 1.166 1.122h0.638v5.742c0 3.058 1.518 3.542 3.014 3.542s2.486-0.528 2.486-1.54c0-0.682-0.418-1.078-1.078-1.034z" style=""/><path id="path8482" d="m509.34 203.43c-2.53 0-5.874 1.958-5.874 5.874 0 3.938 3.344 5.852 5.874 5.852 2.508 0 5.874-1.914 5.874-5.852 0-3.916-3.366-5.874-5.874-5.874zm0 2.508c1.54 0 3.014 1.232 3.014 3.366 0 2.112-1.474 3.344-3.014 3.344-1.562 0-3.014-1.232-3.014-3.344 0-2.134 1.452-3.366 3.014-3.366z" style=""/><path id="path8484" d="m523.06 203.43c-1.562 0-2.816 0.836-3.256 1.87v-0.374c0-0.77-0.66-1.43-1.452-1.43-0.77 0-1.474 0.66-1.474 1.43v12.98c0 0.792 0.66 1.43 1.452 1.43 0.77 0 1.452-0.638 1.452-1.43v-3.96c0.022-0.066 0.022-0.154 0.022-0.242v-0.418c0.176 0.682 1.342 1.87 3.256 1.87 2.42 0 5.324-1.87 5.324-5.874 0-3.916-2.926-5.852-5.324-5.852zm-0.528 9.24c-1.232 0-2.86-0.902-2.86-3.388s1.628-3.388 2.86-3.388c1.452 0 2.97 1.144 2.97 3.388 0 2.266-1.518 3.388-2.97 3.388z" style=""/><path id="path8486" d="m541.52 199.45c-2.574 0-4.224 1.518-4.796 3.278-0.308 1.1 0.154 2.046 1.21 2.046 0.748 0 1.32-0.528 1.474-1.1 0.396-1.342 1.474-1.694 2.244-1.694 0.858 0 2.112 0.484 2.112 1.936 0 1.32-1.144 2.2-4.026 4.994l-2.574 2.486c-1.474 1.452-0.44 3.608 1.606 3.608h6.688c0.682 0 1.254-0.55 1.254-1.276s-0.572-1.276-1.254-1.276h-5.632l2.794-2.706c2.75-2.684 4.048-3.74 4.048-5.676 0-2.42-2.068-4.62-5.148-4.62z" style=""/></g><path id="Shape" d="m55 65c-11.578 0-21 9.4617-21 21.092 0 6.3824 3.6517 14.675 9.7813 23.888 2.1946 3.2986 4.5665 6.4992 6.9641 9.4891 0.86259 1.0757 1.6754 2.0572 2.4193 2.9304 0.482 0.56578 0.86024 0.99868 1.1069 1.2745 0.3892 0.43529 1.0679 0.43505 1.4569-4e-5 0.24662-0.2758 0.62486-0.7087 1.1069-1.2745 0.74388-0.87319 1.5567-1.8548 2.4193-2.9304 2.3977-2.9899 4.7695-6.1905 6.9641-9.4891 6.1295-9.2127 9.7813-17.505 9.7813-23.888 0-11.63-9.4224-21.092-21-21.092zm5.9e-5 33c-6.6178 0-12-5.3823-12-12 0-6.6177 5.3823-12 12-12 6.6177 0 12 5.3823 12 12 0 6.6177-5.3822 12-12 12z" fill="#ff9979" stroke="#f85f4a" stroke-width="2"/><g id="Destination:-City-B" fill="#444356" aria-label="Destination:City B"><path id="path8401" d="m883.42-0.4h-3.234c-0.946 0-1.628 0.682-1.628 1.628v12.144c0 0.946 0.682 1.628 1.628 1.628h3.234c4.356 0 7.876-2.706 7.876-7.766 0-4.928-3.52-7.634-7.876-7.634zm0 12.892h-1.892v-10.384h1.892c3.102 0 4.906 1.584 4.906 5.126 0 3.674-1.804 5.258-4.906 5.258z" style=""/><path id="path8403" d="m898.72 3.428c-2.508 0-5.786 1.914-5.786 5.874 0 4.004 3.102 5.808 6.028 5.808 1.386 0 2.486-0.374 3.3-0.946 0.55-0.462 0.704-0.858 0.704-1.21 0-0.55-0.374-0.99-0.99-0.99-0.374 0-0.682 0.176-1.078 0.352-0.66 0.286-1.034 0.462-1.826 0.462-1.606 0-2.882-0.858-3.146-2.464l6.534 0.044c1.166 0 1.804-0.396 1.804-1.54 0-3.41-3.036-5.39-5.544-5.39zm0 2.508c1.254 0 2.486 0.704 2.706 2.398h-5.5c0.198-1.694 1.54-2.398 2.794-2.398z" style=""/><path id="path8405" d="m910.18 3.428c-2.09 0-4.114 1.144-4.114 3.344 0 1.562 0.924 2.75 3.146 3.366l1.254 0.374c1.056 0.308 1.298 0.792 1.298 1.166 0 0.616-0.594 1.078-1.672 1.078-0.748 0-1.452-0.22-2.09-1.012-0.264-0.33-0.594-0.704-1.188-0.704-0.792 0-1.1 0.616-1.1 1.1 0 0.682 0.484 1.232 0.594 1.386 0.616 0.748 1.804 1.584 3.784 1.584 2.288 0 4.532-1.166 4.532-3.586 0-1.958-1.474-2.794-3.234-3.278l-1.342-0.396c-1.012-0.286-1.144-0.748-1.144-1.1 0-0.616 0.506-1.034 1.364-1.034 0.638 0 1.144 0.242 1.584 0.748 0.374 0.462 0.792 0.616 1.21 0.616 0.638 0 1.122-0.374 1.122-1.078 0-0.462-0.22-0.77-0.352-0.968-0.726-1.012-2.156-1.606-3.652-1.606z" style=""/><path id="path8407" d="m921.84 12.536c-0.242 0-0.594 0.088-0.836 0.088-0.484 0-0.704-0.33-0.704-0.968v-5.83h1.452c0.726 0 1.166-0.462 1.166-1.122 0-0.682-0.44-1.144-1.166-1.144h-1.452v-1.496c0-0.792-0.638-1.452-1.43-1.452s-1.452 0.66-1.452 1.452v1.496h-0.638c-0.704 0-1.166 0.462-1.166 1.144 0 0.66 0.462 1.122 1.166 1.122h0.638v5.742c0 3.058 1.518 3.542 3.014 3.542s2.486-0.528 2.486-1.54c0-0.682-0.418-1.078-1.078-1.034z" style=""/><path id="path8409" d="m926.39 1.932c0.77 0 1.452-0.66 1.452-1.43s-0.682-1.43-1.452-1.43c-0.792 0-1.474 0.66-1.474 1.43s0.682 1.43 1.474 1.43zm0 1.562c-0.792 0-1.452 0.66-1.452 1.452v8.712c0 0.814 0.66 1.474 1.452 1.474 0.77 0 1.43-0.66 1.43-1.474v-8.712c0-0.792-0.66-1.452-1.43-1.452z" style=""/><path id="path8411" d="m937.15 3.45c-2.376 0-3.674 1.804-3.762 2.596v-1.1c0-0.792-0.66-1.452-1.43-1.452-0.792 0-1.452 0.66-1.452 1.452v8.734c0 0.792 0.66 1.43 1.452 1.43 0.77 0 1.43-0.638 1.43-1.43v-5.302c0.088-0.616 0.748-2.464 2.728-2.464 1.298 0 2.332 0.814 2.332 2.794v4.972c0 0.792 0.66 1.43 1.43 1.43 0.792 0 1.452-0.638 1.452-1.43v-4.972c0-3.806-1.958-5.258-4.18-5.258z" style=""/><path id="path8413" d="m953.54 3.494c-0.792 0-1.452 0.66-1.452 1.43v0.374c-0.44-1.034-1.694-1.87-3.256-1.87-2.398 0-5.324 1.936-5.324 5.852 0 4.004 2.904 5.874 5.324 5.874 1.914 0 3.08-1.188 3.256-1.87v0.418c0 0.792 0.66 1.43 1.452 1.43 0.77 0 1.474-0.638 1.474-1.43v-8.778c0-0.77-0.704-1.43-1.474-1.43zm-4.18 9.174c-1.452 0-2.97-1.122-2.97-3.388 0-2.244 1.518-3.388 2.97-3.388 1.232 0 2.86 0.902 2.86 3.388s-1.628 3.388-2.86 3.388z" style=""/><path id="path8415" d="m963.01 12.536c-0.242 0-0.594 0.088-0.836 0.088-0.484 0-0.704-0.33-0.704-0.968v-5.83h1.452c0.726 0 1.166-0.462 1.166-1.122 0-0.682-0.44-1.144-1.166-1.144h-1.452v-1.496c0-0.792-0.638-1.452-1.43-1.452s-1.452 0.66-1.452 1.452v1.496h-0.638c-0.704 0-1.166 0.462-1.166 1.144 0 0.66 0.462 1.122 1.166 1.122h0.638v5.742c0 3.058 1.518 3.542 3.014 3.542s2.486-0.528 2.486-1.54c0-0.682-0.418-1.078-1.078-1.034z" style=""/><path id="path8417" d="m967.56 1.932c0.77 0 1.452-0.66 1.452-1.43s-0.682-1.43-1.452-1.43c-0.792 0-1.474 0.66-1.474 1.43s0.682 1.43 1.474 1.43zm0 1.562c-0.792 0-1.452 0.66-1.452 1.452v8.712c0 0.814 0.66 1.474 1.452 1.474 0.77 0 1.43-0.66 1.43-1.474v-8.712c0-0.792-0.66-1.452-1.43-1.452z" style=""/><path id="path8419" d="m977.1 3.428c-2.53 0-5.874 1.958-5.874 5.874 0 3.938 3.344 5.852 5.874 5.852 2.508 0 5.874-1.914 5.874-5.852 0-3.916-3.366-5.874-5.874-5.874zm0 2.508c1.54 0 3.014 1.232 3.014 3.366 0 2.112-1.474 3.344-3.014 3.344-1.562 0-3.014-1.232-3.014-3.344 0-2.134 1.452-3.366 3.014-3.366z" style=""/><path id="path8421" d="m991.8 3.45c-2.376 0-3.674 1.804-3.762 2.596v-1.1c0-0.792-0.66-1.452-1.43-1.452-0.792 0-1.452 0.66-1.452 1.452v8.734c0 0.792 0.66 1.43 1.452 1.43 0.77 0 1.43-0.638 1.43-1.43v-5.302c0.088-0.616 0.748-2.464 2.728-2.464 1.298 0 2.332 0.814 2.332 2.794v4.972c0 0.792 0.66 1.43 1.43 1.43 0.792 0 1.452-0.638 1.452-1.43v-4.972c0-3.806-1.958-5.258-4.18-5.258z" style=""/><path id="path8423" d="m1000.1 6.728c0.902 0 1.65-0.748 1.65-1.672 0-0.902-0.748-1.65-1.65-1.65-0.924 0-1.672 0.748-1.672 1.65 0 0.924 0.748 1.672 1.672 1.672zm0 8.36c0.902 0 1.65-0.748 1.65-1.672 0-0.902-0.748-1.65-1.65-1.65-0.924 0-1.672 0.748-1.672 1.65 0 0.924 0.748 1.672 1.672 1.672z" style=""/><path id="path8425" d="m921.9 39.128c-0.572 0-0.946 0.286-1.188 0.462-0.33 0.22-1.166 0.748-2.354 0.748-2.53 0-4.708-2.2-4.708-5.038s2.2-5.038 4.686-5.038c1.232 0 2.046 0.528 2.376 0.748 0.242 0.176 0.638 0.462 1.188 0.462 0.704 0 1.386-0.484 1.386-1.342 0-0.726-0.506-1.21-1.32-1.738-0.924-0.55-2.134-0.946-3.674-0.946-3.828 0-7.744 3.212-7.744 7.854s3.894 7.854 7.788 7.854c1.496 0 2.706-0.374 3.63-0.946 0.814-0.528 1.32-1.012 1.32-1.738 0-0.858-0.682-1.342-1.386-1.342z" style=""/><path id="path8427" d="m926.86 29.932c0.77 0 1.452-0.66 1.452-1.43s-0.682-1.43-1.452-1.43c-0.792 0-1.474 0.66-1.474 1.43s0.682 1.43 1.474 1.43zm0 1.562c-0.792 0-1.452 0.66-1.452 1.452v8.712c0 0.814 0.66 1.474 1.452 1.474 0.77 0 1.43-0.66 1.43-1.474v-8.712c0-0.792-0.66-1.452-1.43-1.452z" style=""/><path id="path8429" d="m936.31 40.536c-0.242 0-0.594 0.088-0.836 0.088-0.484 0-0.704-0.33-0.704-0.968v-5.83h1.452c0.726 0 1.166-0.462 1.166-1.122 0-0.682-0.44-1.144-1.166-1.144h-1.452v-1.496c0-0.792-0.638-1.452-1.43-1.452s-1.452 0.66-1.452 1.452v1.496h-0.638c-0.704 0-1.166 0.462-1.166 1.144 0 0.66 0.462 1.122 1.166 1.122h0.638v5.742c0 3.058 1.518 3.542 3.014 3.542s2.486-0.528 2.486-1.54c0-0.682-0.418-1.078-1.078-1.034z" style=""/><path id="path8431" d="m948.76 31.494c-0.55 0-1.056 0.308-1.364 1.012l-3.014 6.82-2.948-6.82c-0.308-0.704-0.836-1.012-1.386-1.012-0.748 0-1.32 0.594-1.32 1.298 0 0.264 0.088 0.484 0.154 0.66l4.092 9.02-1.254 2.86c-0.066 0.176-0.154 0.396-0.154 0.66 0 0.704 0.528 1.298 1.276 1.298 0.55 0 1.078-0.308 1.386-1.012l5.698-12.826c0.088-0.176 0.176-0.396 0.176-0.66 0-0.704-0.572-1.298-1.342-1.298z" style=""/><path id="path8433" d="m966.59 34.442c1.518-0.572 2.046-1.716 2.046-2.97 0-2.574-2.112-3.872-4.84-3.872h-3.784c-0.946 0-1.628 0.682-1.628 1.628v12.144c0 0.946 0.682 1.628 1.628 1.628h4.004c3.74 0 5.676-1.826 5.676-4.488 0-1.738-0.77-3.19-3.102-4.07zm-5.236-4.334h2.442c1.21 0 1.958 0.616 1.958 1.716 0 1.078-0.748 1.804-1.958 1.804h-2.442zm2.662 10.384h-2.662v-4.598h2.662c2.068 0 2.794 1.144 2.794 2.354 0 1.188-0.748 2.244-2.794 2.244z" style=""/></g><path id="path543" d="m936 65c-11.578 0-21 9.4617-21 21.092 0 6.3824 3.6517 14.675 9.7813 23.888 2.1946 3.2986 4.5665 6.4992 6.9641 9.4891 0.86259 1.0757 1.6754 2.0572 2.4193 2.9304 0.482 0.56578 0.86024 0.99868 1.1069 1.2745 0.38921 0.43529 1.068 0.43505 1.457-4e-5 0.24662-0.2758 0.62486-0.7087 1.1069-1.2745 0.74387-0.87319 1.5567-1.8548 2.4193-2.9304 2.3977-2.9899 4.7695-6.1905 6.9641-9.4891 6.1295-9.2127 9.7813-17.505 9.7813-23.888 0-11.63-9.4224-21.092-21-21.092zm6e-5 33c-6.6178 0-12-5.3823-12-12 0-6.6177 5.3823-12 12-12 6.6177 0 12 5.3823 12 12 0 6.6177-5.3822 12-12 12z" fill="#ff9979" stroke="#f85f4a" stroke-width="2"/><circle id="Oval" cx="322" cy="331" r="8" fill="#fff" stroke="#ff9979" stroke-width="2"/><circle id="Oval-Copy-6" cx="515" cy="177" r="8" fill="#fff" stroke="#ff9979" stroke-width="2"/><circle id="Oval-Copy-7" cx="744" cy="311" r="8" fill="#fff" stroke="#ff9979" stroke-width="2"/><g id="Group-49" transform="translate(249.6 160)"><polygon id="Fill-2" points="67.513 23.139 52.1 23.139 52.1 39.653 67.513 39.653" fill="#f85f4a"/><g id="Group-48" transform="translate(0 .020233)"><path id="path549" d="m61.701 33.953h-3.349v-4.7626c0-0.93206 0.74969-1.6876 1.6745-1.6876s1.6745 0.75557 1.6745 1.6876z" fill="#fff"/><polygon id="polygon551" points="71.911 43.539 47.911 43.539 47.911 59.844 71.911 59.844" fill="#f85f4a"/><polygon id="polygon553" points="75.911 66.831 43.911 66.831 43.911 99.083 75.911 99.083" fill="#f85f4a"/><path id="path555" d="m61.778 51.333h-3.7333v-2.4188c0-1.039 0.83573-1.8813 1.8667-1.8813 1.0309 0 1.8667 0.84229 1.8667 1.8813z" fill="#fff"/><path id="path557" d="m55.111 51.333h-3.7333v-2.4188c0-1.039 0.83573-1.8813 1.8667-1.8813s1.8667 0.84229 1.8667 1.8813z" fill="#fff"/><path id="path559" d="m68.444 51.333h-3.7333v-2.4188c0-1.039 0.83573-1.8813 1.8667-1.8813 1.0309 0 1.8667 0.84229 1.8667 1.8813z" fill="#fff"/><polygon id="polygon561" points="69.759 55.136 65.965 55.136 65.914 55.136 65.914 59.012 62.015 59.012 62.015 55.136 57.858 55.136 57.858 59.012 53.908 59.012 53.908 55.136 49.751 55.136 49.751 59.012 45.801 59.012 45.801 55.136 41.955 55.136 41.955 67.558 77.866 67.558 77.866 55.136 73.709 55.136 73.709 59.012 69.81 59.012 69.81 55.136" fill="#ff9979"/><polygon id="polygon563" points="66.737 36.103 64.107 36.103 64.071 36.103 64.071 38.789 61.369 38.789 61.369 36.103 58.488 36.103 58.488 38.789 55.751 38.789 55.751 36.103 52.869 36.103 52.869 38.789 50.132 38.789 50.132 36.103 47.466 36.103 47.466 43.595 72.355 43.595 72.355 36.103 69.474 36.103 69.474 38.789 66.772 38.789 66.772 36.103" fill="#ff9979"/><polygon id="polygon565" points="69.2 24.368 50.622 24.368 59.911 10.062" fill="#ff9979"/><path id="path567" d="m59.866 74.16s-10.193 3.7626-11.052 19.619h22.193c-0.85938-15.857-11.141-19.619-11.141-19.619" fill="#fff"/><polygon id="polygon569" points="30.371 73.282 30.371 69.967 26.816 69.967 26.816 73.282 23.438 73.282 23.438 69.967 20.149 69.967 20.149 99.083 43.971 99.083 43.971 69.967 40.682 69.967 40.682 73.282 37.305 73.282 37.305 69.967 33.749 69.967 33.749 73.282" fill="#ff9979"/><path id="path571" d="m32.06 96.126c-0.44178 0-0.8-0.36103-0.8-0.80628v-16.484c0-0.44524 0.35822-0.80628 0.8-0.80628 0.44178 0 0.8 0.36103 0.8 0.80628v16.484c0 0.44524-0.35822 0.80628-0.8 0.80628" fill="#fff"/><path id="path573" d="m25.127 96.126c-0.44178 0-0.8-0.36103-0.8-0.80628v-16.484c0-0.44524 0.35822-0.80628 0.8-0.80628s0.8 0.36103 0.8 0.80628v16.484c0 0.44524-0.35822 0.80628-0.8 0.80628" fill="#fff"/><path id="path575" d="m38.993 96.126c-0.44178 0-0.8-0.36103-0.8-0.80628v-16.484c0-0.44524 0.35822-0.80628 0.8-0.80628s0.8 0.36103 0.8 0.80628v16.484c0 0.44524-0.35822 0.80628-0.8 0.80628" fill="#fff"/><polygon id="polygon577" points="20.444 56.171 3.3778 56.171 3.3778 105.71 20.444 105.71" fill="#f85f4a"/><polygon id="polygon579" points="18.578 43.629 5.2444 43.629 5.2444 51.691 18.578 51.691" fill="#f85f4a"/><polygon id="polygon581" points="19.822 44.077 4 44.077 11.911 31.893" fill="#ff9979"/><path id="path583" d="m14.144 71.042h-4.4654v-6.3501c0-1.2427 0.99964-2.2502 2.2327-2.2502 1.2331 0 2.2327 1.0075 2.2327 2.2502z" fill="#fff"/><polygon id="polygon585" points="10.222 51.064 10.222 47.75 6.6666 47.75 6.6666 51.064 3.2889 51.064 3.2889 47.75 -1.7778e-5 47.75 -1.7778e-5 58.321 23.822 58.321 23.822 47.75 20.533 47.75 20.533 51.064 17.156 51.064 17.156 47.75 13.6 47.75 13.6 51.064" fill="#ff9979"/><polygon id="polygon587" points="89.511 73.282 89.511 69.967 93.067 69.967 93.067 73.282 96.444 73.282 96.444 69.967 99.733 69.967 99.733 99.083 75.911 99.083 75.911 69.967 79.2 69.967 79.2 73.282 82.578 73.282 82.578 69.967 86.133 69.967 86.133 73.282" fill="#ff9979"/><path id="path589" d="m87.822 96.126c0.44178 0 0.8-0.36103 0.8-0.80628v-16.484c0-0.44524-0.35822-0.80628-0.8-0.80628-0.44178 0-0.8 0.36103-0.8 0.80628v16.484c0 0.44524 0.35822 0.80628 0.8 0.80628" fill="#fff"/><path id="path591" d="m94.756 96.126c0.44178 0 0.8-0.36103 0.8-0.80628v-16.484c0-0.44524-0.35822-0.80628-0.8-0.80628s-0.8 0.36103-0.8 0.80628v16.484c0 0.44524 0.35822 0.80628 0.8 0.80628" fill="#fff"/><path id="path593" d="m80.889 96.126c0.44178 0 0.8-0.36103 0.8-0.80628v-16.484c0-0.44524-0.35822-0.80628-0.8-0.80628-0.44178 0-0.8 0.36103-0.8 0.80628v16.484c0 0.44524 0.35822 0.80628 0.8 0.80628" fill="#fff"/><polygon id="polygon595" points="116.5 56.171 99.438 56.171 99.438 105.71 116.5 105.71" fill="#f85f4a"/><polygon id="polygon597" points="114.64 43.629 101.3 43.629 101.3 51.691 114.64 51.691" fill="#f85f4a"/><polygon id="polygon599" points="100.06 44.077 115.88 44.077 107.97 31.893" fill="#ff9979"/><path id="path601" d="m105.74 71.042h4.4652v-6.3501c0-1.2427-0.99947-2.2502-2.2325-2.2502-1.2331 0-2.2327 1.0075-2.2327 2.2502z" fill="#fff"/><polygon id="polygon603" points="109.66 51.064 109.66 47.75 113.22 47.75 113.22 51.064 116.59 51.064 116.59 47.75 119.88 47.75 119.88 58.321 96.06 58.321 96.06 47.75 99.349 47.75 99.349 51.064 102.73 51.064 102.73 47.75 106.28 47.75 106.28 51.064" fill="#ff9979"/><path id="path605" d="m0.19346 25.89s3.3778-3.2251 6.7556-0.89586c2.8222 1.9462 4.9778-0.71669 4.9778-0.71669v4.121s-3.7333 1.075-5.5111-1.2542-6.2222-1.2542-6.2222-1.2542" fill="#ff9979"/><polygon id="polygon607" points="12.105 23.561 11.927 23.561 11.927 33.953 12.105 33.953" fill="#ff9979"/><path id="path609" d="m12.282 23.651c0 0.14853-0.11929 0.26876-0.26667 0.26876s-0.26667-0.12022-0.26667-0.26876 0.11929-0.26876 0.26667-0.26876 0.26667 0.12022 0.26667 0.26876" fill="#ff9979"/><path id="path611" d="m36.993 28.399s3.3778-3.2251 6.7556-0.89586c2.8222 1.9462 4.9778-0.71669 4.9778-0.71669v4.121s-3.7333 1.075-5.5111-1.2542c-1.7778-2.3292-6.2222-1.2542-6.2222-1.2542" fill="#ff9979"/><polygon id="polygon613" points="48.905 26.07 48.727 26.07 48.727 36.462 48.905 36.462" fill="#ff9979"/><path id="path615" d="m49.082 26.159c0 0.14854-0.11929 0.26876-0.26667 0.26876s-0.26667-0.12022-0.26667-0.26876c0-0.14853 0.11929-0.26876 0.26667-0.26876s0.26667 0.12022 0.26667 0.26876" fill="#ff9979"/><path id="path617" d="m59.038 28.399s3.3778-3.2251 6.7556-0.89586c2.8222 1.9462 4.9778-0.71669 4.9778-0.71669v4.121s-3.7333 1.075-5.5111-1.2542c-1.7778-2.3292-6.2222-1.2542-6.2222-1.2542" fill="#ff9979"/><polygon id="polygon619" points="70.949 26.07 70.771 26.07 70.771 36.462 70.949 36.462" fill="#ff9979"/><path id="path621" d="m71.127 26.159c0 0.14854-0.11929 0.26876-0.26667 0.26876-0.14738 0-0.26667-0.12022-0.26667-0.26876 0-0.14853 0.11929-0.26876 0.26667-0.26876 0.14738 0 0.26667 0.12022 0.26667 0.26876" fill="#ff9979"/><path id="path623" d="m48.105 2.598s3.3778-3.2251 6.7556-0.89586c2.8222 1.9462 4.9778-0.71669 4.9778-0.71669v4.121s-3.7333 1.075-5.5111-1.2542-6.2222-1.2542-6.2222-1.2542" fill="#ff9979"/><polygon id="polygon625" points="60.016 0.26876 59.838 0.26876 59.838 10.661 60.016 10.661" fill="#ff9979"/><path id="path627" d="m60.193 0.35835c0 0.14853-0.11929 0.26876-0.26667 0.26876s-0.26667-0.12022-0.26667-0.26876c0-0.14853 0.11929-0.26876 0.26667-0.26876s0.26667 0.12022 0.26667 0.26876" fill="#ff9979"/><path id="path629" d="m96.016 25.89s3.3778-3.2251 6.7556-0.89586c2.8222 1.9462 4.9778-0.71669 4.9778-0.71669v4.121s-3.7333 1.075-5.5111-1.2542-6.2222-1.2542-6.2222-1.2542" fill="#ff9979"/><polygon id="polygon631" points="107.93 23.561 107.75 23.561 107.75 33.953 107.93 33.953" fill="#ff9979"/><path id="path633" d="m108.1 23.651c0 0.14853-0.11929 0.26876-0.26667 0.26876s-0.26667-0.12022-0.26667-0.26876 0.11929-0.26876 0.26667-0.26876 0.26667 0.12022 0.26667 0.26876" fill="#ff9979"/></g></g><g id="Group-3" transform="translate(213 250.48)"><path id="path637" d="m0 35c4.8553-1.4776 17.487-8.202 37.894-20.173 34.396-20.177 84.577-19.659 118.15 0.93386 18.073 10.938 23.869 16.102 33.673 19.239h-189.72z" fill="#fff"/><path id="path639" d="m0 35c4.8553-1.4776 17.487-8.202 37.894-20.173 34.396-20.177 84.577-19.659 118.15 0.93386 18.073 10.938 23.869 16.102 33.673 19.239h-189.72z" fill="url(#linearGradient-15)"/></g><path id="path643" d="m320.33 250.98c-28.473 9.7423 11.181 34.024 11.181 34.024h-36.218s-21.369-24 3.3997-34.099c13.042-1.0781 20.895-0.11588 21.637 0.0745z" fill="#fff"/><path id="path645" d="m320.33 250.98c-28.473 9.7423 11.181 34.024 11.181 34.024h-36.218s-21.369-24 3.3997-34.099c13.042-1.0781 20.895-0.11588 21.637 0.0745z" fill="url(#linearGradient-16)"/><g id="Group-14" transform="translate(357,246)"><g id="Group-126-Copy-7"><path id="path647" d="m2.638 9.416c-1.0112-0.99736-1.638-2.3835-1.638-3.916 0-3.0375 2.4625-5.5 5.5-5.5s5.5 2.4625 5.5 5.5c0 1.3316-0.47321 2.5526-1.2606 3.5042 1.9596 1.1521 3.2606 3.1829 3.2606 5.4957 0 3.5899-3.1339 6.5001-7 6.5001-3.8661 0-7-2.9103-7-6.5001 0-2.0581 1.0302-3.8929 2.638-5.0839z" fill="#a1f0aa"/><path id="path649" d="m11.452 11.622c-1.3433 1.0261-2.6869 2.0516-4.0303 3.0774v-10.407c0-0.38916-0.62196-0.38967-0.62196 0v4.7376c-0.85996-0.95473-1.7199-1.9092-2.5799-2.8642-0.26404-0.29302-0.70243 0.13577-0.43971 0.42776 1.0064 1.1174 2.0129 2.235 3.0196 3.3523v5.2751c-0.021302 0.05369-0.019461 0.10918 0 0.16108v2.5919c-1.4264-1.5837-2.8529-3.1672-4.2793-4.7507-0.26404-0.29327-0.7027 0.13577-0.43971 0.42776 1.5729 1.7463 3.1458 3.4924 4.719 5.2388v8.8184c0 0.38941 0.62196 0.38967 0.62196 0v-12.246c1.4901-1.1376 2.9802-2.2754 4.47-3.4129 0.31479-0.24035-0.12807-0.66555-0.43971-0.42776" fill="#4c2147"/></g><g id="Group-126-Copy-9" transform="translate(10,4)"><path id="path652" d="m2.638 9.416c-1.0112-0.99736-1.638-2.3835-1.638-3.916 0-3.0375 2.4625-5.5 5.5-5.5s5.5 2.4625 5.5 5.5c0 1.3316-0.47321 2.5526-1.2606 3.5042 1.9596 1.1521 3.2606 3.1829 3.2606 5.4957 0 3.5899-3.1339 6.5001-7 6.5001-3.8661 0-7-2.9103-7-6.5001 0-2.0581 1.0302-3.8929 2.638-5.0839z" fill="#01c97b"/><path id="path654" d="m11.452 11.622c-1.3433 1.0261-2.6869 2.0516-4.0303 3.0774v-10.407c0-0.38916-0.62196-0.38967-0.62196 0v4.7376c-0.85996-0.95473-1.7199-1.9092-2.5799-2.8642-0.26404-0.29302-0.70243 0.13577-0.43971 0.42776 1.0064 1.1174 2.0129 2.235 3.0196 3.3523v5.2751c-0.021302 0.05369-0.019461 0.10918 0 0.16108v2.5919c-1.4264-1.5837-2.8529-3.1672-4.2793-4.7507-0.26404-0.29327-0.7027 0.13577-0.43971 0.42776 1.5729 1.7463 3.1458 3.4924 4.719 5.2388v8.8184c0 0.38941 0.62196 0.38967 0.62196 0v-12.246c1.4901-1.1376 2.9802-2.2754 4.47-3.4129 0.31479-0.24035-0.12807-0.66555-0.43971-0.42776" fill="#4c2147"/></g></g><g id="Group-14-Copy" transform="translate(235,246)"><g id="g662" transform="translate(0,4)"><path id="path658" d="m2.638 9.416c-1.0112-0.99736-1.638-2.3835-1.638-3.916 0-3.0375 2.4625-5.5 5.5-5.5s5.5 2.4625 5.5 5.5c0 1.3316-0.47321 2.5526-1.2606 3.5042 1.9596 1.1521 3.2606 3.1829 3.2606 5.4957 0 3.5899-3.1339 6.5001-7 6.5001-3.8661 0-7-2.9103-7-6.5001 0-2.0581 1.0302-3.8929 2.638-5.0839z" fill="#a1f0aa"/><path id="path660" d="m11.452 11.622c-1.3433 1.0261-2.6869 2.0516-4.0303 3.0774v-10.407c0-0.38916-0.62196-0.38967-0.62196 0v4.7376c-0.85996-0.95473-1.7199-1.9092-2.5799-2.8642-0.26404-0.29302-0.70243 0.13577-0.43971 0.42776 1.0064 1.1174 2.0129 2.235 3.0196 3.3523v5.2751c-0.021302 0.05369-0.019461 0.10918 0 0.16108v2.5919c-1.4264-1.5837-2.8529-3.1672-4.2793-4.7507-0.26404-0.29327-0.7027 0.13577-0.43971 0.42776 1.5729 1.7463 3.1458 3.4924 4.719 5.2388v8.8184c0 0.38941 0.62196 0.38967 0.62196 0v-12.246c1.4901-1.1376 2.9802-2.2754 4.47-3.4129 0.31479-0.24035-0.12807-0.66555-0.43971-0.42776" fill="#4c2147"/></g><g id="g668" transform="translate(10)"><path id="path664" d="m2.638 9.416c-1.0112-0.99736-1.638-2.3835-1.638-3.916 0-3.0375 2.4625-5.5 5.5-5.5s5.5 2.4625 5.5 5.5c0 1.3316-0.47321 2.5526-1.2606 3.5042 1.9596 1.1521 3.2606 3.1829 3.2606 5.4957 0 3.5899-3.1339 6.5001-7 6.5001-3.8661 0-7-2.9103-7-6.5001 0-2.0581 1.0302-3.8929 2.638-5.0839z" fill="#01c97b"/><path id="path666" d="m11.452 11.622c-1.3433 1.0261-2.6869 2.0516-4.0303 3.0774v-10.407c0-0.38916-0.62196-0.38967-0.62196 0v4.7376c-0.85996-0.95473-1.7199-1.9092-2.5799-2.8642-0.26404-0.29302-0.70243 0.13577-0.43971 0.42776 1.0064 1.1174 2.0129 2.235 3.0196 3.3523v5.2751c-0.021302 0.05369-0.019461 0.10918 0 0.16108v2.5919c-1.4264-1.5837-2.8529-3.1672-4.2793-4.7507-0.26404-0.29327-0.7027 0.13577-0.43971 0.42776 1.5729 1.7463 3.1458 3.4924 4.719 5.2388v8.8184c0 0.38941 0.62196 0.38967 0.62196 0v-12.246c1.4901-1.1376 2.9802-2.2754 4.47-3.4129 0.31479-0.24035-0.12807-0.66555-0.43971-0.42776" fill="#4c2147"/></g></g></g></svg>
