<svg id="svg677" width="306px" height="668px" version="1.1" viewBox="0 0 306 668" xmlns="http://www.w3.org/2000/svg"><title id="title2">0901EEF0-8818-491B-AB44-5726A3155234</title><desc id="desc4">Created with sketchtool.</desc><defs id="defs128"><linearGradient id="linearGradient-1" x1="37.923" x2="37.923" y1="-45.336" y2="68.621" gradientTransform="scale(2.3282 .42952)" gradientUnits="userSpaceOnUse"><stop id="stop6" stop-color="#02C46C" offset="0"/><stop id="stop8" stop-color="#01D08E" offset=".52386"/><stop id="stop10" stop-color="#27DFAC" stop-opacity="0" offset="1"/></linearGradient><linearGradient id="linearGradient-2" x1="72.896" x2="72.896" y1="119.75" y2="86.604" gradientTransform="scale(1.1376 .87901)" gradientUnits="userSpaceOnUse"><stop id="stop13" stop-color="#F6F8FB" stop-opacity="0" offset="0"/><stop id="stop15" stop-color="#E1E4EA" offset=".79653"/><stop id="stop17" stop-color="#E1E4EA" offset="1"/></linearGradient><linearGradient id="linearGradient-3" x1="52.623" x2="54.977" y1="55.251" y2="59.671" gradientTransform="scale(1.9441 .51437)" gradientUnits="userSpaceOnUse"><stop id="stop20" stop-color="#02C46C" offset="0"/><stop id="stop22" stop-color="#02C672" offset=".19182"/><stop id="stop24" stop-color="#01D08E" offset=".76803"/><stop id="stop26" stop-color="#27DFAC" stop-opacity=".42182" offset="1"/></linearGradient><linearGradient id="linearGradient-4" x1="62.943" x2="62.943" y1="-15.732" y2="105.07" gradientTransform="scale(1.5672 .63809)" gradientUnits="userSpaceOnUse"><stop id="stop29" stop-color="#02C46C" offset="0"/><stop id="stop31" stop-color="#01D08E" offset=".52386"/><stop id="stop33" stop-color="#27DFAC" stop-opacity=".42182" offset="1"/></linearGradient><linearGradient id="linearGradient-5" x1="39.373" x2="39.373" y1="135.48" y2="188.45" gradientTransform="scale(2.4677 .40524)" gradientUnits="userSpaceOnUse"><stop id="stop36" stop-color="#00C7F9" offset="0"/><stop id="stop38" stop-color="#fff" offset="1"/></linearGradient><linearGradient id="linearGradient-6" x1="38.813" x2="38.813" y1="43.473" y2="95.316" gradientTransform="scale(1.6102 .62103)" gradientUnits="userSpaceOnUse"><stop id="stop41" stop-color="#00AB90" offset="0"/><stop id="stop43" stop-color="#00C1B2" offset=".52386"/><stop id="stop45" stop-color="#00D1CC" stop-opacity="0" offset="1"/></linearGradient><linearGradient id="linearGradient-7" x1="30.651" x2="30.651" y1="-10.081" y2="55.342" gradientTransform="scale(1.5035 .66512)" gradientUnits="userSpaceOnUse"><stop id="stop48" stop-color="#02C46C" offset="0"/><stop id="stop50" stop-color="#01CC82" offset=".54793"/><stop id="stop52" stop-color="#01D08E" stop-opacity=".5896" offset=".81852"/><stop id="stop54" stop-color="#27DFAC" stop-opacity="0" offset="1"/></linearGradient><linearGradient id="linearGradient-8" x1="101.68" x2="101.68" y1="16.965" y2="55.615" gradientTransform="scale(1.5109 .66187)" gradientUnits="userSpaceOnUse"><stop id="stop57" stop-color="#02C46C" offset="0"/><stop id="stop59" stop-color="#01D08E" offset=".41506"/><stop id="stop61" stop-color="#0ED598" stop-opacity=".66235" offset=".73472"/><stop id="stop63" stop-color="#27DFAC" stop-opacity="0" offset="1"/></linearGradient><linearGradient id="linearGradient-9" x1="40.956" x2="7.1222" y1="-2.9396" y2="-2.9396" gradientTransform="scale(.85103 1.175)" gradientUnits="userSpaceOnUse"><stop id="stop66" stop-color="#C2F5FF" offset="0"/><stop id="stop68" stop-color="#EDFAFF" offset=".14049"/><stop id="stop70" stop-color="#8FECFF" offset=".25122"/><stop id="stop72" stop-color="#69D2F1" offset=".39253"/><stop id="stop74" stop-color="#00C7F9" offset=".61162"/><stop id="stop76" stop-color="#8BEAFF" offset=".80089"/><stop id="stop78" stop-color="#D0F5FF" offset="1"/></linearGradient><linearGradient id="linearGradient-10" x1="91.309" x2="91.309" y1="-47.611" y2="72.064" gradientTransform="scale(1.1915 .83929)" gradientUnits="userSpaceOnUse"><stop id="stop81" stop-color="#02C46C" offset="0"/><stop id="stop83" stop-color="#01D08E" offset=".52386"/><stop id="stop85" stop-color="#27DFAC" stop-opacity="0" offset="1"/></linearGradient><linearGradient id="linearGradient-11" x1="74.623" x2="74.623" y1="-3.5545e-9" y2="12.219" gradientTransform="scale(1.4506 .68935)" gradientUnits="userSpaceOnUse"><stop id="stop88" stop-color="#F6F8FB" offset="0"/><stop id="stop90" stop-color="#fff" offset="1"/></linearGradient><linearGradient id="linearGradient-12" x1="45.563" x2="45.563" y1="-15.588" y2="117.5" gradientTransform="scale(1.3752 .72718)" gradientUnits="userSpaceOnUse"><stop id="stop93" stop-color="#02C46C" offset="0"/><stop id="stop95" stop-color="#01D08E" offset=".52386"/><stop id="stop97" stop-color="#27DFAC" stop-opacity="0" offset="1"/></linearGradient><linearGradient id="linearGradient-13" x1="60.334" x2="60.334" y1="2.7546" y2="159.39" gradientTransform="scale(1.8648 .53626)" gradientUnits="userSpaceOnUse"><stop id="stop100" stop-color="#02C46C" offset="0"/><stop id="stop102" stop-color="#01D08E" offset=".52386"/><stop id="stop104" stop-color="#27DFAC" stop-opacity="0" offset="1"/></linearGradient><linearGradient id="linearGradient-14" x1="30.262" x2="30.262" y1="-35.806" y2="54.926" gradientTransform="scale(2.0698 .48314)" gradientUnits="userSpaceOnUse"><stop id="stop107" stop-color="#02C46C" offset="0"/><stop id="stop109" stop-color="#01D08E" offset=".52386"/><stop id="stop111" stop-color="#27DFAC" stop-opacity="0" offset="1"/></linearGradient><linearGradient id="linearGradient-15" x1="50.589" x2="50.589" y1="81.317" y2="193.81" gradientTransform="scale(2.2715 .44024)" gradientUnits="userSpaceOnUse"><stop id="stop114" stop-color="#02C46C" offset="0"/><stop id="stop116" stop-color="#01D08E" offset=".52386"/><stop id="stop118" stop-color="#27DFAC" stop-opacity="0" offset="1"/></linearGradient><linearGradient id="linearGradient-16" x1="119.38" x2="119.38" y1="95.751" y2="67.766" gradientTransform="scale(1.1222 .89108)" gradientUnits="userSpaceOnUse"><stop id="stop121" stop-color="#F6F8FB" stop-opacity="0" offset="0"/><stop id="stop123" stop-color="#E1E4EA" stop-opacity=".80187" offset=".47126"/><stop id="stop125" stop-color="#D6DAE0" offset="1"/></linearGradient></defs><path id="Path-9" d="m87.963 607.39c-18.093-8.5364-27.14-20.208-27.14-35.013 0-6.4103 0.82187-15.152 12.612-32.394 14.528-21.246 60.688-26.386 82.511-2.9153 21.822 23.471 5.031 40.13-6.5369 35.309-11.568-4.8204-11.473-34.595 14.961-41.291s89.902-24.449 87.324-78.765c-2.5783-54.316-37.533-72.093-94.324-77.868-56.791-5.7751-112.03-58.237-103.37-97.738 8.6638-39.501 47.998-52.955 70.733-31.284s-8.2018 58.561-22.486 31.413 21.549-46.026 62.391-69.968c40.843-23.942 36.61-84.451-1.3142-105.66-37.924-21.212-95.591-10.923-95.591-58.823" fill="none" stroke="#ff9979" stroke-dasharray="8, 7" stroke-linecap="round" stroke-width="2"/><path id="Shape" d="m68 1c-9.3806 0-17 7.3585-17 16.384 0 4.9597 2.9719 11.45 7.9622 18.664 1.7917 2.5899 3.7285 5.1035 5.6865 7.4517 0.7044 0.8448 1.3681 1.6156 1.9754 2.3012 0.39325 0.44395 0.70163 0.78339 0.90236 0.99928 0.24812 0.26688 0.69914 0.26673 0.94714-3.8e-5 0.20069-0.21585 0.50907-0.55529 0.90232-0.99924 0.60731-0.68562 1.271-1.4564 1.9754-2.3012 1.958-2.3482 3.8948-4.8618 5.6865-7.4517 4.9904-7.2137 7.9622-13.704 7.9622-18.664 0-9.0251-7.6195-16.384-17-16.384zm4.8e-5 26.449c-5.5104 0-10-4.398-10-9.8164 0-5.4183 4.4897-9.8163 10-9.8163 5.5103 0 10 4.398 10 9.8164 0 5.4183-4.4896 9.8163-10 9.8163z" fill="#ff9979" fill-rule="evenodd" stroke="#f85f4a" stroke-width="2"/><path id="path132" d="m88.311 562c-8.9924 0-16.311 7.3497-16.311 16.384 0 4.9686 2.8594 11.462 7.661 18.679 1.7232 2.5899 3.5858 5.1034 5.4688 7.4516 0.6774 0.84474 1.3156 1.6155 1.8997 2.301 0.37814 0.44388 0.67466 0.78324 0.86764 0.99905 0.22151 0.24775 0.6073 0.24761 0.82871-4e-5 0.19295-0.21577 0.48946-0.55513 0.86761-0.99901 0.58402-0.68554 1.2223-1.4563 1.8997-2.301 1.883-2.3481 3.7456-4.8616 5.4688-7.4516 4.8016-7.2168 7.661-13.71 7.661-18.679 0-9.034-7.3192-16.384-16.311-16.384zm4.7e-5 25.967c-5.3251 0-9.6558-4.3307-9.6558-9.6558 0-5.3251 4.3307-9.6557 9.6558-9.6557 5.3251 0 9.6557 4.3307 9.6557 9.6558 0 5.3251-4.3306 9.6557-9.6557 9.6557z" fill="#ff9979" fill-rule="evenodd" stroke="#f85f4a" stroke-width="2"/><g id="Departure:-City-A" fill="#444356" fill-rule="evenodd" aria-label="Departure:City A"><path id="path6737" d="m107.06 6.4h-2.646c-0.774 0-1.332 0.558-1.332 1.332v9.936c0 0.774 0.558 1.332 1.332 1.332h2.646c3.564 0 6.444-2.214 6.444-6.354 0-4.032-2.88-6.246-6.444-6.246zm0 10.548h-1.548v-8.496h1.548c2.538 0 4.014 1.296 4.014 4.194 0 3.006-1.476 4.302-4.014 4.302z" style=""/><path id="path6739" d="m119.58 9.532c-2.052 0-4.734 1.566-4.734 4.806 0 3.276 2.538 4.752 4.932 4.752 1.134 0 2.034-0.306 2.7-0.774 0.45-0.378 0.576-0.702 0.576-0.99 0-0.45-0.306-0.81-0.81-0.81-0.306 0-0.558 0.144-0.882 0.288-0.54 0.234-0.846 0.378-1.494 0.378-1.314 0-2.358-0.702-2.574-2.016l5.346 0.036c0.954 0 1.476-0.324 1.476-1.26 0-2.79-2.484-4.41-4.536-4.41zm0 2.052c1.026 0 2.034 0.576 2.214 1.962h-4.5c0.162-1.386 1.26-1.962 2.286-1.962z" style=""/><path id="path6741" d="m130.99 9.532c-1.278 0-2.304 0.684-2.664 1.53v-0.306c0-0.63-0.54-1.17-1.188-1.17-0.63 0-1.206 0.54-1.206 1.17v10.62c0 0.648 0.54 1.17 1.188 1.17 0.63 0 1.188-0.522 1.188-1.17v-3.24c0.018-0.054 0.018-0.126 0.018-0.198v-0.342c0.144 0.558 1.098 1.53 2.664 1.53 1.98 0 4.356-1.53 4.356-4.806 0-3.204-2.394-4.788-4.356-4.788zm-0.432 7.56c-1.008 0-2.34-0.738-2.34-2.772s1.332-2.772 2.34-2.772c1.188 0 2.43 0.936 2.43 2.772 0 1.854-1.242 2.772-2.43 2.772z" style=""/><path id="path6743" d="m144.85 9.586c-0.648 0-1.188 0.54-1.188 1.17v0.306c-0.36-0.846-1.386-1.53-2.664-1.53-1.962 0-4.356 1.584-4.356 4.788 0 3.276 2.376 4.806 4.356 4.806 1.566 0 2.52-0.972 2.664-1.53v0.342c0 0.648 0.54 1.17 1.188 1.17 0.63 0 1.206-0.522 1.206-1.17v-7.182c0-0.63-0.576-1.17-1.206-1.17zm-3.42 7.506c-1.188 0-2.43-0.918-2.43-2.772 0-1.836 1.242-2.772 2.43-2.772 1.008 0 2.34 0.738 2.34 2.772s-1.332 2.772-2.34 2.772z" style=""/><path id="path6745" d="m153.39 9.55c-1.62 0-2.736 1.476-2.808 2.124v-0.9c0-0.648-0.54-1.188-1.17-1.188-0.648 0-1.188 0.54-1.188 1.188v7.146c0 0.63 0.54 1.17 1.188 1.17 0.63 0 1.17-0.54 1.17-1.17v-4.338c0.09-0.738 0.99-1.836 2.412-1.836 1.008 0 1.512-0.45 1.512-1.116 0-0.576-0.378-1.08-1.116-1.08z" style=""/><path id="path6747" d="m160.68 16.984c-0.198 0-0.486 0.072-0.684 0.072-0.396 0-0.576-0.27-0.576-0.792v-4.77h1.188c0.594 0 0.954-0.378 0.954-0.918 0-0.558-0.36-0.936-0.954-0.936h-1.188v-1.224c0-0.648-0.522-1.188-1.17-1.188s-1.188 0.54-1.188 1.188v1.224h-0.522c-0.576 0-0.954 0.378-0.954 0.936 0 0.54 0.378 0.918 0.954 0.918h0.522v4.698c0 2.502 1.242 2.898 2.466 2.898s2.034-0.432 2.034-1.26c0-0.558-0.342-0.882-0.882-0.846z" style=""/><path id="path6749" d="m166.62 19.126c1.944 0 3.006-1.476 3.078-2.124v0.9c0 0.648 0.54 1.188 1.17 1.188 0.648 0 1.188-0.54 1.188-1.188v-7.146c0-0.648-0.54-1.17-1.188-1.17-0.63 0-1.17 0.522-1.17 1.17v4.338c-0.072 0.504-0.612 2.016-2.232 2.016-1.062 0-1.908-0.666-1.908-2.286v-4.068c0-0.648-0.54-1.17-1.17-1.17-0.648 0-1.188 0.522-1.188 1.17v4.068c0 3.114 1.602 4.302 3.42 4.302z" style=""/><path id="path6751" d="m179.37 9.55c-1.62 0-2.736 1.476-2.808 2.124v-0.9c0-0.648-0.54-1.188-1.17-1.188-0.648 0-1.188 0.54-1.188 1.188v7.146c0 0.63 0.54 1.17 1.188 1.17 0.63 0 1.17-0.54 1.17-1.17v-4.338c0.09-0.738 0.99-1.836 2.412-1.836 1.008 0 1.512-0.45 1.512-1.116 0-0.576-0.378-1.08-1.116-1.08z" style=""/><path id="path6753" d="m185.96 9.532c-2.052 0-4.734 1.566-4.734 4.806 0 3.276 2.538 4.752 4.932 4.752 1.134 0 2.034-0.306 2.7-0.774 0.45-0.378 0.576-0.702 0.576-0.99 0-0.45-0.306-0.81-0.81-0.81-0.306 0-0.558 0.144-0.882 0.288-0.54 0.234-0.846 0.378-1.494 0.378-1.314 0-2.358-0.702-2.574-2.016l5.346 0.036c0.954 0 1.476-0.324 1.476-1.26 0-2.79-2.484-4.41-4.536-4.41zm0 2.052c1.026 0 2.034 0.576 2.214 1.962h-4.5c0.162-1.386 1.26-1.962 2.286-1.962z" style=""/><path id="path6755" d="m193.49 12.232c0.738 0 1.35-0.612 1.35-1.368 0-0.738-0.612-1.35-1.35-1.35-0.756 0-1.368 0.612-1.368 1.35 0 0.756 0.612 1.368 1.368 1.368zm0 6.84c0.738 0 1.35-0.612 1.35-1.368 0-0.738-0.612-1.35-1.35-1.35-0.756 0-1.368 0.612-1.368 1.35 0 0.756 0.612 1.368 1.368 1.368z" style=""/><path id="path6757" d="m112.19 39.832c-0.468 0-0.774 0.234-0.972 0.378-0.27 0.18-0.954 0.612-1.926 0.612-2.07 0-3.852-1.8-3.852-4.122s1.8-4.122 3.834-4.122c1.008 0 1.674 0.432 1.944 0.612 0.198 0.144 0.522 0.378 0.972 0.378 0.576 0 1.134-0.396 1.134-1.098 0-0.594-0.414-0.99-1.08-1.422-0.756-0.45-1.746-0.774-3.006-0.774-3.132 0-6.336 2.628-6.336 6.426s3.186 6.426 6.372 6.426c1.224 0 2.214-0.306 2.97-0.774 0.666-0.432 1.08-0.828 1.08-1.422 0-0.702-0.558-1.098-1.134-1.098z" style=""/><path id="path6759" d="m116.24 32.308c0.62999 0 1.188-0.54 1.188-1.17s-0.55801-1.17-1.188-1.17c-0.648 0-1.206 0.54-1.206 1.17s0.55801 1.17 1.206 1.17zm0 1.278c-0.648 0-1.188 0.54-1.188 1.188v7.128c0 0.666 0.54 1.206 1.188 1.206 0.62999 0 1.17-0.54 1.17-1.206v-7.128c0-0.648-0.54001-1.188-1.17-1.188z" style=""/><path id="path6761" d="m123.98 40.984c-0.198 0-0.486 0.072-0.684 0.072-0.396 0-0.576-0.27-0.576-0.792v-4.77h1.188c0.594 0 0.954-0.378 0.954-0.918 0-0.558-0.36-0.936-0.954-0.936h-1.188v-1.224c0-0.648-0.522-1.188-1.17-1.188s-1.188 0.54-1.188 1.188v1.224h-0.522c-0.576 0-0.954 0.378-0.954 0.936 0 0.54 0.378 0.918 0.954 0.918h0.522v4.698c0 2.502 1.242 2.898 2.466 2.898s2.034-0.432 2.034-1.26c0-0.558-0.342-0.882-0.882-0.846z" style=""/><path id="path6763" d="m134.16 33.586c-0.45 0-0.864 0.252-1.116 0.828l-2.466 5.58-2.412-5.58c-0.252-0.576-0.684-0.828-1.134-0.828-0.612 0-1.08 0.486-1.08 1.062 0 0.216 0.072 0.396 0.126 0.54l3.348 7.38-1.026 2.34c-0.054 0.144-0.126 0.324-0.126 0.54 0 0.576 0.432 1.062 1.044 1.062 0.45 0 0.882-0.252 1.134-0.828l4.662-10.494c0.072-0.144 0.144-0.324 0.144-0.54 0-0.576-0.468-1.062-1.098-1.062z" style=""/><path id="path6765" d="m153.03 41.29-4.464-10.062c-0.27-0.612-0.648-0.9-1.188-0.9s-0.918 0.288-1.17 0.9l-4.464 10.062c-0.09 0.198-0.162 0.432-0.162 0.684 0 0.594 0.522 1.098 1.188 1.098 0.522 0 0.954-0.306 1.152-0.774l0.9-2.124h5.112l0.9 2.124c0.198 0.468 0.63 0.774 1.17 0.774 0.666 0 1.17-0.504 1.17-1.098 0-0.252-0.054-0.486-0.144-0.684zm-7.38-3.042 1.728-4.068 1.728 4.068z" style=""/></g><g id="Destination:-City-B" fill="#444356" fill-rule="evenodd" aria-label="Destination:City B"><path id="path6801" d="m44.704 626.4h-2.646c-0.774 0-1.332 0.558-1.332 1.332v9.936c0 0.774 0.558 1.332 1.332 1.332h2.646c3.564 0 6.444-2.214 6.444-6.354 0-4.032-2.88-6.246-6.444-6.246zm0 10.548h-1.548v-8.496h1.548c2.538 0 4.014 1.296 4.014 4.194 0 3.006-1.476 4.302-4.014 4.302z" style=""/><path id="path6803" d="m57.229 629.53c-2.052 0-4.734 1.566-4.734 4.806 0 3.276 2.538 4.752 4.932 4.752 1.134 0 2.034-0.306 2.7-0.774 0.45-0.378 0.576-0.702 0.576-0.99 0-0.45-0.306-0.81-0.81-0.81-0.306 0-0.558 0.144-0.882 0.288-0.54 0.234-0.846 0.378-1.494 0.378-1.314 0-2.358-0.702-2.574-2.016l5.346 0.036c0.954 0 1.476-0.324 1.476-1.26 0-2.79-2.484-4.41-4.536-4.41zm0 2.052c1.026 0 2.034 0.576 2.214 1.962h-4.5c0.162-1.386 1.26-1.962 2.286-1.962z" style=""/><path id="path6805" d="m66.606 629.53c-1.71 0-3.366 0.936-3.366 2.736 0 1.278 0.756 2.25 2.574 2.754l1.026 0.306c0.864 0.252 1.062 0.648 1.062 0.954 0 0.504-0.486 0.882-1.368 0.882-0.612 0-1.188-0.18-1.71-0.828-0.216-0.27-0.486-0.576-0.972-0.576-0.648 0-0.9 0.504-0.9 0.9 0 0.558 0.396 1.008 0.486 1.134 0.504 0.612 1.476 1.296 3.096 1.296 1.872 0 3.708-0.954 3.708-2.934 0-1.602-1.206-2.286-2.646-2.682l-1.098-0.324c-0.828-0.234-0.936-0.612-0.936-0.9 0-0.504 0.414-0.846 1.116-0.846 0.522 0 0.936 0.198 1.296 0.612 0.306 0.378 0.648 0.504 0.99 0.504 0.522 0 0.918-0.306 0.918-0.882 0-0.378-0.18-0.63-0.288-0.792-0.594-0.828-1.764-1.314-2.988-1.314z" style=""/><path id="path6807" d="m76.143 636.98c-0.198 0-0.486 0.072-0.684 0.072-0.396 0-0.576-0.27-0.576-0.792v-4.77h1.188c0.594 0 0.954-0.378 0.954-0.918 0-0.558-0.36-0.936-0.954-0.936h-1.188v-1.224c0-0.648-0.522-1.188-1.17-1.188s-1.188 0.54-1.188 1.188v1.224h-0.522c-0.576 0-0.954 0.378-0.954 0.936 0 0.54 0.378 0.918 0.954 0.918h0.522v4.698c0 2.502 1.242 2.898 2.466 2.898s2.034-0.432 2.034-1.26c0-0.558-0.342-0.882-0.882-0.846z" style=""/><path id="path6809" d="m79.866 628.31c0.63 0 1.188-0.54 1.188-1.17s-0.558-1.17-1.188-1.17c-0.648 0-1.206 0.54-1.206 1.17s0.558 1.17 1.206 1.17zm0 1.278c-0.648 0-1.188 0.54-1.188 1.188v7.128c0 0.666 0.54 1.206 1.188 1.206 0.63 0 1.17-0.54 1.17-1.206v-7.128c0-0.648-0.54-1.188-1.17-1.188z" style=""/><path id="path6811" d="m88.666 629.55c-1.944 0-3.006 1.476-3.078 2.124v-0.9c0-0.648-0.54-1.188-1.17-1.188-0.648 0-1.188 0.54-1.188 1.188v7.146c0 0.648 0.54 1.17 1.188 1.17 0.63 0 1.17-0.522 1.17-1.17v-4.338c0.072-0.504 0.612-2.016 2.232-2.016 1.062 0 1.908 0.666 1.908 2.286v4.068c0 0.648 0.54 1.17 1.17 1.17 0.648 0 1.188-0.522 1.188-1.17v-4.068c0-3.114-1.602-4.302-3.42-4.302z" style=""/><path id="path6813" d="m102.08 629.59c-0.648 0-1.188 0.54-1.188 1.17v0.306c-0.36-0.846-1.386-1.53-2.664-1.53-1.962 0-4.356 1.584-4.356 4.788 0 3.276 2.376 4.806 4.356 4.806 1.566 0 2.52-0.972 2.664-1.53v0.342c0 0.648 0.54 1.17 1.188 1.17 0.63 0 1.206-0.522 1.206-1.17v-7.182c0-0.63-0.576-1.17-1.206-1.17zm-3.42 7.506c-1.188 0-2.43-0.918-2.43-2.772 0-1.836 1.242-2.772 2.43-2.772 1.008 0 2.34 0.738 2.34 2.772s-1.332 2.772-2.34 2.772z" style=""/><path id="path6815" d="m109.82 636.98c-0.198 0-0.486 0.072-0.684 0.072-0.396 0-0.576-0.27-0.576-0.792v-4.77h1.188c0.594 0 0.954-0.378 0.954-0.918 0-0.558-0.36-0.936-0.954-0.936h-1.188v-1.224c0-0.648-0.522-1.188-1.17-1.188s-1.188 0.54-1.188 1.188v1.224h-0.522c-0.576 0-0.954 0.378-0.954 0.936 0 0.54 0.378 0.918 0.954 0.918h0.522v4.698c0 2.502 1.242 2.898 2.466 2.898s2.034-0.432 2.034-1.26c0-0.558-0.342-0.882-0.882-0.846z" style=""/><path id="path6817" d="m113.55 628.31c0.63 0 1.188-0.54 1.188-1.17s-0.558-1.17-1.188-1.17c-0.648 0-1.206 0.54-1.206 1.17s0.558 1.17 1.206 1.17zm0 1.278c-0.648 0-1.188 0.54-1.188 1.188v7.128c0 0.666 0.54 1.206 1.188 1.206 0.63 0 1.17-0.54 1.17-1.206v-7.128c0-0.648-0.54-1.188-1.17-1.188z" style=""/><path id="path6819" d="m121.36 629.53c-2.07 0-4.806 1.602-4.806 4.806 0 3.222 2.736 4.788 4.806 4.788 2.052 0 4.806-1.566 4.806-4.788 0-3.204-2.754-4.806-4.806-4.806zm0 2.052c1.26 0 2.466 1.008 2.466 2.754 0 1.728-1.206 2.736-2.466 2.736-1.278 0-2.466-1.008-2.466-2.736 0-1.746 1.188-2.754 2.466-2.754z" style=""/><path id="path6821" d="m133.38 629.55c-1.944 0-3.006 1.476-3.078 2.124v-0.9c0-0.648-0.54-1.188-1.17-1.188-0.648 0-1.188 0.54-1.188 1.188v7.146c0 0.648 0.54 1.17 1.188 1.17 0.63 0 1.17-0.522 1.17-1.17v-4.338c0.072-0.504 0.612-2.016 2.232-2.016 1.062 0 1.908 0.666 1.908 2.286v4.068c0 0.648 0.54 1.17 1.17 1.17 0.648 0 1.188-0.522 1.188-1.17v-4.068c0-3.114-1.602-4.302-3.42-4.302z" style=""/><path id="path6823" d="m140.14 632.23c0.738 0 1.35-0.612 1.35-1.368 0-0.738-0.612-1.35-1.35-1.35-0.756 0-1.368 0.612-1.368 1.35 0 0.756 0.612 1.368 1.368 1.368zm0 6.84c0.738 0 1.35-0.612 1.35-1.368 0-0.738-0.612-1.35-1.35-1.35-0.756 0-1.368 0.612-1.368 1.35 0 0.756 0.612 1.368 1.368 1.368z" style=""/><path id="path6825" d="m76.195 659.83c-0.468 0-0.774 0.234-0.972 0.378-0.27 0.18-0.954 0.612-1.926 0.612-2.07 0-3.852-1.8-3.852-4.122s1.8-4.122 3.834-4.122c1.008 0 1.674 0.432 1.944 0.612 0.198 0.144 0.522 0.378 0.972 0.378 0.576 0 1.134-0.396 1.134-1.098 0-0.594-0.414-0.99-1.08-1.422-0.756-0.45-1.746-0.774-3.006-0.774-3.132 0-6.336 2.628-6.336 6.426s3.186 6.426 6.372 6.426c1.224 0 2.214-0.306 2.97-0.774 0.666-0.432 1.08-0.828 1.08-1.422 0-0.702-0.558-1.098-1.134-1.098z" style=""/><path id="path6827" d="m80.246 652.31c0.63 0 1.188-0.54 1.188-1.17s-0.558-1.17-1.188-1.17c-0.648 0-1.206 0.54-1.206 1.17s0.558 1.17 1.206 1.17zm0 1.278c-0.648 0-1.188 0.54-1.188 1.188v7.128c0 0.666 0.54 1.206 1.188 1.206 0.63 0 1.17-0.54 1.17-1.206v-7.128c0-0.648-0.54-1.188-1.17-1.188z" style=""/><path id="path6829" d="m87.984 660.98c-0.198 0-0.486 0.072-0.684 0.072-0.396 0-0.576-0.27-0.576-0.792v-4.77h1.188c0.594 0 0.954-0.378 0.954-0.918 0-0.558-0.36-0.936-0.954-0.936h-1.188v-1.224c0-0.648-0.522-1.188-1.17-1.188s-1.188 0.54-1.188 1.188v1.224h-0.522c-0.576 0-0.954 0.378-0.954 0.936 0 0.54 0.378 0.918 0.954 0.918h0.522v4.698c0 2.502 1.242 2.898 2.466 2.898s2.034-0.432 2.034-1.26c0-0.558-0.342-0.882-0.882-0.846z" style=""/><path id="path6831" d="m98.169 653.59c-0.45 0-0.864 0.252-1.116 0.828l-2.466 5.58-2.412-5.58c-0.252-0.576-0.684-0.828-1.134-0.828-0.612 0-1.08 0.486-1.08 1.062 0 0.216 0.072 0.396 0.126 0.54l3.348 7.38-1.026 2.34c-0.054 0.144-0.126 0.324-0.126 0.54 0 0.576 0.432 1.062 1.044 1.062 0.45 0 0.882-0.252 1.134-0.828l4.662-10.494c0.072-0.144 0.144-0.324 0.144-0.54 0-0.576-0.468-1.062-1.098-1.062z" style=""/><path id="path6833" d="m112.75 656c1.242-0.468 1.674-1.404 1.674-2.43 0-2.106-1.728-3.168-3.96-3.168h-3.096c-0.774 0-1.332 0.558-1.332 1.332v9.936c0 0.774 0.558 1.332 1.332 1.332h3.276c3.06 0 4.644-1.494 4.644-3.672 0-1.422-0.63-2.61-2.538-3.33zm-4.284-3.546h1.998c0.99 0 1.602 0.504 1.602 1.404 0 0.882-0.612 1.476-1.602 1.476h-1.998zm2.178 8.496h-2.178v-3.762h2.178c1.692 0 2.286 0.936 2.286 1.926 0 0.972-0.612 1.836-2.286 1.836z" style=""/></g><circle id="Oval" transform="rotate(90)" cx="161" cy="-193" r="8" fill="#fff" fill-rule="evenodd" stroke="#ff9979" stroke-width="2"/><circle id="Oval-Copy-6" transform="rotate(90)" cx="520" cy="-203" r="8" fill="#fff" fill-rule="evenodd" stroke="#ff9979" stroke-width="2"/><circle id="Oval-Copy-7" transform="rotate(90)" cx="354" cy="-101" r="8" fill="#fff" fill-rule="evenodd" stroke="#ff9979" stroke-width="2"/><g id="Stop-1" fill="#444356" fill-rule="evenodd" aria-label="Stop 1"><path id="path6768" d="m214.17 154.27c-2.25 0-4.05 1.332-4.05 3.474 0 1.836 1.368 2.736 3.222 3.456l0.756 0.288c1.386 0.54 2.016 0.972 2.016 1.908 0 1.224-1.206 1.566-2.088 1.566-0.684 0-1.53-0.252-2.16-1.044-0.252-0.342-0.612-0.684-1.152-0.684-0.666 0-0.99 0.522-0.99 1.026 0 0.54 0.324 0.954 0.504 1.17 0.882 1.116 2.376 1.692 3.798 1.692 2.088 0 4.554-1.242 4.554-3.726 0-1.728-1.134-2.754-3.942-3.816l-0.702-0.27c-1.08-0.414-1.404-0.954-1.404-1.548 0-0.792 0.63-1.35 1.728-1.35 0.792 0 1.224 0.288 1.728 0.81 0.234 0.252 0.594 0.486 0.972 0.486 0.576 0 1.008-0.432 1.008-0.972 0-0.36-0.18-0.684-0.522-1.08-0.72-0.792-1.692-1.386-3.276-1.386z" style=""/><path id="path6770" d="m224.58 164.98c-0.198 0-0.486 0.072-0.684 0.072-0.396 0-0.576-0.27-0.576-0.792v-4.77h1.188c0.594 0 0.954-0.378 0.954-0.918 0-0.558-0.36-0.936-0.954-0.936h-1.188v-1.224c0-0.648-0.522-1.188-1.17-1.188s-1.188 0.54-1.188 1.188v1.224h-0.522c-0.576 0-0.954 0.378-0.954 0.936 0 0.54 0.378 0.918 0.954 0.918h0.522v4.698c0 2.502 1.242 2.898 2.466 2.898s2.034-0.432 2.034-1.26c0-0.558-0.342-0.882-0.882-0.846z" style=""/><path id="path6772" d="m231.37 157.53c-2.07 0-4.806 1.602-4.806 4.806 0 3.222 2.736 4.788 4.806 4.788 2.052 0 4.806-1.566 4.806-4.788 0-3.204-2.754-4.806-4.806-4.806zm0 2.052c1.26 0 2.466 1.008 2.466 2.754 0 1.728-1.206 2.736-2.466 2.736-1.278 0-2.466-1.008-2.466-2.736 0-1.746 1.188-2.754 2.466-2.754z" style=""/><path id="path6774" d="m242.6 157.53c-1.278 0-2.304 0.684-2.664 1.53v-0.306c0-0.63-0.54-1.17-1.188-1.17-0.63 0-1.206 0.54-1.206 1.17v10.62c0 0.648 0.54 1.17 1.188 1.17 0.63 0 1.188-0.522 1.188-1.17v-3.24c0.018-0.054 0.018-0.126 0.018-0.198v-0.342c0.144 0.558 1.098 1.53 2.664 1.53 1.98 0 4.356-1.53 4.356-4.806 0-3.204-2.394-4.788-4.356-4.788zm-0.432 7.56c-1.008 0-2.34-0.738-2.34-2.772s1.332-2.772 2.34-2.772c1.188 0 2.43 0.936 2.43 2.772 0 1.854-1.242 2.772-2.43 2.772z" style=""/><path id="path6776" d="m256.85 154.4h-2.178c-0.558 0-1.026 0.45-1.026 1.008 0 0.576 0.468 1.008 1.026 1.008h1.17v9.522c0 0.63 0.54 1.17 1.17 1.17 0.648 0 1.188-0.54 1.188-1.17v-10.206c0-0.774-0.576-1.332-1.35-1.332z" style=""/></g><g id="Stop-2" fill="#444356" fill-rule="evenodd" aria-label="Stop 2"><path id="path6779" d="m36.166 355.27c-2.25 0-4.05 1.332-4.05 3.474 0 1.836 1.368 2.736 3.222 3.456l0.756 0.288c1.386 0.54 2.016 0.972 2.016 1.908 0 1.224-1.206 1.566-2.088 1.566-0.684 0-1.53-0.252-2.16-1.044-0.252-0.342-0.612-0.684-1.152-0.684-0.666 0-0.99 0.522-0.99 1.026 0 0.54 0.324 0.954 0.504 1.17 0.882 1.116 2.376 1.692 3.798 1.692 2.088 0 4.554-1.242 4.554-3.726 0-1.728-1.134-2.754-3.942-3.816l-0.702-0.27c-1.08-0.414-1.404-0.954-1.404-1.548 0-0.792 0.63-1.35 1.728-1.35 0.792 0 1.224 0.288 1.728 0.81 0.234 0.252 0.594 0.486 0.972 0.486 0.576 0 1.008-0.432 1.008-0.972 0-0.36-0.18-0.684-0.522-1.08-0.72-0.792-1.692-1.386-3.276-1.386z" style=""/><path id="path6781" d="m46.579 365.98c-0.198 0-0.486 0.072-0.684 0.072-0.396 0-0.576-0.27-0.576-0.792v-4.77h1.188c0.594 0 0.954-0.378 0.954-0.918 0-0.558-0.36-0.936-0.954-0.936h-1.188v-1.224c0-0.648-0.522-1.188-1.17-1.188s-1.188 0.54-1.188 1.188v1.224h-0.522c-0.576 0-0.954 0.378-0.954 0.936 0 0.54 0.378 0.918 0.954 0.918h0.522v4.698c0 2.502 1.242 2.898 2.466 2.898s2.034-0.432 2.034-1.26c0-0.558-0.342-0.882-0.882-0.846z" style=""/><path id="path6783" d="m53.366 358.53c-2.07 0-4.806 1.602-4.806 4.806 0 3.222 2.736 4.788 4.806 4.788 2.052 0 4.806-1.566 4.806-4.788 0-3.204-2.754-4.806-4.806-4.806zm0 2.052c1.26 0 2.466 1.008 2.466 2.754 0 1.728-1.206 2.736-2.466 2.736-1.278 0-2.466-1.008-2.466-2.736 0-1.746 1.188-2.754 2.466-2.754z" style=""/><path id="path6785" d="m64.595 358.53c-1.278 0-2.304 0.684-2.664 1.53v-0.306c0-0.63-0.54-1.17-1.188-1.17-0.63 0-1.206 0.54-1.206 1.17v10.62c0 0.648 0.54 1.17 1.188 1.17 0.63 0 1.188-0.522 1.188-1.17v-3.24c0.018-0.054 0.018-0.126 0.018-0.198v-0.342c0.144 0.558 1.098 1.53 2.664 1.53 1.98 0 4.356-1.53 4.356-4.806 0-3.204-2.394-4.788-4.356-4.788zm-0.432 7.56c-1.008 0-2.34-0.738-2.34-2.772s1.332-2.772 2.34-2.772c1.188 0 2.43 0.936 2.43 2.772 0 1.854-1.242 2.772-2.43 2.772z" style=""/><path id="path6787" d="m79.7 355.27c-2.106 0-3.456 1.242-3.924 2.682-0.252 0.9 0.126 1.674 0.99 1.674 0.612 0 1.08-0.432 1.206-0.9 0.324-1.098 1.206-1.386 1.836-1.386 0.702 0 1.728 0.396 1.728 1.584 0 1.08-0.936 1.8-3.294 4.086l-2.106 2.034c-1.206 1.188-0.36 2.952 1.314 2.952h5.472c0.558 0 1.026-0.45 1.026-1.044s-0.468-1.044-1.026-1.044h-4.608l2.286-2.214c2.25-2.196 3.312-3.06 3.312-4.644 0-1.98-1.692-3.78-4.212-3.78z" style=""/></g><g id="Stop-3" fill="#444356" fill-rule="evenodd" aria-label="Stop 3"><path id="path6790" d="m224.17 521.27c-2.25 0-4.05 1.332-4.05 3.474 0 1.836 1.368 2.736 3.222 3.456l0.756 0.288c1.386 0.54 2.016 0.972 2.016 1.908 0 1.224-1.206 1.566-2.088 1.566-0.684 0-1.53-0.252-2.16-1.044-0.252-0.342-0.612-0.684-1.152-0.684-0.666 0-0.99 0.522-0.99 1.026 0 0.54 0.324 0.954 0.504 1.17 0.882 1.116 2.376 1.692 3.798 1.692 2.088 0 4.554-1.242 4.554-3.726 0-1.728-1.134-2.754-3.942-3.816l-0.702-0.27c-1.08-0.414-1.404-0.954-1.404-1.548 0-0.792 0.63-1.35 1.728-1.35 0.792 0 1.224 0.288 1.728 0.81 0.234 0.252 0.594 0.486 0.972 0.486 0.576 0 1.008-0.432 1.008-0.972 0-0.36-0.18-0.684-0.522-1.08-0.72-0.792-1.692-1.386-3.276-1.386z" style=""/><path id="path6792" d="m234.58 531.98c-0.198 0-0.486 0.072-0.684 0.072-0.396 0-0.576-0.27-0.576-0.792v-4.77h1.188c0.594 0 0.954-0.378 0.954-0.918 0-0.558-0.36-0.936-0.954-0.936h-1.188v-1.224c0-0.648-0.522-1.188-1.17-1.188s-1.188 0.54-1.188 1.188v1.224h-0.522c-0.576 0-0.954 0.378-0.954 0.936 0 0.54 0.378 0.918 0.954 0.918h0.522v4.698c0 2.502 1.242 2.898 2.466 2.898s2.034-0.432 2.034-1.26c0-0.558-0.342-0.882-0.882-0.846z" style=""/><path id="path6794" d="m241.37 524.53c-2.07 0-4.806 1.602-4.806 4.806 0 3.222 2.736 4.788 4.806 4.788 2.052 0 4.806-1.566 4.806-4.788 0-3.204-2.754-4.806-4.806-4.806zm0 2.052c1.26 0 2.466 1.008 2.466 2.754 0 1.728-1.206 2.736-2.466 2.736-1.278 0-2.466-1.008-2.466-2.736 0-1.746 1.188-2.754 2.466-2.754z" style=""/><path id="path6796" d="m252.6 524.53c-1.278 0-2.304 0.684-2.664 1.53v-0.306c0-0.63-0.54-1.17-1.188-1.17-0.63 0-1.206 0.54-1.206 1.17v10.62c0 0.648 0.54 1.17 1.188 1.17 0.63 0 1.188-0.522 1.188-1.17v-3.24c0.018-0.054 0.018-0.126 0.018-0.198v-0.342c0.144 0.558 1.098 1.53 2.664 1.53 1.98 0 4.356-1.53 4.356-4.806 0-3.204-2.394-4.788-4.356-4.788zm-0.432 7.56c-1.008 0-2.34-0.738-2.34-2.772s1.332-2.772 2.34-2.772c1.188 0 2.43 0.936 2.43 2.772 0 1.854-1.242 2.772-2.43 2.772z" style=""/><path id="path6798" d="m270.09 521.4h-5.022c-0.558 0-1.026 0.45-1.026 1.008 0 0.576 0.468 1.008 1.026 1.008h4.356l-1.98 2.61c-0.288 0.378-0.558 0.666-0.558 1.044 0 0.414 0.324 0.846 0.828 0.954 0.774 0.198 2.412 0.648 2.412 2.16 0 1.62-1.512 1.962-2.178 1.962-0.63 0-1.746-0.252-2.214-1.422-0.126-0.324-0.486-0.666-1.044-0.666-0.828 0-1.224 0.81-0.972 1.512 0.72 1.818 2.43 2.61 4.23 2.61 2.52 0 4.536-1.62 4.536-3.996 0-2.088-1.692-3.384-3.114-3.672l2.124-2.646c0.864-1.116 0-2.466-1.404-2.466z" style=""/></g><g id="Group-12" transform="translate(0,92)" fill="none" fill-rule="evenodd"><g id="Group-49" transform="translate(30.821)"><polygon id="Fill-2" points="43.874 33.392 56.853 33.392 56.853 19.486 43.874 19.486" fill="#f85f4a"/><g id="Group-48" transform="translate(0 .017038)"><path id="Fill-3" d="m51.958 28.592h-2.8202v-4.0106c0-0.78489 0.63132-1.4212 1.4101-1.4212s1.4101 0.63627 1.4101 1.4212z" fill="#fff"/><polygon id="Fill-5" points="40.346 50.395 60.557 50.395 60.557 36.664 40.346 36.664" fill="#f85f4a"/><polygon id="Fill-7" points="36.978 83.438 63.925 83.438 63.925 56.279 36.978 56.279" fill="#f85f4a"/><path id="Fill-8" d="m52.023 43.228h-3.1439v-2.0369c0-0.87497 0.70378-1.5843 1.5719-1.5843 0.86816 0 1.5719 0.7093 1.5719 1.5843z" fill="#fff"/><path id="Fill-9" d="m46.409 43.228h-3.1439v-2.0369c0-0.87497 0.70378-1.5843 1.5719-1.5843 0.86816 0 1.5719 0.7093 1.5719 1.5843z" fill="#fff"/><path id="Fill-10" d="m57.637 43.228h-3.1439v-2.0369c0-0.87497 0.70378-1.5843 1.5719-1.5843 0.86816 0 1.5719 0.7093 1.5719 1.5843z" fill="#fff"/><polygon id="Fill-11" points="55.506 46.43 55.506 49.694 52.223 49.694 52.223 46.43 48.722 46.43 48.722 49.694 45.396 49.694 45.396 46.43 41.895 46.43 41.895 49.694 38.569 49.694 38.569 46.43 35.331 46.43 35.331 56.891 65.572 56.891 65.572 46.43 62.071 46.43 62.071 49.694 58.788 49.694 58.788 46.43 58.745 46.43 55.549 46.43" fill="#ff9979"/><polygon id="Fill-12" points="53.955 30.403 53.955 32.665 51.679 32.665 51.679 30.403 49.253 30.403 49.253 32.665 46.948 32.665 46.948 30.403 44.521 30.403 44.521 32.665 42.216 32.665 42.216 30.403 39.972 30.403 39.972 36.712 60.931 36.712 60.931 30.403 58.504 30.403 58.504 32.665 56.229 32.665 56.229 30.403 56.199 30.403 53.985 30.403" fill="#ff9979"/><polygon id="Fill-13" points="50.451 8.4731 58.274 20.52 42.629 20.52" fill="#ff9979"/><path id="Fill-14" d="m50.414 62.451s-8.5832 3.1685-9.3069 16.522h18.689c-0.72369-13.353-9.3817-16.522-9.3817-16.522" fill="#fff"/><polygon id="Fill-15" points="22.582 58.92 22.582 61.711 19.737 61.711 19.737 58.92 16.968 58.92 16.968 83.438 37.028 83.438 37.028 58.92 34.259 58.92 34.259 61.711 31.414 61.711 31.414 58.92 28.42 58.92 28.42 61.711 25.576 61.711 25.576 58.92" fill="#ff9979"/><path id="Fill-16" d="m26.998 80.948c-0.37202 0-0.67368-0.30403-0.67368-0.67897v-13.881c0-0.37494 0.30166-0.67897 0.67368-0.67897 0.37202 0 0.67368 0.30403 0.67368 0.67897v13.881c0 0.37494-0.30166 0.67897-0.67368 0.67897" fill="#fff"/><path id="Fill-17" d="m21.159 80.948c-0.37202 0-0.67368-0.30403-0.67368-0.67897v-13.881c0-0.37494 0.30166-0.67897 0.67368-0.67897s0.67368 0.30403 0.67368 0.67897v13.881c0 0.37494-0.30166 0.67897-0.67368 0.67897" fill="#fff"/><path id="Fill-18" d="m32.837 80.948c-0.37202 0-0.67368-0.30403-0.67368-0.67897v-13.881c0-0.37494 0.30166-0.67897 0.67368-0.67897s0.67368 0.30403 0.67368 0.67897v13.881c0 0.37494-0.30166 0.67897-0.67368 0.67897" fill="#fff"/><polygon id="Fill-19" points="2.8444 89.021 17.216 89.021 17.216 47.302 2.8444 47.302" fill="#f85f4a"/><polygon id="Fill-20" points="4.4164 43.53 15.644 43.53 15.644 36.74 4.4164 36.74" fill="#f85f4a"/><polygon id="Fill-21" points="10.03 26.857 16.692 37.117 3.3684 37.117" fill="#ff9979"/><path id="Fill-22" d="m11.911 59.825h-3.7604v-5.3474c0-1.0465 0.84181-1.8949 1.8802-1.8949 1.0384 0 1.8802 0.84841 1.8802 1.8949z" fill="#fff"/><polygon id="Fill-23" points="5.614 40.21 5.614 43.001 2.7696 43.001 2.7696 40.21 -1.4971e-5 40.21 -1.4971e-5 49.112 20.061 49.112 20.061 40.21 17.291 40.21 17.291 43.001 14.447 43.001 14.447 40.21 11.453 40.21 11.453 43.001 8.6082 43.001 8.6082 40.21" fill="#ff9979"/><polygon id="Fill-24" points="78.372 58.92 78.372 61.711 81.216 61.711 81.216 58.92 83.986 58.92 83.986 83.438 63.925 83.438 63.925 58.92 66.695 58.92 66.695 61.711 69.539 61.711 69.539 58.92 72.533 58.92 72.533 61.711 75.378 61.711 75.378 58.92" fill="#ff9979"/><path id="Fill-25" d="m73.956 80.948c0.37202 0 0.67368-0.30403 0.67368-0.67897v-13.881c0-0.37494-0.30166-0.67897-0.67368-0.67897-0.37202 0-0.67368 0.30403-0.67368 0.67897v13.881c0 0.37494 0.30166 0.67897 0.67368 0.67897" fill="#fff"/><path id="Fill-26" d="m79.794 80.948c0.37202 0 0.67368-0.30403 0.67368-0.67897v-13.881c0-0.37494-0.30166-0.67897-0.67368-0.67897-0.37202 0-0.67368 0.30403-0.67368 0.67897v13.881c0 0.37494 0.30166 0.67897 0.67368 0.67897" fill="#fff"/><path id="Fill-27" d="m68.117 80.948c0.37202 0 0.67368-0.30403 0.67368-0.67897v-13.881c0-0.37494-0.30166-0.67897-0.67368-0.67897s-0.67368 0.30403-0.67368 0.67897v13.881c0 0.37494 0.30166 0.67897 0.67368 0.67897" fill="#fff"/><polygon id="Fill-28" points="83.737 89.021 98.109 89.021 98.109 47.302 83.737 47.302" fill="#f85f4a"/><polygon id="Fill-29" points="85.309 43.53 96.537 43.53 96.537 36.74 85.309 36.74" fill="#f85f4a"/><polygon id="Fill-30" points="90.923 26.857 84.261 37.117 97.585 37.117" fill="#ff9979"/><path id="Fill-31" d="m89.043 59.825h3.7602v-5.3474c0-1.0465-0.84166-1.8949-1.88-1.8949-1.0384 0-1.8802 0.84841-1.8802 1.8949z" fill="#fff"/><polygon id="Fill-32" points="95.34 40.21 95.34 43.001 98.184 43.001 98.184 40.21 100.95 40.21 100.95 49.112 80.893 49.112 80.893 40.21 83.662 40.21 83.662 43.001 86.507 43.001 86.507 40.21 89.501 40.21 89.501 43.001 92.345 43.001 92.345 40.21" fill="#ff9979"/><path id="Fill-33" d="m0.16291 21.803s2.8444-2.7159 5.6889-0.75441c2.3766 1.6389 4.1918-0.60353 4.1918-0.60353v3.4703s-3.1439 0.90529-4.6409-1.0562c-1.4971-1.9615-5.2398-1.0562-5.2398-1.0562" fill="#ff9979"/><polygon id="Fill-34" points="10.044 28.592 10.193 28.592 10.193 19.841 10.044 19.841" fill="#ff9979"/><path id="Fill-35" d="m10.343 19.916c0 0.12508-0.10045 0.22632-0.22456 0.22632-0.12411 0-0.22456-0.10124-0.22456-0.22632 0-0.12508 0.10045-0.22632 0.22456-0.22632 0.12411 0 0.22456 0.10124 0.22456 0.22632" fill="#ff9979"/><path id="Fill-36" d="m31.152 23.915s2.8444-2.7159 5.6889-0.75441c2.3766 1.6389 4.1918-0.60353 4.1918-0.60353v3.4703s-3.1439 0.90529-4.6409-1.0562-5.2398-1.0562-5.2398-1.0562" fill="#ff9979"/><polygon id="Fill-37" points="41.033 30.705 41.183 30.705 41.183 21.953 41.033 21.953" fill="#ff9979"/><path id="Fill-38" d="m41.333 22.029c0 0.12508-0.10045 0.22632-0.22456 0.22632-0.12411 0-0.22456-0.10124-0.22456-0.22632 0-0.12508 0.10045-0.22632 0.22456-0.22632 0.12411 0 0.22456 0.10124 0.22456 0.22632" fill="#ff9979"/><path id="Fill-39" d="m49.716 23.915s2.8444-2.7159 5.6889-0.75441c2.3766 1.6389 4.1918-0.60353 4.1918-0.60353v3.4703s-3.1439 0.90529-4.6409-1.0562-5.2398-1.0562-5.2398-1.0562" fill="#ff9979"/><polygon id="Fill-40" points="59.597 30.705 59.747 30.705 59.747 21.953 59.597 21.953" fill="#ff9979"/><path id="Fill-41" d="m59.896 22.029c0 0.12508-0.10045 0.22632-0.22456 0.22632-0.12411 0-0.22456-0.10124-0.22456-0.22632 0-0.12508 0.10045-0.22632 0.22456-0.22632 0.12411 0 0.22456 0.10124 0.22456 0.22632" fill="#ff9979"/><path id="Fill-42" d="m40.509 2.1878s2.8444-2.7159 5.6889-0.75441c2.3766 1.6389 4.1918-0.60353 4.1918-0.60353v3.4703s-3.1439 0.90529-4.6409-1.0562c-1.4971-1.9615-5.2398-1.0562-5.2398-1.0562" fill="#ff9979"/><polygon id="Fill-43" points="50.39 8.9775 50.539 8.9775 50.539 0.22632 50.39 0.22632" fill="#ff9979"/><path id="Fill-44" d="m50.689 0.30176c0 0.12508-0.10045 0.22632-0.22456 0.22632-0.12411 0-0.22456-0.10124-0.22456-0.22632s0.10045-0.22632 0.22456-0.22632c0.12411 0 0.22456 0.10124 0.22456 0.22632" fill="#ff9979"/><path id="Fill-45" d="m80.855 21.803s2.8444-2.7159 5.6889-0.75441c2.3766 1.6389 4.1918-0.60353 4.1918-0.60353v3.4703s-3.1439 0.90529-4.6409-1.0562c-1.4971-1.9615-5.2398-1.0562-5.2398-1.0562" fill="#ff9979"/><polygon id="Fill-46" points="90.736 28.592 90.886 28.592 90.886 19.841 90.736 19.841" fill="#ff9979"/><path id="Fill-47" d="m91.035 19.916c0 0.12508-0.10045 0.22632-0.22456 0.22632s-0.22456-0.10124-0.22456-0.22632c0-0.12508 0.10045-0.22632 0.22456-0.22632s0.22456 0.10124 0.22456 0.22632" fill="#ff9979"/></g></g><g id="Group-3" transform="translate(0 76.193)"><path id="path203" d="m0 29.474c4.0887-1.2443 14.726-6.9069 31.911-16.988 28.965-16.991 71.223-16.555 99.495 0.78641 15.219 9.2112 20.1 13.56 28.356 16.202h-159.76z" fill="#fff"/><path id="path205" d="m0 29.474c4.0887-1.2443 14.726-6.9069 31.911-16.988 28.965-16.991 71.223-16.555 99.495 0.78641 15.219 9.2112 20.1 13.56 28.356 16.202h-159.76z" fill="url(#linearGradient-1)"/></g><path id="path209" d="m90.386 76.611c-23.978 8.204 9.4152 28.652 9.4152 28.652h-30.499s-17.995-20.211 2.8629-28.715c10.983-0.90791 17.596-0.09759 18.221 0.06276z" fill="#fff"/><path id="path211" d="m90.386 76.611c-23.978 8.204 9.4152 28.652 9.4152 28.652h-30.499s-17.995-20.211 2.8629-28.715c10.983-0.90791 17.596-0.09759 18.221 0.06276z" fill="url(#linearGradient-2)"/><g id="Group-14" transform="translate(121.26 72.421)"><g id="Group-126-Copy-7"><path id="Combined-Shape" d="m2.2215 7.9292c-0.85155-0.83988-1.3794-2.0071-1.3794-3.2977 0-2.5579 2.0737-4.6316 4.6316-4.6316 2.5579 0 4.6316 2.0737 4.6316 4.6316 0 1.1213-0.39849 2.1496-1.0616 2.9509 1.6502 0.97016 2.7458 2.6803 2.7458 4.628 0 3.023-2.6391 5.4738-5.8947 5.4738-3.2556 0-5.8947-2.4507-5.8947-5.4738 0-1.7332 0.86757-3.2782 2.2215-4.2812z" fill="#a1f0aa"/><path id="Fill-55" d="m9.644 9.7866c-1.1312 0.86406-2.2627 1.7277-3.3939 2.5915v-8.7638c0-0.32771-0.52376-0.32814-0.52376 0v3.9896c-0.72418-0.80399-1.4484-1.6078-2.1725-2.412-0.22235-0.24675-0.59152 0.11433-0.37028 0.36022 0.84753 0.94093 1.6951 1.8821 2.5428 2.823v4.4422c-0.017938 0.04522-0.016388 0.09194 0 0.13565v2.1826c-1.2012-1.3337-2.4024-2.6671-3.6036-4.0006-0.22235-0.24697-0.59175 0.11433-0.37028 0.36022 1.3246 1.4706 2.6491 2.941 3.9739 4.4116v7.426c0 0.32792 0.52376 0.32814 0.52376 0v-10.312c1.2548-0.95794 2.5096-1.9161 3.7642-2.874 0.26509-0.2024-0.10785-0.56047-0.37028-0.36022" fill="#4c2147"/></g><g id="Group-126-Copy-9" transform="translate(8.4211 3.3684)"><path id="path216" d="m2.2215 7.9292c-0.85155-0.83988-1.3794-2.0071-1.3794-3.2977 0-2.5579 2.0737-4.6316 4.6316-4.6316 2.5579 0 4.6316 2.0737 4.6316 4.6316 0 1.1213-0.39849 2.1496-1.0616 2.9509 1.6502 0.97016 2.7458 2.6803 2.7458 4.628 0 3.023-2.6391 5.4738-5.8947 5.4738-3.2556 0-5.8947-2.4507-5.8947-5.4738 0-1.7332 0.86757-3.2782 2.2215-4.2812z" fill="#01c97b"/><path id="path218" d="m9.644 9.7866c-1.1312 0.86406-2.2627 1.7277-3.3939 2.5915v-8.7638c0-0.32771-0.52376-0.32814-0.52376 0v3.9896c-0.72418-0.80399-1.4484-1.6078-2.1725-2.412-0.22235-0.24675-0.59152 0.11433-0.37028 0.36022 0.84753 0.94093 1.6951 1.8821 2.5428 2.823v4.4422c-0.017938 0.04522-0.016388 0.09194 0 0.13565v2.1826c-1.2012-1.3337-2.4024-2.6671-3.6036-4.0006-0.22235-0.24697-0.59175 0.11433-0.37028 0.36022 1.3246 1.4706 2.6491 2.941 3.9739 4.4116v7.426c0 0.32792 0.52376 0.32814 0.52376 0v-10.312c1.2548-0.95794 2.5096-1.9161 3.7642-2.874 0.26509-0.2024-0.10785-0.56047-0.37028-0.36022" fill="#4c2147"/></g></g><g id="Group-14-Copy" transform="translate(18.526 72.421)"><g id="g226" transform="translate(0 3.3684)"><path id="path222" d="m2.2215 7.9292c-0.85155-0.83988-1.3794-2.0071-1.3794-3.2977 0-2.5579 2.0737-4.6316 4.6316-4.6316 2.5579 0 4.6316 2.0737 4.6316 4.6316 0 1.1213-0.39849 2.1496-1.0616 2.9509 1.6502 0.97016 2.7458 2.6803 2.7458 4.628 0 3.023-2.6391 5.4738-5.8947 5.4738-3.2556 0-5.8947-2.4507-5.8947-5.4738 0-1.7332 0.86757-3.2782 2.2215-4.2812z" fill="#a1f0aa"/><path id="path224" d="m9.644 9.7866c-1.1312 0.86406-2.2627 1.7277-3.3939 2.5915v-8.7638c0-0.32771-0.52376-0.32814-0.52376 0v3.9896c-0.72418-0.80399-1.4484-1.6078-2.1725-2.412-0.22235-0.24675-0.59152 0.11433-0.37028 0.36022 0.84753 0.94093 1.6951 1.8821 2.5428 2.823v4.4422c-0.017938 0.04522-0.016388 0.09194 0 0.13565v2.1826c-1.2012-1.3337-2.4024-2.6671-3.6036-4.0006-0.22235-0.24697-0.59175 0.11433-0.37028 0.36022 1.3246 1.4706 2.6491 2.941 3.9739 4.4116v7.426c0 0.32792 0.52376 0.32814 0.52376 0v-10.312c1.2548-0.95794 2.5096-1.9161 3.7642-2.874 0.26509-0.2024-0.10785-0.56047-0.37028-0.36022" fill="#4c2147"/></g><g id="g232" transform="translate(8.4211)"><path id="path228" d="m2.2215 7.9292c-0.85155-0.83988-1.3794-2.0071-1.3794-3.2977 0-2.5579 2.0737-4.6316 4.6316-4.6316 2.5579 0 4.6316 2.0737 4.6316 4.6316 0 1.1213-0.39849 2.1496-1.0616 2.9509 1.6502 0.97016 2.7458 2.6803 2.7458 4.628 0 3.023-2.6391 5.4738-5.8947 5.4738-3.2556 0-5.8947-2.4507-5.8947-5.4738 0-1.7332 0.86757-3.2782 2.2215-4.2812z" fill="#01c97b"/><path id="path230" d="m9.644 9.7866c-1.1312 0.86406-2.2627 1.7277-3.3939 2.5915v-8.7638c0-0.32771-0.52376-0.32814-0.52376 0v3.9896c-0.72418-0.80399-1.4484-1.6078-2.1725-2.412-0.22235-0.24675-0.59152 0.11433-0.37028 0.36022 0.84753 0.94093 1.6951 1.8821 2.5428 2.823v4.4422c-0.017938 0.04522-0.016388 0.09194 0 0.13565v2.1826c-1.2012-1.3337-2.4024-2.6671-3.6036-4.0006-0.22235-0.24697-0.59175 0.11433-0.37028 0.36022 1.3246 1.4706 2.6491 2.941 3.9739 4.4116v7.426c0 0.32792 0.52376 0.32814 0.52376 0v-10.312c1.2548-0.95794 2.5096-1.9161 3.7642-2.874 0.26509-0.2024-0.10785-0.56047-0.37028-0.36022" fill="#4c2147"/></g></g></g><g id="Group-10-Copy-2" transform="translate(124,259)" fill="none" fill-rule="evenodd"><g id="Group-9"><g id="Group-7"><path id="Fill-1" d="m68.814 31.964 7.9711-10.602c1.7725 2.5946 6.5618 3.8919 14.368 3.8919l28.787 0.0055s5.6378-0.03216 9.3063-3.8975c3.6685-3.8653 5.808 14.797-0.95231 13.983-9.5338-1.1481-30.374 2.5904-55.668 2.382-0.78114-0.0064-2.0515-1.9275-3.8112-5.7631z" fill="url(#linearGradient-3)"/><path id="path237" d="m17.02 67.047-4.0904-4.827c11.875-13.993 19.324-29.681 22.347-47.063 2.5658-14.754 17.246-12.673 21.044-6.9104 3.7976 5.7626 2.6029 11.436 8.8376 11.234s9.1531 0.3343 11.688 2.2123 3.9555 8.6848 14.849 8.6848h26.783s5.4434 0 8.8494-6.0702c3.406-6.0702 7.2248-5.2674 9.733-5.2674s6.2789 1.1444 12.715 12.407c0 0 11.812 22.123 18.248 23.732h-125c-6.4954 0-15.163 3.9557-26.004 11.867z" fill="#fff"/><path id="path239" d="m17.02 67.047-4.0904-4.827c11.875-13.993 19.324-29.681 22.347-47.063 2.5658-14.754 17.246-12.673 21.044-6.9104 3.7976 5.7626 2.6029 11.436 8.8376 11.234s9.1531 0.3343 11.688 2.2123 3.9555 8.6848 14.849 8.6848h26.783s5.4434 0 8.8494-6.0702c3.406-6.0702 7.2248-5.2674 9.733-5.2674s6.2789 1.1444 12.715 12.407c0 0 11.812 22.123 18.248 23.732h-125c-6.4954 0-15.163 3.9557-26.004 11.867z" fill="url(#linearGradient-4)"/><polygon id="polygon241" points="31.813 76.366 162.51 76.366 162.51 54.904 31.813 54.904" fill="url(#linearGradient-5)"/><path id="path243" d="m61.135 35.447c7.6086 4.7827 14.131 17.392 20.87 18.478 6.7392 1.0869 11.087 0.97826 11.087 0.97826h-67.175c-4.8614 11.483 5.8249-2.19 15.506-16.282 3.9893-5.807 12.103-7.9578 19.712-3.1751z" fill="url(#linearGradient-6)"/><g id="Group-4" transform="translate(0 39.476)"><path id="path245" d="m82.745 36.789c-59.686 0.0269-86.77 0.0269-81.253 0 13.069-12.638 15.127-25.211 21.447-32.523 6.3205-7.3123 16.14-2.275 19.371 1.9346 3.2303 4.2096 6.0858 21.253 14.196 21.485 5.4065 0.15513 9.8027 0.15513 13.189 0 4.1023 0.04203 9.1288 2.6877 10.892 4.8728 1.1755 1.4567 1.8952 2.8669 2.1592 4.2304z" fill="#fff"/><path id="path247" d="m82.745 36.789c-59.686 0.0269-86.77 0.0269-81.253 0 13.069-12.638 15.127-25.211 21.447-32.523 6.3205-7.3123 16.14-2.275 19.371 1.9346 3.2303 4.2096 6.0858 21.253 14.196 21.485 5.4065 0.15513 9.8027 0.15513 13.189 0 4.1023 0.04203 9.1288 2.6877 10.892 4.8728 1.1755 1.4567 1.8952 2.8669 2.1592 4.2304z" fill="url(#linearGradient-7)"/><path id="path249" d="m118.74 36.789c0.26398-1.3636 0.98371-2.7737 2.1592-4.2304 1.7632-2.1851 5.1959-2.44 9.2981-2.4821h4.899c8.1324 0 8.1039-7.0725 11.328-14.313 3.2244-7.2406 14.046-9.4525 19.371-1.9346 5.3249 7.5179 4.7074 16.248 14.579 22.96 5.5172 0.0269-1.9488 0.0269-61.635 0z" fill="#fff"/><path id="path251" d="m118.74 36.789c0.26398-1.3636 0.98371-2.7737 2.1592-4.2304 1.7632-2.1851 5.1959-2.44 9.2981-2.4821h4.899c8.1324 0 8.1039-7.0725 11.328-14.313 3.2244-7.2406 14.046-9.4525 19.371-1.9346 5.3249 7.5179 4.7074 16.248 14.579 22.96 5.5172 0.0269-1.9488 0.0269-61.635 0z" fill="url(#linearGradient-8)"/></g><g id="Group-126-Copy" transform="translate(48.612 49.408)"><path id="path254" d="m1.9775 7.0586c-0.75804-0.74766-1.2279-1.7867-1.2279-2.9356 0-2.277 1.846-4.123 4.123-4.123 2.277 0 4.123 1.846 4.123 4.123 0 0.99819-0.35473 1.9135-0.94501 2.6269 1.469 0.86363 2.4443 2.386 2.4443 4.1198 0 2.6911-2.3493 4.8727-5.2475 4.8727-2.8982 0-5.2475-2.1816-5.2475-4.8727 0-1.5428 0.7723-2.9183 1.9775-3.8111z" fill="#a2f1ab"/><path id="path256" d="m8.585 8.712c-1.007 0.76918-2.0142 1.538-3.0212 2.307v-7.8014c0-0.29172-0.46624-0.29211-0.46624 0v3.5515c-0.64466-0.7157-1.2893-1.4312-1.934-2.1471-0.19793-0.21966-0.52657 0.10178-0.32962 0.32067 0.75447 0.83761 1.5089 1.6754 2.2636 2.513v3.9544c-0.015969 0.04025-0.014589 0.08184 0 0.12075v1.943c-1.0693-1.1872-2.1386-2.3742-3.2079-3.5613-0.19793-0.21985-0.52677 0.10178-0.32962 0.32067 1.1791 1.3091 2.3582 2.618 3.5375 3.9272v6.6106c0 0.29192 0.46624 0.29211 0.46624 0v-9.1798c1.117-0.85275 2.234-1.7057 3.3508-2.5584 0.23598-0.18017-0.096009-0.49892-0.32962-0.32067" fill="#4c2147"/></g><g id="Group-126-Copy-3" transform="translate(132.46)"><path id="path259" d="m1.9775 7.0586c-0.75804-0.74766-1.2279-1.7867-1.2279-2.9356 0-2.277 1.846-4.123 4.123-4.123 2.277 0 4.123 1.846 4.123 4.123 0 0.99819-0.35473 1.9135-0.94501 2.6269 1.469 0.86363 2.4443 2.386 2.4443 4.1198 0 2.6911-2.3493 4.8727-5.2475 4.8727-2.8982 0-5.2475-2.1816-5.2475-4.8727 0-1.5428 0.7723-2.9183 1.9775-3.8111z" fill="#a2f1ab"/><path id="path261" d="m8.585 8.712c-1.007 0.76918-2.0142 1.538-3.0212 2.307v-7.8014c0-0.29172-0.46624-0.29211-0.46624 0v3.5515c-0.64466-0.7157-1.2893-1.4312-1.934-2.1471-0.19793-0.21966-0.52657 0.10178-0.32962 0.32067 0.75447 0.83761 1.5089 1.6754 2.2636 2.513v3.9544c-0.015969 0.04025-0.014589 0.08184 0 0.12075v1.943c-1.0693-1.1872-2.1386-2.3742-3.2079-3.5613-0.19793-0.21985-0.52677 0.10178-0.32962 0.32067 1.1791 1.3091 2.3582 2.618 3.5375 3.9272v6.6106c0 0.29192 0.46624 0.29211 0.46624 0v-9.1798c1.117-0.85275 2.234-1.7057 3.3508-2.5584 0.23598-0.18017-0.096009-0.49892-0.32962-0.32067" fill="#4c2147"/></g><g id="Group-126-Copy-4" transform="translate(63.753 31.08)"><path id="path264" d="m1.9775 7.0586c-0.75804-0.74766-1.2279-1.7867-1.2279-2.9356 0-2.277 1.846-4.123 4.123-4.123 2.277 0 4.123 1.846 4.123 4.123 0 0.99819-0.35473 1.9135-0.94501 2.6269 1.469 0.86363 2.4443 2.386 2.4443 4.1198 0 2.6911-2.3493 4.8727-5.2475 4.8727-2.8982 0-5.2475-2.1816-5.2475-4.8727 0-1.5428 0.7723-2.9183 1.9775-3.8111z" fill="#a2f1ab"/><path id="path266" d="m8.585 8.712c-1.007 0.76918-2.0142 1.538-3.0212 2.307v-7.8014c0-0.29172-0.46624-0.29211-0.46624 0v3.5515c-0.64466-0.7157-1.2893-1.4312-1.934-2.1471-0.19793-0.21966-0.52657 0.10178-0.32962 0.32067 0.75447 0.83761 1.5089 1.6754 2.2636 2.513v3.9544c-0.015969 0.04025-0.014589 0.08184 0 0.12075v1.943c-1.0693-1.1872-2.1386-2.3742-3.2079-3.5613-0.19793-0.21985-0.52677 0.10178-0.32962 0.32067 1.1791 1.3091 2.3582 2.618 3.5375 3.9272v6.6106c0 0.29192 0.46624 0.29211 0.46624 0v-9.1798c1.117-0.85275 2.234-1.7057 3.3508-2.5584 0.23598-0.18017-0.096009-0.49892-0.32962-0.32067" fill="#4c2147"/></g><g id="Group-126-Copy-2" transform="translate(40.642 44.627)"><path id="path269" d="m1.9775 7.0586c-0.75804-0.74766-1.2279-1.7867-1.2279-2.9356 0-2.277 1.846-4.123 4.123-4.123 2.277 0 4.123 1.846 4.123 4.123 0 0.99819-0.35473 1.9135-0.94501 2.6269 1.469 0.86363 2.4443 2.386 2.4443 4.1198 0 2.6911-2.3493 4.8727-5.2475 4.8727-2.8982 0-5.2475-2.1816-5.2475-4.8727 0-1.5428 0.7723-2.9183 1.9775-3.8111z" fill="#01c97b"/><path id="path271" d="m8.585 8.712c-1.007 0.76918-2.0142 1.538-3.0212 2.307v-7.8014c0-0.29172-0.46624-0.29211-0.46624 0v3.5515c-0.64466-0.7157-1.2893-1.4312-1.934-2.1471-0.19793-0.21966-0.52657 0.10178-0.32962 0.32067 0.75447 0.83761 1.5089 1.6754 2.2636 2.513v3.9544c-0.015969 0.04025-0.014589 0.08184 0 0.12075v1.943c-1.0693-1.1872-2.1386-2.3742-3.2079-3.5613-0.19793-0.21985-0.52677 0.10178-0.32962 0.32067 1.1791 1.3091 2.3582 2.618 3.5375 3.9272v6.6106c0 0.29192 0.46624 0.29211 0.46624 0v-9.1798c1.117-0.85275 2.234-1.7057 3.3508-2.5584 0.23598-0.18017-0.096009-0.49892-0.32962-0.32067" fill="#4c2147"/></g><g id="Group-125-Copy-4" transform="translate(59.741 8.246)"><path id="Fill-59" d="m9.6541 4.827c0 2.6659-2.1611 4.827-4.827 4.827s-4.827-2.1611-4.827-4.827 2.1611-4.827 4.827-4.827 4.827 2.1611 4.827 4.827" fill="#01c97b"/><path id="Fill-60" d="m7.8196 2.8582c-0.91837 0.72114-1.8365 1.4423-2.7549 2.1634v-2.9556c0-0.30581-0.47532-0.30619-0.47532 0v5.269c-0.97551-1.1139-1.9508-2.2278-2.9263-3.3417-0.18223-0.20786-0.48443 0.096241-0.30315 0.30315 1.0765 1.2293 2.153 2.4586 3.2295 3.6879v4.8785c0 0.30581 0.47532 0.30638 0.47532 0v-7.3001c1.0194-0.80049 2.0387-1.601 3.0581-2.4015 0.21678-0.17027-0.088458-0.4719-0.30315-0.30315" fill="#4c2147"/></g><g id="Group-125-Copy-6" transform="translate(125.12 57.562)"><path id="path277" d="m9.6541 4.827c0 2.6659-2.1611 4.827-4.827 4.827s-4.827-2.1611-4.827-4.827 2.1611-4.827 4.827-4.827 4.827 2.1611 4.827 4.827" fill="#a2f1ab"/><path id="path279" d="m7.8196 2.8582c-0.91837 0.72114-1.8365 1.4423-2.7549 2.1634v-2.9556c0-0.30581-0.47532-0.30619-0.47532 0v5.269c-0.97551-1.1139-1.9508-2.2278-2.9263-3.3417-0.18223-0.20786-0.48443 0.096241-0.30315 0.30315 1.0765 1.2293 2.153 2.4586 3.2295 3.6879v4.8785c0 0.30581 0.47532 0.30638 0.47532 0v-7.3001c1.0194-0.80049 2.0387-1.601 3.0581-2.4015 0.21678-0.17027-0.088458-0.4719-0.30315-0.30315" fill="#4c2147"/></g><g id="Group-6" transform="translate(83.565 25.038)"><rect id="Rectangle" x="27.901" y="5.06" width="5.2475" height="37.482" fill="#12758f" fill-opacity=".20037"/><g id="Group-5" transform="translate(0 .12179)"><path id="path283" d="m34.849 0.09503h-0.40224v0.011062c0.13133-0.006034 0.26347-0.011062 0.40224-0.011062" fill="#00c7c0"/><path id="path285" d="m8.9042 0.09503c-5.6314 0-5.0281 4.8269-5.0281 4.8269v37.409h25.945v-37.409s-0.57099-4.5896 4.6258-4.8159v-0.011062z" fill="#fff"/><path id="path287" d="m8.9042 0.09503c-5.6314 0-5.0281 4.8269-5.0281 4.8269v37.409h25.945v-37.409s-0.57099-4.5896 4.6258-4.8159v-0.011062z" fill="url(#linearGradient-9)"/><path id="path289" d="m34.447 0.10603v-0.011062h-25.542c-5.6314 0-5.0281 4.8269-5.0281 4.8269h25.945s-0.57099-4.5896 4.6258-4.8159" fill="#fff" fill-opacity=".5"/><g id="Group" transform="translate(0 33.957)" fill="#fff"><path id="path291" d="m3.3918 2.3442c0.61572 0.080787 1.1801-0.35304 1.2609-0.9688 0.080566-0.61554-0.35302-1.1802-0.96874-1.2608-0.61572-0.080787-1.1801 0.35304-1.2609 0.9688-0.080566 0.61554 0.35302 1.1802 0.96874 1.2608"/><path id="path293" d="m24.805 4.5963c0.41036 0.053933 0.78687-0.23521 0.8406-0.64576 0.05373-0.41034-0.23542-0.78664-0.64578-0.84057-0.41056-0.053933-0.78687 0.23521-0.8406 0.64576-0.05393 0.41034 0.23543 0.78685 0.64578 0.84057"/><path id="path295" d="m22.23 2.3506c0.20526 0.026897 0.39334-0.1177 0.42024-0.32296 0.0269-0.20526-0.1177-0.39335-0.32296-0.42024-0.20507-0.026897-0.39334 0.1177-0.42024 0.32296-0.0269 0.20507 0.1177 0.39315 0.32296 0.42024"/><path id="path297" d="m30.802 3.8467c0.41045 0.053827 0.78674-0.23534 0.84057-0.64575 0.05383-0.41041-0.23536-0.78702-0.64581-0.84067-0.41045-0.053648-0.78692 0.23534-0.84057 0.64575-0.05383 0.41059 0.23536 0.78684 0.64581 0.84067"/><path id="path299" d="m1.6574 4.7001c0.053821-0.41044-0.23541-0.78671-0.64585-0.84054-0.41044-0.05382-0.78672 0.23517-0.84054 0.64585-0.053821 0.41044 0.23541 0.78671 0.64585 0.84054 0.41044 0.05382 0.78672-0.23541 0.84054-0.64585"/><path id="path301" d="m11.312 3.8467c0.41049 0.053838 0.7867-0.23513 0.84054-0.64562 0.05384-0.41071-0.23535-0.78692-0.64584-0.84076-0.41027-0.053838-0.7867 0.23557-0.84054 0.64584-0.05384 0.41049 0.23535 0.78692 0.64584 0.84054"/><path id="path303" d="m30.15 8.2511c0-1.6246-1.2418-2.9414-2.7736-2.9414-1.1461 0-2.1292 0.73731-2.5522 1.7887-0.4418-0.63766-1.1517-1.0533-1.9551-1.0533-0.70868 0-1.3446 0.32425-1.7882 0.83824-0.28331-1.7288-1.7013-3.0444-3.4123-3.0444-1.5794 0-2.9096 1.1213-3.3282 2.6533-0.50571-0.71649-1.3102-1.1825-2.219-1.1825-0.86696 0-1.6406 0.42241-2.1493 1.083-0.334-1.8724-1.8822-3.2892-3.7449-3.2892-2.1062 0-3.8137 1.811-3.8137 4.0448 0 0.41859 0.059908 0.82273 0.17151 1.2026h27.56c0.0012-0.033572 0.0048-0.066294 0.0048-0.099867"/></g></g></g></g><g id="Group-13" transform="translate(81.481 8.9956)"><path id="path309" d="m40.923 1.9598-0.14218-0.18544c-0.81728 0.62717-1.6682 1.2055-2.5442 1.7452l-0.14545-0.00281-0.0019 0.092368c-2.9712 1.8076-6.2619 3.1106-9.7822 3.8795l-0.03718-0.00304-7.01e-4 0.010991c-2.4715 0.53667-5.0524 0.81635-7.7164 0.81635-6.5294 0-10.626-2.2814-14.734-5.2318l0.00164-0.019877-0.03344-0.00304c-0.77774-0.55888-1.556-1.1416-2.3515-1.7372l-0.14007 0.18708c0.77075 0.57736 1.5256 1.1423 2.2793 1.6858l-0.45483 5.46 0.23291 0.019643 0.44337-5.3209c0.7006 0.50136 1.4017 0.98308 2.1151 1.4372l-0.68633 5.262 0.23197 0.029932 0.6723-5.1553c0.69311 0.43378 1.3989 0.8409 2.128 1.2144l-0.58882 4.9856 0.23221 0.02736 0.579-4.9007c0.67558 0.33744 1.3727 0.64494 2.0985 0.91854l-0.80466 5.1198 0.23104 0.03625 0.79741-5.0732c0.75485 0.2743 1.5417 0.51165 2.3705 0.70481l-1.1641 5.1219 0.228 0.05145 1.1641-5.1221c0.73731 0.16322 1.5064 0.29301 2.3158 0.38327l-0.72866 4.8958 0.23127 0.03437 0.7303-4.9067c0.81822 0.083248 1.675 0.12861 2.5798 0.12932l-0.90918 4.7723 0.22987 0.04396 0.9176-4.8177c0.79226-0.00444 1.5775-0.032972 2.3548-0.085353l-0.46371 4.6355 0.23267 0.02339 0.46745-4.6743c0.85844-0.063138 1.7066-0.15668 2.544-0.27781l-0.69662 5.063 0.23174 0.03204 0.70574-5.1296c0.71042-0.10757 1.4131-0.23571 2.1069-0.38514l-0.40923 5.3267 0.23314 0.01801 0.41484-5.3981c0.71393-0.15901 1.4187-0.34001 2.1132-0.54228l-0.25302 5.1892 0.23361 0.01122 0.257-5.2692c0.79109-0.23665 1.5684-0.50323 2.3317-0.79624l-0.23221 4.9568 0.23361 0.01099 0.23712-5.0587c0.7158-0.28155 1.418-0.58882 2.1069-0.91924l-0.09471 4.9993 0.23384 0.0044 0.09681-5.1177c0.79671-0.39052 1.5742-0.81354 2.3314-1.2691l-0.0898 4.7454 0.23384 0.00444 0.0926-4.8941c0.89727-0.5509 1.7662-1.1467 2.6025-1.7886" fill="#785174"/><g id="Group-8" transform="translate(1.6463 9.3698)"><polygon id="polygon311" points="7.276e-12 8.246 0.41157 8.246 0.41157 0 7.276e-12 0" fill="#785174"/><polygon id="Fill-3-Copy" points="0.41157 8.246 0.82313 8.246 0.82313 0 0.41157 0" fill="#4c2147"/></g><g id="Group-8-Copy" transform="translate(3.2925 8.5467)"><polygon id="polygon315" points="7.276e-12 8.246 0.41157 8.246 0.41157 0 7.276e-12 0" fill="#785174"/><polygon id="polygon317" points="0.41157 8.246 0.82313 8.246 0.82313 0 0.41157 0" fill="#4c2147"/></g><g id="Group-8-Copy-4" transform="translate(40.547 8.2313)"><polygon id="polygon320" points="7.276e-12 8.246 0.41157 8.246 0.41157 0 7.276e-12 0" fill="#785174"/><polygon id="polygon322" points="0.41157 8.246 0.82313 8.246 0.82313 0 0.41157 0" fill="#4c2147"/></g><g id="Group-8-Copy-3" transform="translate(38.687 9.3698)"><polygon id="polygon325" points="7.276e-12 8.246 0.41157 8.246 0.41157 0 7.276e-12 0" fill="#785174"/><polygon id="polygon327" points="0.41157 8.246 0.82313 8.246 0.82313 0 0.41157 0" fill="#4c2147"/></g><polygon id="Fill-6" points="3.2643 -4.6769e-5 2.6044 0.060519 3.4471 9.4741 4.1255 9.4119" fill="#4c2147"/><polygon id="polygon331" points="41.382 0.73231 40.72 0.69349 40.739 8.9299 41.368 8.6921" fill="#4c2147"/><path id="path333" d="m1.1434 5.7405c5.5594 2.9462 12.009 4.4529 19.664 4.4529 7.7957 0 14.332-1.5918 19.938-4.6362v3.3154c-5.6059 3.0444-12.142 4.6362-19.938 4.6362-7.6551 0-13.524-1.0588-19.083-4.0048z" fill="#755871"/><path id="path335" d="m1.6111 8.5467c5.5594 2.9462 11.541 4.219 19.196 4.219 7.7957 0 14.952-1.8256 20.557-4.87v0.977c-5.6059 3.0444-12.762 4.87-20.557 4.87-7.6551 0-13.602-1.334-19.161-4.28z" fill="#4c2147"/><path id="path337" d="m38.277 1.7426-0.13844-0.18871c-5.0513 3.7092-10.968 5.5898-17.586 5.5898-2.2978 0-4.5345-0.19152-6.6489-0.51656l-0.0072-0.044196-0.13423 0.022449c-4.0881-0.64237-7.7047-1.7887-10.386-3.0444l-0.00327-0.018941-0.026658 0.00491c-1.0652-0.50066-1.9835-1.0177-2.7212-1.527l-0.13282 0.19222c0.72796 0.50253 1.6306 1.0128 2.6745 1.5074l1.1353 6.4843 0.2301-0.040221-1.1068-6.3215c0.7766 0.35755 1.6301 0.70527 2.5461 1.035l0.90077 6.0236 0.23127-0.03461-0.88229-5.8996c0.69124 0.24343 1.4185 0.47517 2.1759 0.69335l1.0474 5.9476 0.2301-0.04069-1.0275-5.8346c0.77122 0.21654 1.5747 0.41694 2.403 0.59934l-0.08325 0.015901 1.1692 6.0799 0.22964-0.0442-1.1571-6.0168c0.8077 0.17492 1.6395 0.33089 2.4918 0.46558l1.0074 6.0603 0.23057-0.03835-0.99477-5.9845c0.83155 0.12651 1.6809 0.23291 2.5459 0.31475l0.90568 6.0552 0.23127-0.03461-0.89726-5.9993c0.7635 0.067815 1.5382 0.11692 2.3216 0.14475l0.9162 5.6588 0.2308-0.03741-0.90895-5.6146c0.41905 0.012628 0.83997 0.020812 1.2635 0.020812 0.3192 0 0.63512-0.00818 0.95104-0.017071l1.035 5.8859 0.23034-0.04045-1.0284-5.8496c0.7918-0.027126 1.5728-0.083482 2.3438-0.16509l0.91269 5.9333 0.23104-0.03554-0.91106-5.9226c0.7953-0.090264 1.5791-0.20999 2.3511-0.35848l0.901 6.082 0.2315-0.03438-0.90334-6.0961c0.70925-0.14218 1.4094-0.3068 2.0985-0.49879l0.91199 5.9284 0.23104-0.03554-0.9169-5.9595c0.63722-0.18287 1.2677-0.38233 1.8871-0.60753l1.1376 6.3715 0.2301-0.04116-1.1458-6.4164c0.71509-0.26635 1.4178-0.56099 2.1081-0.8844l1.0273 6.2862 0.2308-0.03788-1.0385-6.3547c0.64284-0.30774 1.2756-0.63886 1.8965-0.99618l1.1344 6.8063 0.23057-0.03835-1.1491-6.8954c0.85634-0.5023 1.6935-1.0467 2.5061-1.6435" fill="#4c2147"/><polygon id="polygon339" points="37.642 0.24521 38.578 9.5557 39.208 9.3176 38.305 0.24521" fill="#4c2147"/><polygon id="polygon341" points="0 1.0118 1.6463 9.3698 2.3698 9.4627 0.64985 0.88157" fill="#4c2147"/></g></g><g id="Group-125-Copy-3" transform="translate(132.29 59.156)"><path id="path345" d="m9.6541 4.827c0 2.6659-2.1611 4.827-4.827 4.827s-4.827-2.1611-4.827-4.827 2.1611-4.827 4.827-4.827 4.827 2.1611 4.827 4.827" fill="#01c97b"/><path id="path347" d="m7.8196 2.8582c-0.91837 0.72114-1.8365 1.4423-2.7549 2.1634v-2.9556c0-0.30581-0.47532-0.30619-0.47532 0v5.269c-0.97551-1.1139-1.9508-2.2278-2.9263-3.3417-0.18223-0.20786-0.48443 0.096241-0.30315 0.30315 1.0765 1.2293 2.153 2.4586 3.2295 3.6879v4.8785c0 0.30581 0.47532 0.30638 0.47532 0v-7.3001c1.0194-0.80049 2.0387-1.601 3.0581-2.4015 0.21678-0.17027-0.088458-0.4719-0.30315-0.30315" fill="#4c2147"/></g></g><g id="Group-15" transform="translate(13,405)" fill="none" fill-rule="evenodd"><g id="Group-138"><path id="path351" d="m68.076 31.398s7.4864-6.7626 23.072-23.128c15.586-16.365 23.184-4.0912 27.859 0 4.6757 4.0912 24.353 28.054 28.054 32.73 3.7016 4.6757-66.434 19.482-66.434 19.482l-19.287-21.235z" fill="#fff"/><path id="path353" d="m68.076 31.398s7.4864-6.7626 23.072-23.128c15.586-16.365 23.184-4.0912 27.859 0 4.6757 4.0912 24.353 28.054 28.054 32.73 3.7016 4.6757-66.434 19.482-66.434 19.482l-19.287-21.235z" fill="url(#linearGradient-10)"/><path id="path355" d="m126.33 16.146c-3.2227-3.694-5.9338-6.6609-7.3223-7.8758-4.6757-4.0912-12.274-16.365-27.859 0-3.65 3.8325-6.8557 7.1384-9.6253 9.9542l-0.17651 0.17924s1.6194 1.7507 5.1261-0.0027c4.3702-2.1851 5.6498-5.0653 9.741-5.0653 1.9579 0 3.5068 0.77928 5.0653 4.0912 1.2691 2.6965 3.8964 5.455 7.0135 3.312s3.7016-6.4291 6.8187-5.6498c3.1171 0.77928 6.6239 3.8964 9.3514 3.1171 2.0176-0.57647 2.1384-1.7491 2.1384-1.7491z" fill="url(#linearGradient-11)"/><path id="path357" d="m1.7516 85.443c8.185-3.4335 17.406-9.7646 37.24-33.143 18.459-21.758 20.804-25.224 28.054-25.132 7.6954 0.09741 16.685 13.15 44.912 57.636z" fill="#fff"/><path id="path359" d="m1.7516 85.443c8.185-3.4335 17.406-9.7646 37.24-33.143 18.459-21.758 20.804-25.224 28.054-25.132 7.6954 0.09741 16.685 13.15 44.912 57.636z" fill="url(#linearGradient-12)"/><g id="Group-135-Copy-5" transform="translate(74.241 36.738)"><g id="Group-135-Copy-4" transform="matrix(-1 0 0 1 22.196 0)"><polygon id="polygon361" points="9.7032 2.0739 11.119 2.0739 11.119 -8.8551e-13 9.7032 -8.8551e-13" fill="#785174"/><polygon id="polygon363" points="8.6926 2.0739 9.7032 2.0739 9.7032 -8.8551e-13 8.6926 -8.8551e-13" fill="#4c2147"/><polygon id="polygon365" points="20.006 22.885 20.006 6.5685 15.608 2.2319 6.8103 2.2319 6.8103 22.885" fill="#785174"/><polygon id="polygon367" points="11.209 22.885 11.209 6.5685 6.4128 2.2319 2.0142 6.5685 2.1467 22.885" fill="#4c2147"/><polygon id="polygon369" points="7.8491 8.1439 7.8491 5.7697 6.5918 4.5301 5.3346 5.7697 5.3346 8.1439" fill="#351731"/><polygon id="polygon371" points="7.6078 7.9025 7.6078 5.8707 6.5918 4.869 5.5758 5.8707 5.5758 7.9025" fill="#f6f8fb"/><polygon id="polygon373" points="5.3346 14.418 7.8491 14.418 7.8491 11.031 5.3346 11.031" fill="#351731"/><polygon id="polygon375" points="5.5759 14.174 7.6078 14.174 7.6078 11.276 5.5759 11.276" fill="#f6f8fb"/><polygon id="polygon377" points="12.341 14.422 14.856 14.422 14.856 11.036 12.341 11.036" fill="#351731"/><polygon id="polygon379" points="12.583 14.178 14.615 14.178 14.615 11.28 12.583 11.28" fill="#f6f8fb"/><polygon id="polygon381" points="16.468 14.422 18.982 14.422 18.982 11.036 16.468 11.036" fill="#351731"/><polygon id="polygon383" points="16.709 14.178 18.741 14.178 18.741 11.28 16.709 11.28" fill="#f6f8fb"/><polygon id="polygon385" points="12.341 21.341 14.856 21.341 14.856 17.955 12.341 17.955" fill="#351731"/><polygon id="polygon387" points="12.583 21.097 14.615 21.097 14.615 18.199 12.583 18.199" fill="#f6f8fb"/><polygon id="polygon389" points="16.468 21.341 18.982 21.341 18.982 17.955 16.468 17.955" fill="#351731"/><polygon id="polygon391" points="16.709 21.097 18.741 21.097 18.741 18.199 16.709 18.199" fill="#f6f8fb"/><path id="path393" d="m2.2065 6.4305s5.1414-1.882 6.7929-1.2064c1.6514 0.67571 2.5201 1.9786 2.5201 1.9786l-5.1067-4.9709" fill="#000" fill-opacity=".3"/><path id="path395" d="m11.209 11.031s3.4965-3.8287 8.4996-3.8287h-8.4996z" fill="#000" fill-opacity=".3"/><polygon id="polygon397" points="10.851 22.885 11.567 22.885 11.567 6.5685 10.851 6.5685" fill="#4c2147"/><polygon id="polygon399" points="11.209 22.885 11.567 22.885 11.567 6.5685 11.209 6.5685" fill="#351731"/><polygon id="polygon401" points="5.214 22.885 7.9697 22.885 7.9697 17.576 5.214 17.576" fill="#351731"/><polygon id="polygon403" points="5.2139 22.885 5.2139 17.576 7.9696 17.576 7.9696 22.885 8.1237 22.885 8.1237 17.376 5.0599 17.376 5.0599 22.885" fill="#351731"/><polygon id="polygon405" points="5.7472 20.23 7.4364 20.23 7.4364 18.116 5.7472 18.116" fill="#f6f8fb"/><polygon id="polygon407" points="21.519 7.2027 11.629 7.3375 5.5279 1.5624 15.807 1.5624" fill="#4c2147"/><polygon id="polygon409" points="3.2383e-12 7.2027 1.4908 7.2027 6.3549 2.3458 5.5273 1.5624" fill="#4c2147"/></g></g><path id="path413" d="m191.19 85.474c-12.337-8.8667-17.453-17.159-30.448-34.483-15.745-20.99-45.411-20.979-68.633-2.7275-20.405 16.038-58.507 37.211-76.804 37.211z" fill="#fff"/><path id="path415" d="m191.19 85.474c-12.337-8.8667-17.453-17.159-30.448-34.483-15.745-20.99-45.411-20.979-68.633-2.7275-20.405 16.038-58.507 37.211-76.804 37.211z" fill="url(#linearGradient-13)"/><g id="Group-45-Copy-2" transform="translate(120.16 6.8883)"><polygon id="Fill-4" points="18.267 38.985 25.928 38.985 25.928 16.916 29.316 16.916 23.675 3.5936 18.267 16.916" fill="#4c2147"/><polygon id="polygon418" points="1.7303 38.985 17.869 38.985 17.869 24.399 1.7303 24.399" fill="#4c2147"/><polygon id="polygon420" points="5.5166 38.985 21.655 38.985 21.655 24.399 5.5166 24.399" fill="#785174"/><polygon id="polygon422" points="21.655 38.985 29.316 38.985 29.316 16.916 21.655 16.916" fill="#785174"/><path id="path424" d="m9.1739 38.557h-2.2158v-4.935c0-0.61168 0.49606-1.1077 1.1077-1.1077 0.61196 0 1.108 0.49606 1.108 1.1077z" fill="#1a0c19"/><path id="path426" d="m12.574 38.557h-2.2156v-4.935c0-0.61168 0.49606-1.1077 1.1077-1.1077 0.61196 0 1.1079 0.49606 1.1079 1.1077z" fill="#1a0c19"/><path id="path428" d="m15.974 38.557h-2.2158v-4.935c0-0.61168 0.49606-1.1077 1.1077-1.1077 0.61196 0 1.108 0.49606 1.108 1.1077z" fill="#1a0c19"/><path id="path430" d="m19.375 38.557h-2.2158v-4.935c0-0.61168 0.49606-1.1077 1.1077-1.1077 0.61196 0 1.108 0.49606 1.108 1.1077z" fill="#1a0c19"/><path id="path432" d="m27.137 38.985h-3.2168v-4.8622c0-0.88824 0.72012-1.6084 1.6084-1.6084 0.88837 0 1.6085 0.72012 1.6085 1.6084z" fill="#1a0c19"/><path id="path434" d="m26.284 31.113h-1.5117v-2.2848c0-0.41746 0.33844-0.7559 0.75576-0.7559 0.41746 0 0.7559 0.33844 0.7559 0.7559z" fill="#1a0c19"/><path id="path436" d="m26.284 25.811h-1.5117v-2.2848c0-0.41746 0.33844-0.7559 0.75576-0.7559 0.41746 0 0.7559 0.33844 0.7559 0.7559z" fill="#1a0c19"/><polygon id="polygon438" points="23.559 1.0757 23.559 3.8792 22.818 5.7057 24.569 5.7057 23.828 3.9545 23.828 1.0757 24.569 1.0757 24.569 0.80687 23.828 0.80687 23.828 0 23.559 0 23.559 0.80687 22.818 0.80687 22.818 1.0757" fill="#1a0c19"/><polygon id="polygon440" points="29.316 16.916 21.655 16.916 29.316 38.985" fill="#f6f8fb" opacity=".099958"/><polygon id="polygon442" points="5.5166 31.236 5.5166 38.985 22.097 31.236" fill="#f6f8fb" opacity=".099958"/><path id="path444" d="m27.382 19.435c0 1.0238-0.82994 1.8536-1.8536 1.8536s-1.8536-0.8298-1.8536-1.8536c0-1.0236 0.82994-1.8534 1.8536-1.8534s1.8536 0.8298 1.8536 1.8534" fill="#1a0c19"/><polygon id="polygon446" points="22.283 39.761 28.434 39.761 28.434 38.985 22.283 38.985" fill="#1a0c19"/><polygon id="polygon448" points="22.283 39.954 28.434 39.954 28.434 39.568 22.283 39.568" fill="#785174"/><polygon id="polygon450" points="21.64 40.73 29.077 40.73 29.077 39.954 21.64 39.954" fill="#1a0c19"/><polygon id="polygon452" points="21.64 40.923 29.077 40.923 29.077 40.537 21.64 40.537" fill="#785174"/><polygon id="polygon454" points="20.951 41.699 29.766 41.699 29.766 40.923 20.951 40.923" fill="#1a0c19"/><polygon id="polygon456" points="20.951 41.892 29.766 41.892 29.766 41.506 20.951 41.506" fill="#785174"/><polygon id="polygon458" points="20.214 42.626 30.503 42.626 30.503 41.85 20.214 41.85" fill="#1a0c19"/><polygon id="polygon460" points="20.214 42.819 30.503 42.819 30.503 42.434 20.214 42.434" fill="#785174"/><polygon id="polygon462" points="22.097 33.111 0.027537 33.111 1.4089 23.967 22.097 23.967" fill="#4c2147"/></g><g id="Group-135-Copy-3" transform="translate(97.967 28.319)"><polygon id="polygon465" points="12.614 2.6961 14.455 2.6961 14.455 -8.8551e-13 12.614 -8.8551e-13" fill="#c74533"/><polygon id="polygon467" points="11.3 2.6961 12.614 2.6961 12.614 -8.8551e-13 11.3 -8.8551e-13" fill="#f85f4a"/><polygon id="polygon469" points="26.008 29.75 26.008 8.5391 20.29 2.9014 8.8534 2.9014 8.8534 29.75" fill="#f85f4a"/><polygon id="polygon471" points="14.572 29.75 14.572 8.5391 8.3366 2.9014 2.6185 8.5391 2.7908 29.75" fill="#ff9979"/><polygon id="polygon473" points="10.204 10.587 10.204 7.5006 8.5693 5.8891 6.935 7.5006 6.935 10.587" fill="#c74533"/><polygon id="polygon475" points="9.8901 10.273 9.8901 7.632 8.5693 6.3298 7.2485 7.632 7.2485 10.273" fill="#f6f8fb"/><polygon id="polygon477" points="6.9349 18.743 10.204 18.743 10.204 14.341 6.9349 14.341" fill="#c74533"/><polygon id="polygon479" points="7.2486 18.426 9.8901 18.426 9.8901 14.658 7.2486 14.658" fill="#f6f8fb"/><polygon id="polygon481" points="16.044 18.749 19.313 18.749 19.313 14.347 16.044 14.347" fill="#c74533"/><polygon id="polygon483" points="16.358 18.432 18.999 18.432 18.999 14.665 16.358 14.665" fill="#f6f8fb"/><polygon id="polygon485" points="21.408 18.749 24.677 18.749 24.677 14.347 21.408 14.347" fill="#c74533"/><polygon id="polygon487" points="21.722 18.432 24.363 18.432 24.363 14.665 21.722 14.665" fill="#f6f8fb"/><polygon id="polygon489" points="16.044 27.744 19.313 27.744 19.313 23.342 16.044 23.342" fill="#c74533"/><polygon id="polygon491" points="16.358 27.426 18.999 27.426 18.999 23.659 16.358 23.659" fill="#f6f8fb"/><polygon id="polygon493" points="21.408 27.744 24.677 27.744 24.677 23.342 21.408 23.342" fill="#c74533"/><polygon id="polygon495" points="21.722 27.426 24.363 27.426 24.363 23.659 21.722 23.659" fill="#f6f8fb"/><path id="path497" d="m2.8685 8.3597s6.6839-2.4466 8.8307-1.5684c2.1469 0.87842 3.2761 2.5722 3.2761 2.5722l-6.6387-6.4621" fill="#c74533" fill-opacity=".6"/><path id="path499" d="m14.572 14.341s4.5454-4.9773 11.049-4.9773h-11.049z" fill="#c74533" fill-opacity=".6"/><polygon id="polygon501" points="14.106 29.75 15.037 29.75 15.037 8.5391 14.106 8.5391" fill="#f85f4a"/><polygon id="polygon503" points="14.572 29.75 15.037 29.75 15.037 8.5391 14.572 8.5391" fill="#c74533"/><polygon id="polygon505" points="6.7782 29.75 10.361 29.75 10.361 22.849 6.7782 22.849" fill="#f85f4a"/><polygon id="polygon507" points="6.778 29.75 6.778 22.849 10.36 22.849 10.36 29.75 10.561 29.75 10.561 22.589 6.5779 22.589 6.5779 29.75" fill="#c74533"/><polygon id="polygon509" points="7.4714 26.299 9.6674 26.299 9.6674 23.551 7.4714 23.551" fill="#f6f8fb"/><polygon id="polygon511" points="27.974 9.3636 15.117 9.5388 7.1863 2.0311 20.55 2.0311" fill="#c74533"/><polygon id="polygon513" points="3.2383e-12 9.3636 1.9381 9.3636 8.2614 3.0496 7.1855 2.0311" fill="#c74533"/></g><g id="Group-105-Copy" transform="matrix(-1 0 0 1 68.133 45.922)"><polygon id="polygon516" points="10.603 2.1146 12.047 2.1146 12.047 -8.8818e-13 10.603 -8.8818e-13" fill="#c74533"/><polygon id="polygon518" points="12.047 2.1146 13.077 2.1146 13.077 -8.8818e-13 12.047 -8.8818e-13" fill="#f85f4a"/><polygon id="polygon520" points="1.542 15.227 1.542 6.6975 6.0269 2.2758 14.997 2.2758 14.997 15.227" fill="#f85f4a"/><polygon id="polygon522" points="10.512 15.227 10.512 6.6975 15.402 2.2758 19.887 6.6975 19.752 15.227" fill="#ff9979"/><polygon id="polygon524" points="13.937 8.3037 13.937 5.883 15.219 4.6191 16.501 5.883 16.501 8.3037" fill="#c74533"/><polygon id="polygon526" points="14.184 8.0576 14.184 5.9859 15.219 4.9646 16.255 5.9859 16.255 8.0576" fill="#f6f8fb"/><polygon id="polygon528" points="6.7933 13.653 9.3571 13.653 9.3571 10.2 6.7933 10.2" fill="#c74533"/><polygon id="polygon530" points="7.0393 13.404 9.1111 13.404 9.1111 10.449 7.0393 10.449" fill="#f6f8fb"/><polygon id="polygon532" points="2.5862 13.653 5.15 13.653 5.15 10.2 2.5862 10.2" fill="#c74533"/><polygon id="polygon534" points="2.8322 13.404 4.9039 13.404 4.9039 10.449 2.8322 10.449" fill="#f6f8fb"/><path id="path536" d="m19.691 6.5568s-5.2422-1.9191-6.9261-1.2301c-1.6838 0.68882-2.5695 2.0174-2.5695 2.0174l5.2068-5.0683" fill="#c74533" fill-opacity=".6"/><path id="path538" d="m10.512 11.248s-3.565-3.9038-8.6662-3.9038h8.6662z" fill="#c74533" fill-opacity=".6"/><polygon id="polygon540" points="10.147 15.227 10.877 15.227 10.877 6.6974 10.147 6.6974" fill="#f85f4a"/><polygon id="polygon542" points="10.147 15.227 10.512 15.227 10.512 6.6974 10.147 6.6974" fill="#c74533"/><polygon id="Fill-48" points="13.815 15.227 16.624 15.227 16.624 9.8138 13.815 9.8138" fill="#f85f4a"/><polygon id="Fill-49" points="16.624 15.226 16.624 9.8137 13.815 9.8137 13.815 15.226 13.658 15.226 13.658 9.61 16.781 9.61 16.781 15.226" fill="#c74533"/><polygon id="Fill-50" points="14.358 12.52 16.081 12.52 16.081 10.364 14.358 10.364" fill="#f6f8fb"/><polygon id="Fill-51" points="3.6309e-12 7.3441 10.084 7.4815 16.304 1.5931 5.8231 1.5931" fill="#c74533"/><polygon id="Fill-52" points="21.941 7.3441 20.42 7.3441 15.461 2.3918 16.305 1.5931" fill="#c74533"/></g><g id="Group-11" transform="translate(0 59.003)"><path id="path550" d="m0.13916 26.514c7.6537 0 22.482-9.8388 32.201-16.755 9.7196-6.9158 28.124-17.655 51.878 0 24.367 18.111 29.006 16.755 29.006 16.755h-107.1" fill="#fff"/><path id="path552" d="m0.13916 26.514c7.6537 0 22.482-9.8388 32.201-16.755 9.7196-6.9158 28.124-17.655 51.878 0 24.367 18.111 29.006 16.755 29.006 16.755h-107.1" fill="url(#linearGradient-14)"/></g><path id="path555" d="m29.877 85.322s27.567-5.7472 51.433-18.703c20.94-11.367 37.475-17.924 68.257 0 30.782 17.924 34.177 18.703 34.177 18.703z" fill="#fff"/><path id="path557" d="m29.877 85.322s27.567-5.7472 51.433-18.703c20.94-11.367 37.475-17.924 68.257 0 30.782 17.924 34.177 18.703 34.177 18.703z" fill="url(#linearGradient-15)"/><path id="path559" d="m148.02 63.682c-3.513 1.0647-7.0124 2.1701-10.405 3.3275-16.56 5.6498 8.3773 18.313 8.3773 18.313h-25.716s-13.053-16.365 10.131-22.21c3.4016-0.85741 6.9878-1.7736 10.631-2.7273" fill="#fff"/><path id="path561" d="m148.02 63.682c-3.513 1.0647-7.0124 2.1701-10.405 3.3275-16.56 5.6498 8.3773 18.313 8.3773 18.313h-25.716s-13.053-16.365 10.131-22.21c3.4016-0.85741 6.9878-1.7736 10.631-2.7273" fill="url(#linearGradient-16)"/><g id="Group-105-Copy-3" transform="translate(75.771 58.933)"><polygon id="polygon563" points="13.784 2.7489 15.661 2.7489 15.661 -8.8818e-13 13.784 -8.8818e-13" fill="#785174"/><polygon id="polygon565" points="15.661 2.7489 17.001 2.7489 17.001 -8.8818e-13 15.661 -8.8818e-13" fill="#4c2147"/><polygon id="polygon567" points="2.0046 19.795 2.0046 8.7067 7.835 2.9585 19.496 2.9585 19.496 19.795" fill="#785174"/><polygon id="polygon569" points="13.665 19.795 13.665 8.7067 20.023 2.9585 25.853 8.7067 25.677 19.795" fill="#4c2147"/><polygon id="polygon571" points="18.119 10.795 18.119 7.6478 19.785 6.0048 21.452 7.6478 21.452 10.795" fill="#351731"/><polygon id="polygon573" points="18.439 10.475 18.439 7.7816 19.785 6.454 21.132 7.7816 21.132 10.475" fill="#f6f8fb"/><polygon id="polygon575" points="8.8313 17.749 12.164 17.749 12.164 13.26 8.8313 13.26" fill="#351731"/><polygon id="polygon577" points="9.1511 17.425 11.844 17.425 11.844 13.584 9.1511 13.584" fill="#f6f8fb"/><polygon id="polygon579" points="3.362 17.749 6.695 17.749 6.695 13.26 3.362 13.26" fill="#351731"/><polygon id="polygon581" points="3.6819 17.425 6.3751 17.425 6.3751 13.584 3.6819 13.584" fill="#f6f8fb"/><path id="path583" d="m25.598 8.5238s-6.8149-2.4948-9.0039-1.5991c-2.189 0.89547-3.3404 2.6226-3.3404 2.6226l6.7689-6.5889" fill="#000" fill-opacity=".3"/><path id="path585" d="m13.665 14.622s-4.6346-5.0749-11.266-5.0749h11.266z" fill="#000" fill-opacity=".3"/><polygon id="polygon587" points="13.191 19.794 14.14 19.794 14.14 8.7067 13.191 8.7067" fill="#351731"/><polygon id="polygon589" points="13.191 19.794 13.665 19.794 13.665 8.7067 13.191 8.7067" fill="#4c2147"/><polygon id="polygon591" points="17.959 19.794 21.612 19.794 21.612 12.758 17.959 12.758" fill="#351731"/><polygon id="polygon593" points="21.612 19.794 21.612 12.758 17.959 12.758 17.959 19.794 17.755 19.794 17.755 12.493 21.816 12.493 21.816 19.794" fill="#351731"/><polygon id="polygon595" points="18.666 16.276 20.905 16.276 20.905 13.474 18.666 13.474" fill="#f6f8fb"/><polygon id="polygon597" points="3.6309e-12 9.5473 13.109 9.726 21.195 2.0711 7.57 2.0711" fill="#4c2147"/><polygon id="polygon599" points="28.523 9.5473 26.547 9.5473 20.099 3.1093 21.196 2.0711" fill="#4c2147"/></g><g id="Group-105-Copy-2" transform="matrix(-1 0 0 1 159.93 56.936)"><polygon id="polygon602" points="12.586 2.51 14.3 2.51 14.3 -8.8818e-13 12.586 -8.8818e-13" fill="#c74533"/><polygon id="polygon604" points="14.3 2.51 15.523 2.51 15.523 -8.8818e-13 14.3 -8.8818e-13" fill="#f85f4a"/><polygon id="polygon606" points="1.8304 18.074 1.8304 7.9499 7.154 2.7013 17.801 2.7013 17.801 18.074" fill="#f85f4a"/><polygon id="polygon608" points="12.477 18.074 12.477 7.9499 18.282 2.7013 23.606 7.9499 23.445 18.074" fill="#ff9979"/><polygon id="polygon610" points="16.544 9.8565 16.544 6.9831 18.066 5.4828 19.587 6.9831 19.587 9.8565" fill="#c74533"/><polygon id="polygon612" points="16.836 9.5644 16.836 7.1052 18.066 5.893 19.295 7.1052 19.295 9.5644" fill="#f6f8fb"/><polygon id="polygon614" points="8.0636 16.206 11.107 16.206 11.107 12.108 8.0636 12.108" fill="#c74533"/><polygon id="polygon616" points="8.3557 15.911 10.815 15.911 10.815 12.403 8.3557 12.403" fill="#f6f8fb"/><polygon id="polygon618" points="3.0698 16.206 6.113 16.206 6.113 12.108 3.0698 12.108" fill="#c74533"/><polygon id="polygon620" points="3.3618 15.911 5.821 15.911 5.821 12.403 3.3618 12.403" fill="#f6f8fb"/><path id="path622" d="m23.373 7.7829s-6.2225-2.2779-8.2212-1.4601c-1.9987 0.81763-3.05 2.3947-3.05 2.3947l6.1805-6.0161" fill="#c74533" fill-opacity=".6"/><path id="path624" d="m12.477 13.351s-4.2317-4.6338-10.287-4.6338h10.287z" fill="#c74533" fill-opacity=".6"/><polygon id="polygon626" points="12.044 18.074 12.911 18.074 12.911 7.9499 12.044 7.9499" fill="#f85f4a"/><polygon id="polygon628" points="12.044 18.074 12.478 18.074 12.478 7.9499 12.044 7.9499" fill="#c74533"/><polygon id="polygon630" points="16.398 18.074 19.733 18.074 19.733 11.649 16.398 11.649" fill="#f85f4a"/><polygon id="polygon632" points="19.733 18.074 19.733 11.649 16.398 11.649 16.398 18.074 16.211 18.074 16.211 11.407 19.92 11.407 19.92 18.074" fill="#c74533"/><polygon id="polygon634" points="17.043 14.861 19.088 14.861 19.088 12.303 17.043 12.303" fill="#f6f8fb"/><polygon id="polygon636" points="3.6309e-12 8.7174 11.97 8.8805 19.353 1.891 6.912 1.891" fill="#c74533"/><polygon id="polygon638" points="26.043 8.7174 24.239 8.7174 18.352 2.8391 19.354 1.891" fill="#c74533"/></g></g><g id="Group-126" transform="translate(32.911 48.983)"><path id="path645" d="m2.019 7.2067c-0.77395-0.76335-1.2537-1.8242-1.2537-2.9972 0-2.3248 1.8847-4.2095 4.2095-4.2095s4.2095 1.8847 4.2095 4.2095c0 1.0191-0.36218 1.9537-0.96484 2.682 1.4998 0.88175 2.4956 2.4361 2.4956 4.2062 0 2.7476-2.3986 4.975-5.3576 4.975-2.959 0-5.3576-2.2274-5.3576-4.975 0-1.5752 0.78851-2.9795 2.019-3.8911z" fill="#a1f0aa"/><path id="path647" d="m8.7652 8.8948c-1.0281 0.78532-2.0565 1.5702-3.0846 2.3554v-7.9651c0-0.29785-0.47603-0.29824-0.47603 0v3.626c-0.65819-0.73072-1.3164-1.4612-1.9746-2.1922-0.20209-0.22427-0.53762 0.10391-0.33654 0.3274 0.7703 0.85518 1.5406 1.7106 2.3111 2.5657v4.0374c-0.016304 0.0411-0.014895 0.08356 0 0.12329v1.9838c-1.0917-1.2121-2.1835-2.4241-3.2752-3.636-0.20209-0.22446-0.53782 0.10391-0.33654 0.3274 1.2039 1.3366 2.4077 2.673 3.6118 4.0096v6.7493c0 0.29804 0.47603 0.29824 0.47603 0v-9.3724c1.1405-0.87064 2.2809-1.7415 3.4212-2.6121 0.24093-0.18395-0.098024-0.50939-0.33654-0.3274" fill="#4c2147"/></g><g id="g654" transform="translate(159.2 45.922)"><path id="path650" d="m2.019 7.2067c-0.77395-0.76335-1.2537-1.8242-1.2537-2.9972 0-2.3248 1.8847-4.2095 4.2095-4.2095s4.2095 1.8847 4.2095 4.2095c0 1.0191-0.36218 1.9537-0.96484 2.682 1.4998 0.88175 2.4956 2.4361 2.4956 4.2062 0 2.7476-2.3986 4.975-5.3576 4.975-2.959 0-5.3576-2.2274-5.3576-4.975 0-1.5752 0.78851-2.9795 2.019-3.8911z" fill="#a2f1ab"/><path id="path652" d="m8.7652 8.8948c-1.0281 0.78532-2.0565 1.5702-3.0846 2.3554v-7.9651c0-0.29785-0.47603-0.29824-0.47603 0v3.626c-0.65819-0.73072-1.3164-1.4612-1.9746-2.1922-0.20209-0.22427-0.53762 0.10391-0.33654 0.3274 0.7703 0.85518 1.5406 1.7106 2.3111 2.5657v4.0374c-0.016304 0.0411-0.014895 0.08356 0 0.12329v1.9838c-1.0917-1.2121-2.1835-2.4241-3.2752-3.636-0.20209-0.22446-0.53782 0.10391-0.33654 0.3274 1.2039 1.3366 2.4077 2.673 3.6118 4.0096v6.7493c0 0.29804 0.47603 0.29824 0.47603 0v-9.3724c1.1405-0.87064 2.2809-1.7415 3.4212-2.6121 0.24093-0.18395-0.098024-0.50939-0.33654-0.3274" fill="#4c2147"/></g><g id="g660" transform="translate(166.85 50.514)"><path id="path656" d="m2.019 7.2067c-0.77395-0.76335-1.2537-1.8242-1.2537-2.9972 0-2.3248 1.8847-4.2095 4.2095-4.2095s4.2095 1.8847 4.2095 4.2095c0 1.0191-0.36218 1.9537-0.96484 2.682 1.4998 0.88175 2.4956 2.4361 2.4956 4.2062 0 2.7476-2.3986 4.975-5.3576 4.975-2.959 0-5.3576-2.2274-5.3576-4.975 0-1.5752 0.78851-2.9795 2.019-3.8911z" fill="#01c97b"/><path id="path658" d="m8.7652 8.8948c-1.0281 0.78532-2.0565 1.5702-3.0846 2.3554v-7.9651c0-0.29785-0.47603-0.29824-0.47603 0v3.626c-0.65819-0.73072-1.3164-1.4612-1.9746-2.1922-0.20209-0.22427-0.53762 0.10391-0.33654 0.3274 0.7703 0.85518 1.5406 1.7106 2.3111 2.5657v4.0374c-0.016304 0.0411-0.014895 0.08356 0 0.12329v1.9838c-1.0917-1.2121-2.1835-2.4241-3.2752-3.636-0.20209-0.22446-0.53782 0.10391-0.33654 0.3274 1.2039 1.3366 2.4077 2.673 3.6118 4.0096v6.7493c0 0.29804 0.47603 0.29824 0.47603 0v-9.3724c1.1405-0.87064 2.2809-1.7415 3.4212-2.6121 0.24093-0.18395-0.098024-0.50939-0.33654-0.3274" fill="#4c2147"/></g><g id="Group-125" transform="translate(61.995 66.587)"><path id="path662" d="m9.8567 4.9283c0 2.7218-2.2065 4.9283-4.9283 4.9283-2.7218 0-4.9283-2.2065-4.9283-4.9283 0-2.7218 2.2065-4.9283 4.9283-4.9283 2.7218 0 4.9283 2.2065 4.9283 4.9283" fill="#01c97b"/><path id="path664" d="m7.9837 2.9181c-0.93764 0.73627-1.8751 1.4725-2.8127 2.2088v-3.0176c0-0.31222-0.48529-0.31261-0.48529 0v5.3795c-0.99598-1.1373-1.9918-2.2745-2.9877-3.4118-0.18606-0.21222-0.4946 0.09826-0.30951 0.30951 1.0991 1.2551 2.1982 2.5102 3.2972 3.7653v4.9809c0 0.31222 0.48529 0.31281 0.48529 0v-7.4533c1.0407-0.81729 2.0815-1.6346 3.1222-2.4519 0.22133-0.17385-0.090314-0.48181-0.30951-0.30951" fill="#4c2147"/></g><g id="Group-125-Copy" transform="translate(120.16 50.514)"><path id="path667" d="m9.8567 4.9283c0 2.7218-2.2065 4.9283-4.9283 4.9283-2.7218 0-4.9283-2.2065-4.9283-4.9283 0-2.7218 2.2065-4.9283 4.9283-4.9283 2.7218 0 4.9283 2.2065 4.9283 4.9283" fill="#a2f1ab"/><path id="path669" d="m7.9837 2.9181c-0.93764 0.73627-1.8751 1.4725-2.8127 2.2088v-3.0176c0-0.31222-0.48529-0.31261-0.48529 0v5.3795c-0.99598-1.1373-1.9918-2.2745-2.9877-3.4118-0.18606-0.21222-0.4946 0.09826-0.30951 0.30951 1.0991 1.2551 2.1982 2.5102 3.2972 3.7653v4.9809c0 0.31222 0.48529 0.31281 0.48529 0v-7.4533c1.0407-0.81729 2.0815-1.6346 3.1222-2.4519 0.22133-0.17385-0.090314-0.48181-0.30951-0.30951" fill="#4c2147"/></g></g></svg>
