<?xml version="1.0" encoding="UTF-8" standalone="no"?>
<svg
   width="124"
   height="124"
   viewBox="0 0 124 124"
   version="1.1"
   id="svg29"
   xmlns="http://www.w3.org/2000/svg"
   xmlns:svg="http://www.w3.org/2000/svg"
   xmlns:rdf="http://www.w3.org/1999/02/22-rdf-syntax-ns#"
   xmlns:cc="http://creativecommons.org/ns#"
   xmlns:dc="http://purl.org/dc/elements/1.1/">
  <!-- Generator: sketchtool 55.1 (78136) - https://sketchapp.com -->
  <title
     id="title2">E32878A8-6B03-4D69-B995-ABB1F0550E3E</title>
  <desc
     id="desc4">Created with sketchtool.</desc>
  <defs
     id="defs19">
    <filter
       x="-20.4"
       y="-17.536035"
       width="41.8"
       height="36.931679"
       filterUnits="objectBoundingBox"
       id="filter-1">
      <feOffset
         dx="0"
         dy="2"
         in="SourceAlpha"
         result="shadowOffsetOuter1"
         id="feOffset6" />
      <feGaussianBlur
         stdDeviation="17"
         in="shadowOffsetOuter1"
         result="shadowBlurOuter1"
         id="feGaussianBlur8" />
      <feColorMatrix
         values="0 0 0 0 0   0 0 0 0 0   0 0 0 0 0  0 0 0 0.102655157 0"
         type="matrix"
         in="shadowBlurOuter1"
         result="shadowMatrixOuter1"
         id="feColorMatrix10" />
      <feMerge
         id="feMerge16">
        <feMergeNode
           in="shadowMatrixOuter1"
           id="feMergeNode12" />
        <feMergeNode
           in="SourceGraphic"
           id="feMergeNode14" />
      </feMerge>
    </filter>
  </defs>
  <g
     id="g2252"
     transform="translate(-0.90873,-2.0443691)">
    <path
       style="fill:#000000;fill-opacity:1;fill-rule:nonzero;stroke:none;stroke-width:1;filter:url(#filter-1)"
       d="m 92.338691,93.363117 c 0.82843,0 1.5,-0.67157 1.5,-1.5 0,-0.828434 -0.67157,-1.500001 -1.5,-1.500001 -0.82843,0 -1.5,0.671567 -1.5,1.500001 0,0.82843 0.67157,1.5 1.5,1.5 z"
       id="path928" />
    <path
       style="fill:#000000;fill-opacity:1;fill-rule:nonzero;stroke:none;stroke-width:1;filter:url(#filter-1)"
       d="m 61.338689,69.363116 c 0.82842,0 1.5,-0.67157 1.5,-1.5 0,-0.82842 -0.67158,-1.5 -1.5,-1.5 -0.82843,0 -1.5,0.67158 -1.5,1.5 0,0.82843 0.67157,1.5 1.5,1.5 z"
       id="path926" />
    <path
       style="fill:#000000;fill-opacity:1;fill-rule:nonzero;stroke:none;stroke-width:1;filter:url(#filter-1)"
       d="m 27.838689,40.363116 c 0.82842,0 1.5,-0.67157 1.5,-1.5 0,-0.82842 -0.67158,-1.5 -1.5,-1.5 -0.82843,0 -1.5,0.67158 -1.5,1.5 0,0.82843 0.67157,1.5 1.5,1.5 z"
       id="path924" />
    <path
       style="fill:#000000;fill-opacity:1;fill-rule:nonzero;stroke:none;stroke-width:1;filter:url(#filter-1)"
       d="m 100.9194,67.080716 c -0.38611,0.39488 -1.019239,0.40199 -1.414119,0.0159 -0.39488,-0.38612 -0.40199,-1.01924 -0.0159,-1.41412 1.475699,-1.50921 3.170699,-2.79026 5.026709,-3.79572 0.4856,-0.26307 1.09252,-0.0827 1.35559,0.40293 0.26307,0.48561 0.0827,1.09253 -0.40293,1.3556 -1.67936,0.90977 -3.21353,2.06927 -4.54937,3.43544 z"
       id="path922" />
    <path
       style="fill:#000000;fill-opacity:1;fill-rule:nonzero;stroke:none;stroke-width:1;filter:url(#filter-1)"
       d="m 95.774881,77.155076 c -0.0926,0.54447 -0.60896,0.91083 -1.15343,0.81828 -0.54448,-0.0926 -0.91083,-0.60896 -0.81828,-1.15344 0.3558,-2.09319 1.02572,-4.10653 1.98222,-5.98265 0.25085,-0.49203 0.85307,-0.68754 1.3451,-0.43669 0.49203,0.25085 0.68754,0.85307 0.43669,1.3451 -0.86493,1.69652 -1.47057,3.51667 -1.7923,5.4094 z"
       id="path920" />
    <path
       style="fill:#000000;fill-opacity:1;fill-rule:nonzero;stroke:none;stroke-width:1;filter:url(#filter-1)"
       d="m 74.342529,101.01703 c -0.54147,-0.10873 -0.89228,-0.63583 -0.78355,-1.177313 0.10873,-0.54147 0.63583,-0.89228 1.17731,-0.78355 0.99788,0.20039 2.01905,0.30374 3.05089,0.30687 0.91098,7e-5 1.76786,-0.0691 2.61529,-0.20851 0.54496,-0.0897 1.05942,0.27942 1.14908,0.82438 0.0897,0.544963 -0.27942,1.059423 -0.82438,1.149083 -0.95545,0.1572 -1.92098,0.23513 -2.9431,0.23505 -1.16517,-0.004 -2.31619,-0.12003 -3.44154,-0.34601 z"
       id="path918" />
    <path
       style="fill:#000000;fill-opacity:1;fill-rule:nonzero;stroke:none;stroke-width:1;filter:url(#filter-1)"
       d="m 63.750599,94.358037 c -0.33359,-0.44015 -0.2472,-1.06739 0.19295,-1.40098 0.44016,-0.3336 1.0674,-0.24721 1.40099,0.19295 1.14448,1.51008 2.55453,2.80391 4.15747,3.81342 0.46733,0.29432 0.60758,0.91175 0.31327,1.37908 -0.29432,0.46733 -0.91176,0.60758 -1.37908,0.31327 -1.80688,-1.13794 -3.39579,-2.5959 -4.6856,-4.29774 z"
       id="path916" />
    <path
       style="fill:#000000;fill-opacity:1;fill-rule:nonzero;stroke:none;stroke-width:1;filter:url(#filter-1)"
       d="m 60.172019,82.447636 c 0,-0.55228 0.44772,-1 1,-1 0.55229,0 1,0.44772 1,1 v 1.24882 c 0,1.51421 0.21455,2.99866 0.6325,4.42206 0.1556,0.52991 -0.14784,1.08563 -0.67775,1.24123 -0.52992,0.15559 -1.08563,-0.14785 -1.24123,-0.67776 -0.47155,-1.60593 -0.71352,-3.2801 -0.71352,-4.98553 z"
       id="path914" />
    <path
       style="fill:#000000;fill-opacity:1;fill-rule:nonzero;stroke:none;stroke-width:1;filter:url(#filter-1)"
       d="m 60.172019,46.447636 c 0,-0.55228 0.44772,-1 1,-1 0.55229,0 1,0.44772 1,1 v 6 c 0,0.55229 -0.44771,1 -1,1 -0.55228,0 -1,-0.44771 -1,-1 z"
       id="path912" />
    <path
       style="fill:#000000;fill-opacity:1;fill-rule:nonzero;stroke:none;stroke-width:1;filter:url(#filter-1)"
       d="m 59.980029,34.569036 c -0.086,-0.54555 0.28649,-1.05753 0.83204,-1.14355 0.54554,-0.086 1.05753,0.2865 1.14355,0.83204 0.1414,0.8968 0.21405,1.80776 0.21635,2.72979 l 5e-5,3.46031 c 0,0.55228 -0.4477,1.00001 -0.99998,1.00001 -0.55229,0 -1.00001,-0.4477 -1.00002,-0.99998 l -5e-5,-3.45783 c -0.002,-0.81681 -0.0665,-1.6253 -0.19194,-2.42079 z"
       id="path910" />
    <path
       style="fill:#000000;fill-opacity:1;fill-rule:nonzero;stroke:none;stroke-width:1;filter:url(#filter-1)"
       d="m 54.468689,24.938847 c -0.42601,-0.35148 -0.48643,-0.98175 -0.13496,-1.40776 0.35148,-0.42601 0.98175,-0.48644 1.40776,-0.13496 1.64721,1.35901 3.03851,3.00634 4.10063,4.85898 0.27468,0.47913 0.10895,1.09022 -0.37018,1.3649 -0.47914,0.27469 -1.09022,0.10895 -1.36491,-0.37018 -0.94209,-1.64328 -2.17668,-3.10506 -3.63834,-4.31098 z"
       id="path908" />
    <path
       style="fill:#000000;fill-opacity:1;fill-rule:nonzero;stroke:none;stroke-width:1;filter:url(#filter-1)"
       d="m 43.961159,21.372387 c -0.55196,0.0188 -1.01467,-0.41338 -1.03349,-0.96535 -0.0188,-0.55196 0.41337,-1.01467 0.96534,-1.03349 0.19966,-0.007 0.39974,-0.0103 0.60088,-0.0104 1.96486,0 3.8781,0.3175 5.69433,0.93417 0.52296,0.17756 0.80297,0.74545 0.62541,1.26841 -0.17757,0.52296 -0.74545,0.80297 -1.26842,0.6254 -1.60964,-0.54652 -3.30569,-0.82798 -5.05065,-0.82798 -0.17818,1.2e-4 -0.356,0.003 -0.5334,0.009 z"
       id="path906" />
    <path
       style="fill:#000000;fill-opacity:1;fill-rule:nonzero;stroke:none;stroke-width:1;filter:url(#filter-1)"
       d="m 33.729929,25.657197 c -0.40084,0.37992 -1.03378,0.36297 -1.41371,-0.0379 -0.37992,-0.40085 -0.36297,-1.03378 0.0379,-1.41371 1.55027,-1.46939 3.35456,-2.64913 5.32623,-3.47563 0.50935,-0.21351 1.09534,0.0263 1.30885,0.53566 0.21351,0.50934 -0.0263,1.09533 -0.53566,1.30884 -1.74786,0.73269 -3.34816,1.77904 -4.72357,3.0827 z"
       id="path904" />
    <path
       style="fill:#000000;fill-opacity:1;fill-rule:nonzero;stroke:none;stroke-width:1;filter:url(#filter-1)"
       d="m 19.736459,57.669796 c -0.45485,0.31326 -1.07753,0.19849 -1.39079,-0.25636 -0.31326,-0.45485 -0.19848,-1.07752 0.25637,-1.39078 1.573,-1.08336 2.97644,-2.39878 4.15994,-3.89829 0.34216,-0.43353 0.97098,-0.5076 1.4045,-0.16543 0.43353,0.34216 0.50759,0.97097 0.16543,1.4045 -1.30737,1.65647 -2.8576,3.10947 -4.59545,4.30636 z"
       id="path902" />
    <path
       style="fill:#000000;fill-opacity:1;fill-rule:nonzero;stroke:none;stroke-width:1;filter:url(#filter-1)"
       d="m 7.8386893,61.363116 c -0.55229,0 -1,-0.44771 -1,-1 0,-0.55228 0.44771,-1 1,-1 1.93404,0 3.8280797,-0.28869 5.6373197,-0.84998 0.52748,-0.16364 1.08775,0.13131 1.2514,0.65879 0.16364,0.52749 -0.13131,1.08776 -0.65879,1.2514 -2.0006,0.62066 -4.0943897,0.93979 -6.2299297,0.93979 z"
       id="path900" />
    <path
       style="fill:#000000;fill-opacity:1;fill-rule:nonzero;stroke:none;stroke-width:1;filter:url(#filter-1)"
       d="m 28.755739,42.241746 c -0.17275,1.94734 -0.61363,3.84374 -1.30609,5.6471 -0.19797,0.51559 -0.77642,0.77306 -1.29201,0.57508 -0.51558,-0.19797 -0.77305,-0.77642 -0.57508,-1.292 0.61113,-1.59156 1.00555,-3.26328 1.16939,-4.9808 -1.40098,-0.45718 -2.41326,-1.77438 -2.41326,-3.32801 0,-1.60965 1.08661,-2.96551 2.56631,-3.37408 0.18545,-2.14491 0.75739,-4.21449 1.68038,-6.127419 0.24,-0.49741 0.83779,-0.70608 1.3352,-0.46608 0.49741,0.24 0.70608,0.83779 0.46608,1.335199 -0.7991,1.65617 -1.30115,3.44438 -1.47718,5.29922 1.40924,0.45236 2.42921,1.77365 2.42921,3.33316 0,1.61568 -1.09476,2.97567 -2.58295,3.37863 z"
       id="path898" />
    <path
       style="fill:#000000;fill-opacity:1;fill-rule:nonzero;stroke:none;stroke-width:1;filter:url(#filter-1)"
       d="m 60.178269,64.560076 c -0.004,-0.0369 -0.006,-0.0744 -0.006,-0.11244 v -6 c 0,-0.55228 0.44772,-1 1,-1 0.55229,0 1,0.44772 1,1 v 6 c 0,0.005 -4e-5,0.0102 -1.1e-4,0.0153 1.53067,0.37382 2.66673,1.75435 2.66673,3.40022 0,1.64583 -1.136,3.02633 -2.66667,3.40019 v 5.18433 c 0,0.55229 -0.44771,1 -1,1 -0.55228,0 -1,-0.44771 -1,-1 v -5.28367 c -1.35939,-0.48048 -2.33333,-1.77693 -2.33333,-3.30085 0,-1.52625 0.97693,-2.82434 2.33958,-3.30304 z"
       id="path896" />
    <path
       style="fill:#000000;fill-opacity:1;fill-rule:nonzero;stroke:none;stroke-width:1;filter:url(#filter-1)"
       d="m 91.254241,95.191867 c -1.29268,1.5073 -2.83149,2.79001 -4.549693,3.78871 -0.477489,0.27754 -1.089549,0.11545 -1.367089,-0.36203 -0.27754,-0.47748 -0.11545,-1.08955 0.36203,-1.36709 1.464939,-0.85149 2.783322,-1.93613 3.902092,-3.20679 -0.47747,-0.59828 -0.76289,-1.35659 -0.76289,-2.18155 0,-1.932991 1.567,-3.500001 3.5,-3.500001 0.15287,0 0.30345,0.01 0.45115,0.0288 0.46661,-1.48728 0.70963,-3.04516 0.7154,-4.63373 l 1.2e-4,-0.78257 c 8e-5,-0.55228 0.44786,-0.99985 1.00014,-0.99985 0.55228,0 0.99994,0.44786 0.99986,1.00014 l -1.2e-4,0.78605 c -0.007,1.87296 -0.30557,3.70689 -0.87889,5.45219 0.7425,0.64179 1.21234,1.59051 1.21234,2.648961 0,1.933 -1.567,3.5 -3.5,3.5 -0.37852,0 -0.74301,-0.0601 -1.08445,-0.17125 z"
       id="path894" />
    <path
       style="fill:#000000;fill-opacity:1;fill-rule:nonzero;stroke:none;stroke-width:1;filter:url(#filter-1)"
       d="m 113.93119,59.370846 -2.72635,-2.23427 c -0.42717,-0.35007 -0.48967,-0.98015 -0.1396,-1.40731 0.35007,-0.42717 0.98014,-0.48967 1.4073,-0.1396 l 5,4.09756 c 0.4882,0.40008 0.4882,1.14682 0,1.54691 l -4.7619,3.90244 c -0.42717,0.35006 -1.05724,0.28756 -1.40731,-0.1396 -0.35006,-0.42717 -0.28756,-1.05724 0.1396,-1.40731 l 2.71308,-2.2234 c -1.12728,0.0203 -2.24055,0.13886 -3.33123,0.35289 -0.54195,0.10634 -1.0675,-0.24678 -1.17384,-0.78873 -0.10635,-0.54195 0.24678,-1.0675 0.78873,-1.17384 1.14429,-0.22455 2.31063,-0.35398 3.49152,-0.38574 z"
       id="Combined-Shape" />
  </g>
  <metadata
     id="metadata848">
    <rdf:RDF>
      <cc:Work
         rdf:about="">
        <dc:title>E32878A8-6B03-4D69-B995-ABB1F0550E3E</dc:title>
      </cc:Work>
    </rdf:RDF>
  </metadata>
</svg>
