<?xml version="1.0" encoding="UTF-8" standalone="no"?>
<svg
   width="166px"
   height="144px"
   viewBox="0 0 166 144"
   version="1.1"
   id="svg29"
   sodipodi:docname="tour_card_city_path.svg"
   inkscape:version="1.1.1 (1:1.1+202109281944+c3084ef5ed)"
   xmlns:inkscape="http://www.inkscape.org/namespaces/inkscape"
   xmlns:sodipodi="http://sodipodi.sourceforge.net/DTD/sodipodi-0.dtd"
   xmlns="http://www.w3.org/2000/svg"
   xmlns:svg="http://www.w3.org/2000/svg"
   xmlns:rdf="http://www.w3.org/1999/02/22-rdf-syntax-ns#"
   xmlns:cc="http://creativecommons.org/ns#"
   xmlns:dc="http://purl.org/dc/elements/1.1/">
  <sodipodi:namedview
     id="namedview31"
     pagecolor="#ffffff"
     bordercolor="#666666"
     borderopacity="1.0"
     inkscape:pageshadow="2"
     inkscape:pageopacity="0.0"
     inkscape:pagecheckerboard="0"
     showgrid="false"
     inkscape:zoom="3.4860942"
     inkscape:cx="60.239336"
     inkscape:cy="117.46671"
     inkscape:window-width="1920"
     inkscape:window-height="1015"
     inkscape:window-x="0"
     inkscape:window-y="0"
     inkscape:window-maximized="1"
     inkscape:current-layer="svg29" />
  <!-- Generator: sketchtool 55.1 (78136) - https://sketchapp.com -->
  <title
     id="title2">E32878A8-6B03-4D69-B995-ABB1F0550E3E</title>
  <desc
     id="desc4">Created with sketchtool.</desc>
  <defs
     id="defs19">
    <filter
       x="-0.36756757"
       y="-0.49756149"
       width="1.7351351"
       height="2.0195133"
       filterUnits="objectBoundingBox"
       id="filter-1">
      <feOffset
         dx="0"
         dy="2"
         in="SourceAlpha"
         result="shadowOffsetOuter1"
         id="feOffset6" />
      <feGaussianBlur
         stdDeviation="17"
         in="shadowOffsetOuter1"
         result="shadowBlurOuter1"
         id="feGaussianBlur8" />
      <feColorMatrix
         values="0 0 0 0 0   0 0 0 0 0   0 0 0 0 0  0 0 0 0.102655157 0"
         type="matrix"
         in="shadowBlurOuter1"
         result="shadowMatrixOuter1"
         id="feColorMatrix10" />
      <feMerge
         id="feMerge16">
        <feMergeNode
           in="shadowMatrixOuter1"
           id="feMergeNode12" />
        <feMergeNode
           in="SourceGraphic"
           id="feMergeNode14" />
      </feMerge>
    </filter>
  </defs>
  <path
     d="m 132.0925,69.007729 -2.72635,-2.234276 c -0.42717,-0.350068 -0.48967,-0.980141 -0.1396,-1.407307 0.35007,-0.427166 0.98014,-0.489667 1.4073,-0.139599 l 5,4.097561 c 0.4882,0.400082 0.4882,1.146824 0,1.546906 l -4.7619,3.902439 c -0.42717,0.350068 -1.05724,0.287567 -1.40731,-0.139599 -0.35006,-0.427166 -0.28756,-1.057239 0.1396,-1.407307 l 2.71308,-2.223403 c -1.12728,0.0203 -2.24055,0.138868 -3.33123,0.352891 -0.54195,0.106346 -1.0675,-0.246781 -1.17384,-0.78873 -0.10635,-0.541949 0.24678,-1.067496 0.78873,-1.173842 1.14429,-0.224542 2.31063,-0.353977 3.49152,-0.385734 z m -22.67695,35.821021 c -1.29268,1.5073 -2.83149,2.79001 -4.54969,3.78871 -0.47749,0.27754 -1.08955,0.11545 -1.36709,-0.36203 -0.27754,-0.47748 -0.11545,-1.08955 0.36203,-1.36709 1.46494,-0.85149 2.78332,-1.93613 3.90209,-3.20679 C 107.28542,103.08327 107,102.32496 107,101.5 c 0,-1.932997 1.567,-3.5 3.5,-3.5 0.15287,0 0.30345,0.0098 0.45115,0.02881 0.46661,-1.487287 0.70963,-3.045164 0.7154,-4.633737 l 1.2e-4,-0.782562 c 8e-5,-0.552285 0.44786,-0.999857 1.00014,-0.999857 0.55228,0 0.99994,0.447859 0.99986,1.000144 l -1.2e-4,0.786053 c -0.007,1.872955 -0.30557,3.706885 -0.87889,5.452186 C 113.53016,99.49283 114,100.44155 114,101.5 c 0,1.933 -1.567,3.5 -3.5,3.5 -0.37852,0 -0.74301,-0.0601 -1.08445,-0.17125 z M 78.339583,74.196954 c -0.0041,-0.03691 -0.0062,-0.07442 -0.0062,-0.112432 v -6 c 0,-0.552285 0.447716,-1 1,-1 0.552285,0 1,0.447715 1,1 v 6 c 0,0.0051 -3.8e-5,0.01019 -1.14e-4,0.01526 C 81.863947,74.4736 83,75.85413 83,77.5 c 0,1.645829 -1.135996,3.026331 -2.666667,3.400185 v 5.184337 c 0,0.552285 -0.447715,1 -1,1 -0.552284,0 -1,-0.447715 -1,-1 V 80.800843 C 76.973942,80.320368 76,79.023922 76,77.5 c 0,-1.526257 0.976928,-2.824339 2.339583,-3.303046 z M 46.917051,51.87863 c -0.172751,1.947342 -0.61363,3.843738 -1.306087,5.647101 -0.197974,0.515582 -0.776425,0.773055 -1.292007,0.575081 -0.515582,-0.197973 -0.773055,-0.776425 -0.575081,-1.292007 0.611125,-1.591553 1.005542,-3.263278 1.16939,-4.980798 C 43.512283,51.370825 42.5,50.053628 42.5,48.5 c 0,-1.609654 1.086608,-2.965517 2.566316,-3.374082 0.185448,-2.144906 0.757382,-4.214492 1.680374,-6.12742 0.240001,-0.49741 0.837793,-0.706082 1.335203,-0.46608 0.497411,0.240002 0.706083,0.837793 0.466081,1.335204 -0.799103,1.656163 -1.301147,3.444379 -1.47718,5.299212 C 48.480032,45.619197 49.5,46.940485 49.5,48.5 c 0,1.615679 -1.094758,2.975664 -2.582949,3.37863 z M 26,71 c -0.552285,0 -1,-0.447715 -1,-1 0,-0.552285 0.447715,-1 1,-1 1.934046,0 3.828084,-0.288689 5.637321,-0.849979 0.527484,-0.163644 1.087754,0.131306 1.251398,0.658789 0.163644,0.527484 -0.131306,1.087754 -0.658789,1.251398 C 30.229331,70.680866 28.135545,71 26,71 Z m 11.897769,-3.69332 c -0.454847,0.313261 -1.077522,0.198483 -1.390783,-0.256364 -0.313261,-0.454848 -0.198482,-1.077522 0.256365,-1.390783 1.572999,-1.083352 2.976446,-2.398777 4.159939,-3.89829 0.342161,-0.433525 0.970979,-0.507591 1.404504,-0.16543 0.433526,0.34216 0.507592,0.970978 0.165431,1.404504 -1.307373,1.656471 -2.857604,3.109475 -4.595456,4.306363 z M 51.891244,35.294073 c -0.400841,0.379928 -1.033779,0.362975 -1.413707,-0.03787 -0.379928,-0.400841 -0.362975,-1.033779 0.03787,-1.413707 1.550265,-1.469385 3.35456,-2.649127 5.326228,-3.475624 0.509344,-0.213511 1.095334,0.02631 1.308845,0.535654 0.21351,0.509345 -0.02631,1.095334 -0.535655,1.308845 -1.747867,0.732683 -3.348158,1.779037 -4.723577,3.082697 z m 10.231231,-4.28481 c -0.551964,0.01882 -1.014676,-0.413378 -1.033497,-0.965342 -0.01882,-0.551964 0.413378,-1.014676 0.965342,-1.033496 0.199659,-0.0068 0.399747,-0.01029 0.600881,-0.01042 1.964865,0 3.878106,0.317507 5.694333,0.93417 0.522963,0.177562 0.802966,0.745449 0.625405,1.268412 -0.177562,0.522963 -0.745449,0.802966 -1.268412,0.625405 -1.609645,-0.546523 -3.305699,-0.827987 -5.050651,-0.827987 -0.178187,1.2e-4 -0.356003,0.0032 -0.533401,0.0093 z m 10.50753,3.56646 c -0.42601,-0.351474 -0.486433,-0.98175 -0.134958,-1.40776 0.351474,-0.426009 0.981749,-0.486432 1.407759,-0.134958 1.647206,1.359008 3.038511,3.006345 4.100624,4.858979 0.274685,0.479131 0.108949,1.09022 -0.370182,1.364905 -0.479131,0.274685 -1.09022,0.108949 -1.364905,-0.370182 -0.942088,-1.643277 -2.176678,-3.105059 -3.638338,-4.310984 z m 5.511334,9.630193 c -0.08602,-0.545545 0.286498,-1.057529 0.832043,-1.14355 0.545544,-0.08602 1.057529,0.286498 1.143549,0.832043 0.141405,0.896795 0.214054,1.807758 0.216349,2.729793 l 5.3e-5,3.460305 c 0,0.552285 -0.4477,1.000015 -0.999984,1.000015 -0.552285,0 -1.000007,-0.4477 -1.000016,-0.999985 l -5e-5,-3.457826 c -0.002,-0.816816 -0.06651,-1.625304 -0.191944,-2.420795 z m 0.191994,11.878606 c 0,-0.552285 0.447716,-1 1,-1 0.552285,0 1,0.447715 1,1 v 6 c 0,0.552285 -0.447715,1 -1,1 -0.552284,0 -1,-0.447715 -1,-1 z m 0,36 c 0,-0.552285 0.447716,-1 1,-1 0.552285,0 1,0.447715 1,1 v 1.248811 c 0,1.514213 0.21455,2.998664 0.632502,4.422063 0.155599,0.529913 -0.147843,1.08563 -0.677756,1.241228 -0.529913,0.155598 -1.08563,-0.147844 -1.241228,-0.677757 -0.471548,-1.605926 -0.713518,-3.280097 -0.713518,-4.985534 z m 3.578581,11.910398 c -0.33359,-0.44015 -0.247203,-1.06739 0.192952,-1.40098 0.440154,-0.3336 1.067398,-0.24721 1.400988,0.19295 1.144483,1.51008 2.55453,2.80391 4.157469,3.81342 0.467329,0.29432 0.607583,0.91175 0.313266,1.37908 -0.294317,0.46733 -0.911753,0.60758 -1.379081,0.31327 -1.806872,-1.13794 -3.395782,-2.5959 -4.685594,-4.29774 z m 10.59193,6.65899 c -0.541475,-0.10873 -0.892282,-0.63583 -0.78355,-1.17731 0.108733,-0.54147 0.635831,-0.89228 1.177306,-0.78355 0.997878,0.20039 2.019048,0.30374 3.050896,0.30687 0.910975,7e-5 1.767861,-0.0691 2.615288,-0.20851 0.544958,-0.0897 1.059419,0.27942 1.149081,0.82438 0.08966,0.54496 -0.279427,1.05942 -0.824385,1.14908 -0.955451,0.1572 -1.920976,0.23513 -2.943094,0.23505 -1.165175,-0.004 -2.31619,-0.12003 -3.441542,-0.34601 z M 113.93619,86.791955 c -0.0926,0.544475 -0.60896,0.910832 -1.15343,0.818282 -0.54448,-0.09255 -0.91083,-0.608961 -0.81828,-1.153436 0.3558,-2.093193 1.02572,-4.10653 1.98222,-5.982654 0.25085,-0.492029 0.85307,-0.687543 1.3451,-0.436693 0.49203,0.25085 0.68754,0.853072 0.43669,1.345102 -0.86493,1.696523 -1.47057,3.516669 -1.7923,5.409399 z m 5.14452,-10.074357 c -0.38611,0.394882 -1.01924,0.401988 -1.41412,0.01587 -0.39488,-0.386117 -0.40199,-1.019242 -0.0159,-1.414124 1.4757,-1.509203 3.1707,-2.790252 5.02671,-3.795718 0.4856,-0.26307 1.09252,-0.08267 1.35559,0.402936 0.26307,0.485605 0.0827,1.092526 -0.40293,1.355596 -1.67936,0.909768 -3.21353,2.069265 -4.54937,3.435439 z M 46,50 c 0.828427,0 1.5,-0.671573 1.5,-1.5 0,-0.828427 -0.671573,-1.5 -1.5,-1.5 -0.828427,0 -1.5,0.671573 -1.5,1.5 0,0.828427 0.671573,1.5 1.5,1.5 z M 79.5,79 C 80.328427,79 81,78.328427 81,77.5 81,76.671573 80.328427,76 79.5,76 78.671573,76 78,76.671573 78,77.5 c 0,0.828427 0.671573,1.5 1.5,1.5 z m 31,24 c 0.82843,0 1.5,-0.67157 1.5,-1.5 0,-0.82843 -0.67157,-1.5 -1.5,-1.5 -0.82843,0 -1.5,0.67157 -1.5,1.5 0,0.82843 0.67157,1.5 1.5,1.5 z"
     id="Combined-Shape"
     style="fill:#ffffff;fill-rule:nonzero;stroke:none;stroke-width:1;filter:url(#filter-1)" />
  <metadata
     id="metadata848">
    <rdf:RDF>
      <cc:Work
         rdf:about="">
        <dc:title>E32878A8-6B03-4D69-B995-ABB1F0550E3E</dc:title>
      </cc:Work>
    </rdf:RDF>
  </metadata>
</svg>
